<?xml version="1.0" encoding="UTF-8" standalone="no"?>
<svg
   xmlns:dc="http://purl.org/dc/elements/1.1/"
   xmlns:cc="http://creativecommons.org/ns#"
   xmlns:rdf="http://www.w3.org/1999/02/22-rdf-syntax-ns#"
   xmlns:svg="http://www.w3.org/2000/svg"
   xmlns="http://www.w3.org/2000/svg"
   xmlns:sodipodi="http://sodipodi.sourceforge.net/DTD/sodipodi-0.dtd"
   xmlns:inkscape="http://www.inkscape.org/namespaces/inkscape"
   sodipodi:docname="stamps.svg"
   inkscape:version="1.0 (4035a4f, 2020-05-01)"
   id="svg8"
   version="1.1"
   viewBox="0 0 210 297"
   height="297mm"
   width="210mm">
  <defs
     id="defs2" />
  <sodipodi:namedview
     inkscape:window-maximized="0"
     inkscape:window-y="254"
     inkscape:window-x="2040"
     inkscape:window-height="943"
     inkscape:window-width="1252"
     showgrid="false"
     inkscape:document-rotation="0"
     inkscape:current-layer="layer1"
     inkscape:document-units="mm"
     inkscape:cy="429.15904"
     inkscape:cx="190.11645"
     inkscape:zoom="8.3929273"
     inkscape:pageshadow="2"
     inkscape:pageopacity="0.0"
     borderopacity="1.0"
     bordercolor="#666666"
     pagecolor="#ffffff"
     id="base" />
  <metadata
     id="metadata5">
    <rdf:RDF>
      <cc:Work
         rdf:about="">
        <dc:format>image/svg+xml</dc:format>
        <dc:type
           rdf:resource="http://purl.org/dc/dcmitype/StillImage" />
        <dc:title></dc:title>
      </cc:Work>
    </rdf:RDF>
  </metadata>
  <g
     id="layer1"
     inkscape:groupmode="layer"
     inkscape:label="Layer 1">
    <path
       id="path855"
       d="m 127.62401,161.42699 c -0.51233,-0.92039 -4.04452,-7.05539 -7.84931,-13.63334 -3.80479,-6.57794 -6.9178,-12.11268 -6.9178,-12.29942 0,-0.29571 6.01799,-10.89225 13.31995,-23.45387 1.26885,-2.18281 2.46679,-3.96875 2.66209,-3.96875 0.1953,0 0.11955,0.27781 -0.16833,0.61736 -0.28787,0.33955 -1.60699,2.52236 -2.93136,4.85069 -1.32438,2.32834 -3.15174,5.50334 -4.06081,7.05556 -6.47436,11.05487 -8.50267,14.74864 -8.33649,15.18168 0.10467,0.27278 3.24236,5.77912 6.97264,12.23631 3.73028,6.45719 7.16376,12.41503 7.62997,13.23965 l 0.84766,1.4993 15.75664,-0.007 15.75665,-0.007 7.844,-13.63169 7.84401,-13.63169 -7.62923,-13.26078 c -4.19607,-7.29342 -7.87528,-13.45921 -8.17601,-13.70174 -0.45315,-0.36545 -0.45973,-0.43936 -0.0384,-0.43154 0.28442,0.005 2.08487,2.76394 4.08679,6.2618 1.96811,3.43881 5.51078,9.60628 7.87259,13.70549 l 4.2942,7.45311 -5.37729,9.30384 c -2.95751,5.1171 -6.52095,11.2882 -7.91877,13.71355 l -2.54148,4.40972 -16.00521,0.0859 -16.00521,0.0859 z M 22.17303,155.25917 c -2.373377,-4.12503 -5.379823,-9.32569 -6.680992,-11.55701 -1.301169,-2.23132 -2.926996,-5.08882 -3.61295,-6.35 l -1.247188,-2.29305 2.899426,-4.93889 c 1.594685,-2.71639 5.165167,-8.86795 7.934405,-13.67014 l 5.034979,-8.73125 h 15.980578 15.98058 l 7.961676,13.75376 7.961676,13.75376 -7.901228,13.67471 -7.901227,13.67472 -16.047251,0.0917 -16.047252,0.0917 z m 43.852616,-6.22853 c 4.220104,-7.34055 7.672916,-13.54836 7.672916,-13.79514 0,-0.24678 -3.452812,-6.45459 -7.672916,-13.79515 l -7.672917,-13.34645 -15.875,-3.5e-4 -15.875,-3.6e-4 -3.045157,5.36918 c -1.674836,2.95305 -5.137018,8.99253 -7.693737,13.42108 -2.556718,4.42855 -4.599523,8.27727 -4.539565,8.55272 0.05996,0.27522 3.522139,6.44837 7.693736,13.71789 l 7.584723,13.2173 15.875,0.003 15.875,0.003 7.672917,-13.34646 z m -24.251709,7.02266 c -0.804658,-1.78442 -1.918751,-2.70792 -3.840179,-3.18325 -2.393841,-0.5922 -3.751446,-1.46537 -4.626339,-2.97555 -1.969587,-3.39975 -2.716196,-9.39775 -1.464363,-11.76419 0.824288,-1.55822 2.51925,-2.53909 4.390386,-2.54072 1.880697,-0.002 3.306336,0.71058 4.410117,2.20318 1.451293,1.96252 1.461993,2.25483 0.0339,0.92653 -1.401303,-1.3034 -2.840166,-1.87999 -3.785848,-1.5171 -0.465149,0.1785 -0.466494,0.37944 -0.01148,1.71482 0.844292,2.47786 2.236027,3.59587 3.233975,2.59792 0.630509,-0.63051 0.545126,1.98437 -0.127907,3.91713 -0.297536,0.85443 -0.461303,1.76114 -0.363922,2.0149 0.163477,0.42603 -3.930571,-1.57228 -5.040689,-2.46036 -0.396305,-0.31703 -0.330138,-0.42875 0.352778,-0.59563 0.694348,-0.16967 0.834707,-0.41877 0.806852,-1.43195 -0.06358,-2.31276 -1.849146,-4.69433 -2.616753,-3.4902 -0.58745,0.92152 -0.386887,4.7158 0.364754,6.90049 0.928077,2.6975 1.961043,3.72173 4.978614,4.93651 2.433384,0.9796 3.820019,2.16604 3.847303,3.29183 0.0076,0.31338 0.224546,0.086 0.482113,-0.50534 0.543549,-1.24787 1.377107,-1.83806 4.177499,-2.95784 3.577578,-1.43055 5.204371,-4.32859 5.204371,-9.27131 0,-1.84857 -0.127452,-2.46539 -0.542308,-2.62459 -0.810577,-0.31104 -1.790425,0.77502 -2.281439,2.52876 -0.517983,1.85004 -0.296721,2.64038 0.739204,2.64038 1.137426,0 0.359611,0.75203 -1.94492,1.88045 -1.060027,0.51905 -2.025167,1.10203 -2.144752,1.29552 -0.370106,0.59885 -0.824568,0.3873 -0.644796,-0.30015 0.09377,-0.35858 -0.07984,-1.25109 -0.385805,-1.98336 -0.305961,-0.73227 -0.556295,-1.96645 -0.556295,-2.74263 0,-1.19369 0.07896,-1.34569 0.512236,-0.9861 1.119999,0.92951 2.596403,-0.46943 3.380391,-3.20305 0.197341,-0.68808 0.139855,-1.01782 -0.200184,-1.14831 -0.847703,-0.32529 -2.733329,0.44344 -3.987133,1.62549 -1.287392,1.21371 -1.223423,0.85658 0.188581,-1.05281 1.103782,-1.4926 2.52942,-2.20481 4.410117,-2.20318 4.099003,0.004 5.870237,3.4599 4.709266,9.18952 -1.033547,5.10076 -2.688583,7.32836 -5.884859,7.92072 -1.981782,0.36729 -3.376214,1.40571 -4.282637,3.18926 l -0.828644,1.6305 z m -0.698602,-20.01254 c -0.577289,-0.69325 -1.564376,-1.47554 -2.19353,-1.73842 -1.687207,-0.70496 -4.311319,-0.60131 -5.664493,0.22374 -1.300444,0.79289 -1.356681,0.72799 -0.613875,-0.70844 0.692893,-1.3399 7.251576,-5.95583 8.500046,-5.98224 0.232689,-0.005 0.576333,1.5194 0.853094,3.78412 0.510269,4.17549 0.75516,3.93242 1.244015,-1.23472 0.133089,-1.4067 0.388397,-2.55764 0.567361,-2.55764 1.323154,0 7.855875,4.58232 8.609002,6.0387 0.685977,1.32653 0.638556,1.59739 -0.154082,0.88007 -0.851556,-0.77065 -2.748922,-1.07211 -4.806111,-0.76362 -1.265121,0.18972 -1.98883,0.59113 -3.257659,1.80688 -0.897163,0.85963 -1.721873,1.55151 -1.832681,1.5375 -0.110811,-0.014 -0.673798,-0.59267 -1.251087,-1.28593 z m -10.944829,-6.414 c -1.875198,-0.81117 -2.583826,-3.05793 -1.49067,-4.72629 0.618241,-0.94356 2.609181,-2.0122 3.748847,-2.0122 0.535219,0 0.740435,-0.22257 0.740435,-0.80307 0,-0.7246 -0.138338,-0.78988 -1.4158,-0.66805 -2.081915,0.19854 -3.170312,-0.62864 -3.170312,-2.40943 0,-1.11494 0.185139,-1.51616 0.922596,-1.99936 0.826328,-0.54142 1.019583,-0.55031 1.852083,-0.0852 1.22143,0.68241 1.442938,2.23211 0.398914,2.79086 -0.804147,0.43036 -1.790079,-0.0458 -1.734631,-0.8377 0.0175,-0.24994 0.09398,-0.23388 0.205788,0.0432 0.09786,0.24254 0.493248,0.44098 0.878629,0.44098 0.524067,0 0.672277,-0.19918 0.587963,-0.79015 -0.209367,-1.46749 -2.405786,-1.04701 -2.405786,0.46056 0,1.29958 3.340063,2.48087 3.674949,1.29973 0.06877,-0.24254 0.315509,-1.13979 0.54832,-1.9939 0.23724,-0.87035 0.824549,-1.87824 1.336204,-2.29305 0.502102,-0.40708 1.425672,-1.25113 2.052377,-1.87566 0.956912,-0.95361 1.206106,-1.05523 1.555438,-0.63431 0.67841,0.81743 0.259326,1.72361 -1.144804,2.47539 -0.72479,0.38805 -1.318229,0.88701 -1.318753,1.10878 -0.0012,0.52039 0.906468,0.86726 1.586547,0.60629 0.934497,-0.3586 0.565523,0.4961 -0.657238,1.52244 -1.454627,1.22096 -2.062623,2.32504 -1.748479,3.17513 0.383329,1.0373 1.615308,1.6388 1.497439,0.73111 -0.236435,-1.82076 0.772163,-3.43959 2.143,-3.43959 0.841671,0 0.982596,1.22932 0.176389,1.53869 -0.733627,0.28152 -0.683604,1.63631 0.06042,1.63631 0.324271,0 0.875062,-0.25835 1.223981,-0.57412 0.910099,-0.82363 3.616078,-0.70438 4.779303,0.21061 0.691405,0.54386 1.030601,0.62414 1.38709,0.32828 0.486167,-0.40348 0.172819,-1.44495 -0.573521,-1.90621 -0.603303,-0.37287 -0.383103,-1.23356 0.315595,-1.23356 1.22828,0 2.296858,1.20979 2.296858,2.60039 0,1.44065 0.658047,1.71806 1.287131,0.54261 0.543761,-1.01603 -0.06094,-2.36724 -1.613976,-3.60643 -1.473214,-1.17551 -1.552875,-1.63242 -0.269063,-1.54326 1.405674,0.0976 1.478029,-0.95112 0.104859,-1.51991 -1.376271,-0.57007 -1.92303,-1.51939 -1.418279,-2.46253 0.352668,-0.65897 0.45073,-0.62002 1.776303,0.70555 0.771662,0.77167 1.557697,1.40303 1.746744,1.40303 0.484533,0 1.507423,2.05966 1.751996,3.52778 0.171521,1.02959 0.369962,1.25363 1.19446,1.34855 1.212624,0.13959 2.707047,-0.78026 2.707047,-1.66627 0,-1.51694 -2.195262,-1.94803 -2.405785,-0.47243 -0.08431,0.59097 0.0639,0.79015 0.587964,0.79015 0.385381,0 0.780764,-0.19844 0.878628,-0.44098 0.112363,-0.27846 0.1882,-0.22737 0.205786,0.13865 0.03647,0.75887 -0.902984,1.10094 -1.761592,0.64143 -0.968693,-0.51843 -0.868116,-1.96347 0.184672,-2.65328 2.394497,-1.56894 4.542455,2.26325 2.191523,3.90991 -0.409057,0.28651 -1.422792,0.52093 -2.252748,0.52093 -1.239481,0 -1.509003,0.11797 -1.509003,0.66047 0,0.49767 0.347557,0.71604 1.410014,0.88594 0.808965,0.12936 1.891697,0.65585 2.54,1.23511 3.13727,2.80315 -0.790487,7.28564 -4.300351,4.90771 -1.891873,-1.28175 -1.908467,-3.37195 -0.03295,-4.14882 1.824567,-0.75576 3.283613,0.28695 2.486261,1.77682 -0.461676,0.86265 -1.752215,0.90898 -1.74481,0.0626 0.0046,-0.51807 0.05822,-0.53384 0.333801,-0.0981 0.280194,0.44306 0.363471,0.42789 0.567345,-0.1034 0.327183,-0.85263 0.0018,-1.07846 -0.876332,-0.60844 -0.92196,0.49342 -0.946027,1.28994 -0.05341,1.76765 1.049069,0.56145 1.965198,0.43736 2.690844,-0.36447 0.600724,-0.6638 0.613012,-0.81398 0.136134,-1.6636 -0.288312,-0.51366 -1.122578,-1.16167 -1.853929,-1.44003 -1.278791,-0.48671 -1.366633,-0.47074 -2.293316,0.41709 -0.556204,0.53287 -1.445363,0.95988 -2.10312,1.01001 -0.626742,0.0477 -1.139533,0.15116 -1.139533,0.2298 0,0.0786 0.47625,0.68539 1.058334,1.34834 0.91671,1.04408 1.395783,2.23916 0.897611,2.23916 -0.0884,0 -0.749692,-0.39968 -1.469545,-0.88819 -0.71985,-0.4885 -2.068128,-1.15787 -2.996174,-1.48748 -1.501009,-0.53311 -1.710739,-0.73775 -1.899168,-1.85306 -0.375271,-2.2212 -0.759644,-2.34711 -1.255766,-0.41133 -0.384404,1.49987 -0.614387,1.82369 -1.421017,2.00085 -0.529311,0.11626 -1.8487,0.74509 -2.931972,1.3974 -1.083272,0.65232 -2.057913,1.04311 -2.165869,0.86843 -0.25304,-0.40942 0.279856,-1.39679 1.206461,-2.23535 0.862748,-0.78077 0.676674,-1.27182 -0.481911,-1.27182 -0.458732,0 -1.282801,-0.37473 -1.831264,-0.83272 -1.078493,-0.9006 -2.192999,-0.9162 -3.516214,-0.0492 -2.291563,1.50149 -0.414803,4.2855 2.013034,2.98616 0.892619,-0.47771 0.868554,-1.27423 -0.05341,-1.76765 -0.878245,-0.47002 -1.203516,-0.24419 -0.876335,0.60844 0.203875,0.53129 0.287151,0.54646 0.567347,0.1034 0.275583,-0.43576 0.329266,-0.41999 0.3338,0.0981 0.0074,0.84635 -1.283133,0.80002 -1.74481,-0.0626 -0.787859,-1.47213 0.864266,-2.63445 2.511104,-1.76663 1.062995,0.56015 1.343717,1.00098 1.350372,2.12055 0.01064,1.78984 -2.874299,3.2929 -4.757098,2.47845 z m 111.185114,28.74757 c -3.81689,-1.27587 -5.4453,-3.29677 -4.64497,-5.76453 0.22031,-0.67931 0.13099,-0.79375 -0.61951,-0.79375 -0.73928,0 -0.91125,-0.20765 -1.09559,-1.32291 -0.77262,-4.67435 0.35048,-7.21191 4.02109,-9.08537 2.44519,-1.248 5.0343,-1.61222 7.78551,-1.09521 5.74449,1.0795 8.45583,4.68435 7.38888,9.82383 -0.35498,1.70995 -0.49702,1.93367 -1.12361,1.76982 -0.66738,-0.17453 -0.70054,-0.0761 -0.47685,1.41553 0.2227,1.48507 0.15213,1.69941 -0.95845,2.91126 -0.87597,0.95584 -1.85931,1.52387 -3.65106,2.10902 -1.34872,0.44046 -2.51899,0.73918 -2.6006,0.66382 -0.40158,-0.37081 1.62486,-1.87524 2.98841,-2.21858 1.43971,-0.36252 2.27525,-1.15569 2.27525,-2.15984 0,-0.45679 -2.8485,-0.32725 -4.05695,0.18449 l -0.70555,0.29878 0.70555,-0.81406 c 0.38806,-0.44774 1.26119,-1.0455 1.94028,-1.32836 3.85219,-1.60453 3.80954,-4.60999 -0.0882,-6.21568 -0.75416,-0.31068 -1.32292,-0.78882 -1.32292,-1.11215 0,-0.51565 0.0712,-0.51728 0.78405,-0.018 0.43123,0.30204 1.41092,0.54917 2.17709,0.54917 0.80304,0 1.66718,0.2481 2.04033,0.5858 0.91583,0.82881 1.17718,0.35255 0.69313,-1.26309 -0.53893,-1.79878 -1.92116,-2.92988 -4.49964,-3.68215 -1.1423,-0.33326 -2.50445,-0.82554 -3.02701,-1.09395 -0.78417,-0.40279 -1.01741,-0.40693 -1.33548,-0.0237 -0.21196,0.25539 -0.97504,0.56867 -1.69573,0.69617 -0.72069,0.1275 -2.12745,0.62403 -3.12612,1.10341 -1.94261,0.93249 -2.94673,2.37702 -2.94673,4.23918 0,0.91998 0.0316,0.94108 0.48346,0.32309 0.31796,-0.43484 1.13311,-0.74175 2.38125,-0.89656 1.04378,-0.12947 2.20164,-0.36552 2.57302,-0.52455 0.50539,-0.21641 0.60486,-0.17527 0.39545,0.16356 -0.15388,0.24898 -0.98142,0.76307 -1.83897,1.1424 -2.03603,0.90063 -2.90847,2.51236 -2.18127,4.02963 0.2676,0.55832 0.96135,1.2205 1.54166,1.47152 2.13455,0.9233 2.75505,1.33293 3.31001,2.18514 l 0.56733,0.87122 -0.87224,-0.60664 c -0.91322,-0.63513 -4.24303,-0.86502 -4.24303,-0.29294 0,0.72162 1.34788,1.81885 2.95755,2.40758 0.94756,0.34656 1.95911,0.9873 2.24789,1.42387 0.28879,0.43656 0.46601,0.78369 0.39384,0.77139 -0.0722,-0.0123 -1.21543,-0.38476 -2.54056,-0.8277 z m -13.22779,-6.66921 c -1.5702,-1.67141 -0.4728,-4.89334 2.35172,-6.90458 1.07669,-0.76667 2.52568,-2.78683 2.52568,-3.52126 0,-0.21964 -0.32329,-0.0761 -0.71842,0.31908 -0.39514,0.39514 -0.8693,0.62518 -1.0537,0.51122 -0.65825,-0.40683 -1.48528,-4.10047 -1.24899,-5.57817 0.33002,-2.06385 0.75613,-2.4677 1.84848,-1.75195 0.55443,0.36327 1.93014,0.63699 3.72317,0.74079 2.59526,0.15024 2.76996,0.20556 1.99873,0.63299 -1.25758,0.69696 -4.17773,0.60974 -5.44426,-0.16262 l -1.07137,-0.65335 0.25951,2.33037 c 0.14273,1.28169 0.26871,2.64786 0.27995,3.03591 0.0178,0.61368 0.10423,0.57849 0.66387,-0.27024 0.62069,-0.94129 0.66427,-0.95278 1.2324,-0.325 0.32393,0.35794 0.58896,1.16586 0.58896,1.79539 0,0.94998 -0.47986,1.64566 -2.82222,4.09152 -3.00081,3.13341 -3.40443,4.12625 -2.14195,5.26879 0.87735,0.79399 2.06879,0.43719 2.35557,-0.7054 0.33241,-1.32447 -0.0838,-2.02463 -1.08928,-1.83242 -0.47678,0.0911 -0.78294,0.0299 -0.68034,-0.1361 0.27544,-0.44567 1.70299,-0.3665 2.191,0.12152 0.59047,0.59047 0.52801,2.09245 -0.12583,3.02595 -0.75339,1.0756 -2.59724,1.05909 -3.62268,-0.0324 z m 29.44226,0.16265 c -0.42418,-0.46871 -0.58713,-1.12083 -0.51113,-2.04559 0.0955,-1.16253 0.24256,-1.37275 1.02369,-1.46355 0.5618,-0.0653 1.09725,0.13794 1.3941,0.52917 0.41188,0.54284 0.41005,0.57108 -0.0126,0.19423 -1.23157,-1.09823 -2.58432,0.14387 -1.78443,1.63847 0.76508,1.42958 2.65427,1.22086 2.85619,-0.31556 0.18509,-1.40839 -0.20372,-2.06496 -2.62375,-4.43066 -2.90279,-2.83762 -3.5591,-4.28299 -2.48414,-5.47081 0.82153,-0.90778 1.0929,-0.86222 1.71706,0.28828 l 0.5263,0.97014 0.0172,-1.41111 c 0.009,-0.77612 0.12108,-2.27644 0.24805,-3.33406 l 0.23085,-1.92294 -0.98705,0.77641 c -1.16373,0.9154 -4.55702,1.09329 -5.64729,0.29607 -0.57904,-0.4234 -0.31873,-0.49993 2.19588,-0.64549 1.83071,-0.10598 3.17499,-0.37626 3.75208,-0.75438 0.8526,-0.55864 0.91823,-0.55381 1.26447,0.0931 0.55168,1.03084 0.4379,4.41328 -0.20229,6.01327 -0.64168,1.60373 -0.7166,1.64257 -1.60961,0.83441 -0.60122,-0.5441 -0.64514,-0.54257 -0.64514,0.0223 0,0.3334 1.17932,1.84421 2.62071,3.35735 3.0389,3.19019 3.61775,4.70402 2.41654,6.31989 -0.9061,1.21889 -2.85351,1.45792 -3.75572,0.46098 z M 125.61654,141.0357 c -2.71474,-4.0985 -1.50593,-10.06365 2.86851,-14.15543 l 1.77642,-1.66163 1.19273,2.62279 c 1.44792,3.18394 2.21975,4.0644 4.50964,5.14426 1.48869,0.70203 1.61612,0.83234 0.81672,0.83525 -3.06442,0.0111 -6.25499,-3.34924 -6.27703,-6.61114 -0.004,-0.63059 -0.13622,-1.14653 -0.29324,-1.14653 -0.4004,0 -3.48434,5.25769 -4.16999,7.10925 -0.83466,2.25396 -0.76515,5.41009 0.16513,7.49736 0.42412,0.95161 0.70938,1.79197 0.6339,1.86745 -0.0755,0.0755 -0.62574,-0.60025 -1.22279,-1.50163 z m 37.13929,-0.17509 c 1.66385,-3.57444 1.0951,-6.90777 -2.09013,-12.24967 l -1.74134,-2.9204 -0.43455,2.13032 c -0.70326,3.44769 -2.7203,5.5919 -5.52096,5.86905 l -1.48279,0.14674 1.41111,-0.67152 c 1.99751,-0.95059 3.49939,-2.66917 4.75614,-5.44243 l 1.08648,-2.39752 1.01963,0.72605 c 1.57983,1.12494 2.85257,2.79975 4.03045,5.30371 1.84006,3.91167 1.34404,8.46722 -1.16944,10.74039 -0.72199,0.65295 -0.71542,0.59309 0.1354,-1.23472 z m -18.60827,-1.86618 c -0.1082,-0.28197 -1.0413,-0.96527 -2.07356,-1.51844 -1.83813,-0.98504 -1.88161,-1.04492 -2.10861,-2.90496 -0.12749,-1.04455 -0.42087,-2.01605 -0.65197,-2.15888 -0.67346,-0.41621 0.90154,-1.63907 2.69161,-2.08981 1.38358,-0.34839 2.29145,-1.1593 1.8227,-1.62804 -0.0884,-0.0884 -0.91562,-0.30179 -1.83822,-0.47415 -3.01513,-0.56329 -2.96766,-1.45222 0.19217,-3.59802 1.13984,-0.77405 2.07244,-1.57665 2.07244,-1.78354 0,-0.2069 0.53468,0.0768 1.18818,0.6305 0.65349,0.55368 1.76474,1.45001 2.46944,1.99186 1.71606,1.3195 1.70059,2.26615 -0.0417,2.54908 -0.7276,0.11816 -1.69626,0.36743 -2.15256,0.55394 -1.14172,0.46667 -0.51015,1.17108 1.71159,1.90903 1.8345,0.60932 2.99613,1.58434 2.20486,1.85065 -0.26213,0.0882 -0.44097,0.76861 -0.44097,1.67767 0,2.14324 -0.24053,2.57537 -1.89559,3.40568 -0.80069,0.40169 -1.7927,1.03854 -2.20446,1.41522 -0.61874,0.56603 -0.78281,0.59591 -0.9454,0.17221 z m -66.127643,-5.96379 c -0.193132,-0.24254 -3.798901,-6.43798 -8.012818,-13.76765 l -7.661663,-13.32669 2.682445,-4.66498 c 1.475348,-2.565749 5.0237,-8.713119 7.885229,-13.660819 l 5.20278,-8.99584 16.047586,-0.0904 16.047584,-0.0904 7.76111,13.44617 c 4.26862,7.39539 7.80837,13.645819 7.86612,13.889849 0.0927,0.3915 -2.17442,4.42795 -12.92839,23.01854 l -2.69884,4.66553 -15.919998,0.009 c -12.322122,0.007 -15.999354,-0.0909 -16.271145,-0.43219 z m 36.699063,-8.11389 c 2.61434,-4.51115 6.13222,-10.61186 7.81753,-13.55713 l 3.06417,-5.35504 -0.60082,-1.16187 c -0.33046,-0.63903 -1.89932,-3.38864 -3.48638,-6.110239 -1.58704,-2.7216 -4.83448,-8.3218 -7.21653,-12.44489 l -4.33099,-7.49653 H 94.189155 78.412354 l -7.833892,13.57374 -7.833897,13.573749 7.828961,13.59014 7.828961,13.59015 h 15.78157 15.781573 z m -21.007306,2.64583 c -0.09763,-0.33955 -0.291878,-0.89517 -0.431666,-1.23472 -0.211035,-0.51263 -0.0618,-0.61736 0.879665,-0.61736 0.941466,0 1.090701,0.10473 0.879666,0.61736 -0.139788,0.33955 -0.334038,0.89517 -0.431666,1.23472 -0.09763,0.33955 -0.29923,0.61736 -0.448,0.61736 -0.148769,0 -0.350368,-0.27781 -0.447999,-0.61736 z m -1.544373,-2.90806 c -1.581457,-0.63808 -1.012373,-0.8843 2.043832,-0.8843 3.06391,0 3.13612,0.0186 2.39667,0.61736 -0.814969,0.65993 -3.122679,0.79865 -4.440502,0.26694 z m 0.75765,-1.65075 c -1.926576,-0.21912 -3.628277,-0.82 -3.832976,-1.35344 -0.111005,-0.28927 -0.167118,-0.52423 -0.124704,-0.52213 0.04242,0.002 0.856418,0.24023 1.808886,0.52917 0.952468,0.28894 2.47505,0.52535 3.383516,0.52535 0.908467,0 2.43105,-0.23641 3.38352,-0.52535 0.95247,-0.28894 1.76647,-0.52706 1.80889,-0.52917 0.0424,-0.002 -0.0113,0.22663 -0.11939,0.50829 -0.33186,0.8648 -3.908754,1.64014 -6.307742,1.36728 z m -2.469444,-2.30738 c -1.600892,-0.56315 -1.940278,-0.95865 -1.940278,-2.26103 0,-0.65534 0.08447,-1.19153 0.18772,-1.19153 0.607808,0 2.824784,1.178 4.010971,2.13124 l 1.383605,1.1119 2.059545,-1.41842 c 1.132753,-0.78013 2.416743,-1.52053 2.853303,-1.64534 0.72804,-0.20814 0.79375,-0.11089 0.79375,1.1748 0,1.35388 -0.0563,1.42091 -1.65034,1.96405 -1.85938,0.63355 -6.070253,0.70703 -7.698276,0.13433 z m 2.327465,-2.53511 c -0.735697,-0.75905 -1.829364,-1.38937 -2.979621,-1.71727 l -1.817289,-0.51804 1.003657,-0.4713 c 0.849845,-0.39907 1.322899,-0.38813 3.086805,0.0714 1.874824,0.48845 2.291475,0.48845 4.166299,0 1.73058,-0.45087 2.25126,-0.46614 3.0764,-0.0902 l 0.993237,0.45256 -1.865437,0.63151 c -1.026,0.34733 -2.378247,1.12854 -3.004999,1.73601 -0.626752,0.60748 -1.219916,1.1045 -1.318136,1.1045 -0.09822,0 -0.701633,-0.53965 -1.340916,-1.19922 z m -5.678854,-3.52995 c 0,-0.86193 1.048702,-1.62083 2.239758,-1.62083 1.596612,0 2.544462,-0.79588 3.255366,-2.73344 1.186254,-3.2331 2.097627,-3.25096 3.156885,-0.0618 0.643156,1.93635 1.593046,2.79527 3.091346,2.79527 1.383087,0 2.367757,0.59537 2.367757,1.43165 0,0.64078 -0.0685,0.65798 -0.79375,0.19937 -1.137067,-0.719 -11.386546,-0.719 -12.523612,0 -0.68912,0.43575 -0.79375,0.4344 -0.79375,-0.0102 z M 84.458285,111.744 c -1.164167,-0.29348 -2.461162,-0.47052 -2.882213,-0.39342 -0.646377,0.11836 -0.824854,-0.0953 -1.146527,-1.37284 -1.524184,-6.05308 0.917871,-10.453309 8.656884,-15.598459 1.769368,-1.17634 3.304773,-2.36745 3.412014,-2.64691 0.220895,-0.57564 -0.366914,-1.29965 -1.055158,-1.29965 -0.252237,0 -0.458612,-0.15875 -0.458612,-0.35278 0,-0.4942 1.534259,-0.4413 2.046112,0.0706 0.542364,0.54236 0.526439,2.06548 -0.02886,2.75999 -0.236364,0.29562 -1.461629,1.26796 -2.722809,2.16076 -6.629566,4.6931 -8.600624,9.359419 -5.379611,12.735769 0.994834,1.04282 2.77464,1.31734 3.545166,0.54681 0.608263,-0.60826 0.521424,-1.04211 -0.194027,-0.96933 -1.495087,0.15208 -1.909699,-0.0702 -2.4231,-1.29892 -1.000958,-2.39563 0.764998,-4.2809 3.517162,-3.75479 1.163592,0.22243 2.687366,1.72842 2.734042,2.70212 0.08988,1.87508 -0.156153,3.30283 -0.779815,4.52531 -1.25022,2.45063 -3.252375,3.09038 -6.84065,2.18578 z m 15.698615,0.34054 c -1.560247,-0.54243 -2.193997,-1.11977 -2.996097,-2.72935 -1.628016,-3.26701 -0.90166,-6.14771 1.73358,-6.87534 2.333557,-0.64432 4.084737,0.39177 4.084737,2.41676 0,1.47196 -0.92984,2.46944 -2.30199,2.46944 -0.928027,0 -1.156877,0.12187 -0.999407,0.53221 0.11232,0.29272 0.583587,0.62743 1.047247,0.7438 3.21634,0.80725 5.43403,-3.44304 3.6834,-7.05937 -0.92011,-1.900689 -3.90387,-4.970099 -6.931827,-7.130809 -2.287224,-1.63212 -2.925762,-2.77244 -2.254663,-4.0264 0.38348,-0.71654 2.112793,-0.99936 2.112793,-0.34554 0,0.19403 -0.24311,0.35278 -0.54024,0.35278 -0.760557,0 -1.039869,0.9588 -0.47691,1.63712 0.26009,0.31339 1.90093,1.53001 3.6463,2.7036 3.748207,2.52029 6.175187,4.85055 7.277407,6.987429 0.95338,1.84832 1.34669,6.57396 0.70815,8.50873 -0.34016,1.03069 -0.54096,1.20197 -1.25023,1.06638 -0.46474,-0.0888 -1.3728,0.0126 -2.01792,0.22547 -1.48807,0.49096 -3.83594,0.76242 -4.52433,0.52309 z m -7.421951,-9.33128 c -0.850929,-1.66796 -2.634816,-2.61448 -4.256264,-2.25835 -0.699283,0.15359 -1.021789,0.0861 -1.021789,-0.21381 0,-0.527219 6.155118,-6.673379 6.683107,-6.673379 0.472408,0 5.47413,4.73955 6.454117,6.11581 l 0.74109,1.040779 -1.27612,-0.23941 c -1.903057,-0.35701 -3.582377,0.47927 -4.474692,2.22836 -0.481129,0.94309 -0.971335,1.43779 -1.424725,1.43779 -0.45339,0 -0.943595,-0.4947 -1.424724,-1.43779 z M 91.292081,88.025501 c -0.994238,-0.88835 -1.088574,-1.13609 -0.872067,-2.29016 0.290029,-1.54598 0.253266,-1.86058 -0.202396,-1.73208 -0.189046,0.0533 -0.237998,-0.0741 -0.108782,-0.2832 0.471833,-0.76344 1.052226,-0.0675 1.052226,1.26174 0,1.10118 0.170008,1.44995 0.881945,1.80931 0.825715,0.41678 0.89917,0.37948 1.152116,-0.58508 0.14859,-0.56663 0.433359,-1.1311 0.632812,-1.25437 0.558977,-0.34547 1.390072,0.5318 1.390072,1.46731 0,0.98654 0.262047,1.03943 1.355426,0.2736 0.53479,-0.37458 0.78657,-0.88015 0.74667,-1.49931 -0.0331,-0.51378 -0.0434,-1.13259 -0.0228,-1.37513 0.0452,-0.53331 1.09571,-0.5979 1.09571,-0.0674 0,0.20548 -0.1761,0.26477 -0.39133,0.13175 -0.27629,-0.17076 -0.31976,0.18171 -0.14789,1.19902 0.30911,1.82962 0.0383,2.66651 -1.10528,3.41582 -0.777027,0.50913 -1.038326,0.52929 -1.771906,0.13669 -0.6766,-0.36211 -1.005561,-0.3699 -1.539466,-0.0365 -0.900278,0.56223 -0.865039,0.57163 -2.145055,-0.57206 z m 44.671759,43.270529 c -1.1626,-0.643 -2.32683,-1.802 -3.22647,-3.21195 -1.13171,-1.77365 -2.01357,-5.30209 -1.7184,-6.8755 l 0.23298,-1.2419 -1.49349,1.18287 c -3.44972,2.73223 -5.17024,5.15585 -5.52203,7.77865 -0.23612,1.76039 -0.7972,1.40332 -0.79275,-0.5045 0.008,-3.22641 3.03087,-7.24422 7.07194,-9.39809 2.51274,-1.33927 2.89514,-1.36611 2.44088,-0.17131 -1.30204,3.42463 0.67815,9.95265 3.66203,12.07247 1.12139,0.79667 0.62465,1.07684 -0.65469,0.36926 z m 16.85177,-0.62236 c 2.6103,-2.29186 4.38592,-7.84676 3.53148,-11.04794 -0.21929,-0.82156 -0.34133,-1.55113 -0.27121,-1.62125 0.0701,-0.0701 0.9711,0.26588 2.00218,0.74668 3.84149,1.79135 6.87758,5.33005 7.31058,8.52082 0.37332,2.75104 -0.0857,3.5729 -0.63199,1.13165 -0.5024,-2.24497 -2.13556,-4.55207 -4.71585,-6.66188 -0.88986,-0.72761 -1.68894,-1.32292 -1.77573,-1.32292 -0.0868,0 -0.23467,1.07412 -0.3286,2.38693 -0.25755,3.59967 -1.82381,6.49159 -4.50043,8.30954 -1.44312,0.98015 -1.88308,0.66699 -0.62043,-0.44163 z m -1.85607,-1.51733 c 1.38993,-1.98303 1.90399,-4.77731 1.42357,-7.73795 -0.60965,-3.75707 -0.47128,-7.35204 0.33381,-8.67248 0.67642,-1.1094 1.41498,-1.52131 1.41498,-0.78916 0,0.19655 0.75406,0.6897 1.67569,1.09589 3.8681,1.70479 4.78168,2.26997 5.58845,3.45724 0.46736,0.68778 0.84915,1.65022 0.84843,2.13876 -0.001,0.87359 -0.0125,0.87001 -0.67552,-0.21742 -0.82509,-1.35311 -2.38845,-2.52984 -5.03741,-3.79161 -1.17961,-0.56188 -2.10503,-1.25662 -2.23991,-1.68157 -0.15501,-0.48842 -0.34602,-0.60793 -0.58679,-0.36716 -0.42033,0.42034 -0.40201,4.05701 0.04,7.93677 0.48566,4.26291 -0.69735,8.07475 -2.96769,9.56233 -0.84143,0.55133 -0.83486,0.5177 0.18239,-0.93364 z m -13.71503,-0.096 c -0.59702,-0.67996 -1.34871,-2.14173 -1.67042,-3.24839 -0.52155,-1.79407 -0.53641,-2.5148 -0.13715,-6.65126 0.24627,-2.55153 0.33444,-5.24328 0.19592,-5.98165 -0.24718,-1.31757 -0.25962,-1.32668 -0.67004,-0.49092 -0.23576,0.48007 -1.44502,1.39226 -2.77192,2.09095 -2.60608,1.37224 -3.92805,2.46201 -4.91573,4.05229 -0.61453,0.98947 -0.65739,1.00554 -0.65862,0.24706 -0.004,-2.12087 2.05366,-4.2105 5.31597,-5.4 1.16943,-0.4264 2.3342,-1.07216 2.58837,-1.43504 1.27667,-1.82271 2.89733,1.51611 2.55508,5.2639 -0.11966,1.31033 -0.31745,3.49366 -0.43954,4.85186 -0.25513,2.83818 0.16394,4.78283 1.43401,6.65438 1.10944,1.63485 0.59403,1.66407 -0.82593,0.0468 z M 26.3099,103.57369 c -0.08694,-0.14552 -3.666555,-6.342639 -7.954693,-13.771379 l -7.796613,-13.50679 0.84118,-1.30987 c 0.46265,-0.72043 3.29903,-5.59613 6.303067,-10.834878 3.004037,-5.23875 6.229021,-10.834688 7.166631,-12.435417 l 1.704746,-2.910417 h 15.939028 15.93903 l 5.737362,9.965973 c 3.155552,5.481285 6.742102,11.681349 7.970115,13.777919 l 2.232751,3.81195 -4.108446,7.12416 c -8.986834,15.58343 -11.484233,19.838929 -11.84111,20.176949 -0.465539,0.44093 0.230159,-0.79627 8.530089,-15.169449 3.697425,-6.40292 6.715238,-11.87979 6.706249,-12.17083 -0.009,-0.29105 -3.463194,-6.4823 -7.67601,-13.758338 L 58.343613,49.334106 H 42.492623 26.641631 l -7.553549,13.052778 c -4.154451,7.179027 -7.634243,13.329487 -7.732869,13.667677 -0.111804,0.38338 2.451141,5.16513 6.807018,12.7 8.660025,14.980279 8.718255,15.083709 8.491478,15.083709 -0.102151,0 -0.256865,-0.11906 -0.343809,-0.26458 z m 94.34913,-13.333199 c -4.31627,-7.47878 -7.79781,-13.81096 -7.73676,-14.07151 0.0611,-0.26056 3.60352,-6.52442 7.87213,-13.919695 l 7.76111,-13.445959 16.00311,0.089 16.00311,0.089 3.17809,5.468056 c 4.33717,7.462334 7.86519,13.555524 10.4781,18.096598 l 2.19174,3.80909 -7.82482,13.56746 c -4.30365,7.4621 -8.00645,13.679369 -8.22846,13.816149 -0.22201,0.13678 -0.15222,-0.14204 0.15507,-0.61961 0.3073,-0.47756 1.19692,-1.97955 1.97693,-3.337739 0.78002,-1.35819 4.14695,-7.18244 7.48207,-12.94277 l 6.06386,-10.47332 -2.95043,-5.0489 c -1.62273,-2.7769 -5.16171,-8.897758 -7.86439,-13.601914 l -4.91398,-8.553012 -15.76026,-0.0019 -15.76025,-0.0018 -2.89803,5.027083 c -1.59392,2.764896 -4.93851,8.549384 -7.43244,12.854417 -2.49392,4.305036 -4.70985,8.212406 -4.9243,8.683056 -0.34797,0.76373 -0.0385,1.45822 2.87906,6.46017 1.79792,3.08244 5.08997,8.77944 7.31568,12.66 2.22571,3.88056 4.35297,7.492119 4.72724,8.025699 0.37428,0.53357 0.53968,0.97013 0.36755,0.97013 -0.17213,0 -3.84446,-6.118999 -8.16073,-13.597779 z m 16.71592,9.21705 c -0.9899,-0.79454 -1.05833,-1.00542 -1.05833,-3.26145 0,-2.32023 -0.0335,-2.41446 -0.88195,-2.47712 -0.50938,-0.0376 -0.62115,0.0105 -0.26458,0.11406 0.85444,0.24801 0.77588,1.44072 -0.11347,1.72299 -1.10415,0.35044 -2.09139,-0.73578 -2.09139,-2.30108 0,-2.70466 2.99331,-3.44029 4.30643,-1.05833 0.56999,1.03395 0.64516,1.65624 0.46232,3.82703 -0.17172,2.03882 -0.0998,2.77322 0.33681,3.43959 0.69003,1.053119 0.62264,1.052569 -0.69584,-0.006 z m 13.22917,0.636739 c 0,-0.191529 0.19099,-0.539219 0.42442,-0.772639 0.26778,-0.26778 0.43053,-1.64706 0.44097,-3.73717 0.0187,-3.73776 0.53846,-4.79897 2.35054,-4.79897 1.09457,0 2.42851,1.18657 2.42851,2.16022 0,2.04934 -1.77915,3.49442 -2.7193,2.20869 -0.41353,-0.56554 -0.3957,-0.71809 0.12875,-1.10157 0.52078,-0.3808 0.52878,-0.44512 0.0553,-0.44512 -1.04933,0 -1.44904,0.9099 -0.9989,2.27386 0.2256,0.68356 0.31749,1.53488 0.20419,1.89182 -0.24006,0.75637 -2.31452,2.836519 -2.31452,2.320879 z M 41.466382,97.409291 c -1.018879,-2.79359 -2.215688,-4.3153 -3.120782,-3.96798 -0.628026,0.241 -0.971039,-0.72921 -0.978332,-2.7672 -0.0054,-1.51193 -0.573093,-2.83732 -1.08085,-2.52351 -0.184293,0.1139 -0.335078,-0.026 -0.335078,-0.31084 0,-0.28487 1.217083,-1.62149 2.70463,-2.97027 2.256963,-2.04642 2.704628,-2.63253 2.704628,-3.54103 0,-0.59879 -0.196857,-1.3259 -0.437462,-1.61582 -0.3732,-0.44967 -0.871114,-0.0935 -3.389347,2.42477 -2.369161,2.36916 -2.996516,3.21814 -3.177999,4.30068 -0.353466,2.10841 -0.396721,2.14225 -0.822205,0.64324 -0.508378,-1.79106 -0.512,-3.19685 -0.01065,-4.13363 0.332462,-0.62121 0.30498,-0.70177 -0.176389,-0.51705 -0.892155,0.34236 -0.671886,-0.30865 0.50143,-1.48196 0.631652,-0.63165 1.899011,-1.32158 3.086806,-1.68041 2.466784,-0.7452 2.677925,-0.91169 2.373322,-1.8714 -0.164003,-0.51673 -0.372624,-0.65537 -0.652404,-0.43357 -0.226218,0.17934 -1.840055,0.84392 -3.586305,1.47683 -5.532287,2.00515 -7.637721,3.4746 -8.119178,5.66666 -0.131032,0.59658 -0.316378,1.00656 -0.411878,0.91106 -0.0955,-0.0955 0.01689,-1.09143 0.24977,-2.21318 0.364692,-1.75671 0.67025,-2.26768 2.203432,-3.6847 1.224324,-1.13157 1.711662,-1.82332 1.561044,-2.21582 -0.136029,-0.35449 -0.457902,-0.49538 -0.849697,-0.37193 -0.377587,0.11898 -0.205968,-0.16772 0.427618,-0.71435 1.866365,-1.61023 5.028343,-2.05271 7.747607,-1.08418 0.768684,0.27378 1.421868,0.46525 1.45152,0.42548 0.02965,-0.0398 0.230352,-0.41192 0.446001,-0.82702 0.360511,-0.69393 0.257807,-0.80265 -1.27513,-1.34976 -4.382766,-1.56422 -5.293725,-1.73463 -6.823176,-1.2764 -1.677266,0.50252 -4.770537,3.21554 -5.463628,4.792 -0.41449,0.94276 -0.466807,0.97042 -0.479107,0.25325 -0.03299,-1.92355 1.12827,-3.52554 4.748691,-6.55095 l 1.058334,-0.88439 -0.881945,-0.33791 c -0.860408,-0.32965 -0.850313,-0.34402 0.413394,-0.588182 2.466821,-0.476621 5.333205,0.643542 7.659629,2.993332 0.768156,0.77587 1.560654,1.41068 1.761106,1.41068 0.517606,0 0.917561,-2.47646 0.50546,-3.12977 -0.189128,-0.29984 -1.202736,-0.76275 -2.252463,-1.0287 -1.049726,-0.265958 -2.108137,-0.649164 -2.352026,-0.851573 -0.82774,-0.686964 -0.468511,-2.248414 0.983899,-4.27668 l 1.427331,-1.993246 -1.24591,-1.24591 c -1.615244,-1.615244 -1.897112,-2.758826 -1.062143,-4.309269 0.567097,-1.053036 2.908841,-3.273188 3.452454,-3.273188 0.106348,0 -0.192398,0.674687 -0.663879,1.499305 -1.002103,1.752667 -1.084098,2.576771 -0.300034,3.015554 0.488221,0.273223 0.5003,0.423527 0.08819,1.097349 -0.420521,0.687579 -0.395783,0.841355 0.207276,1.288444 0.376632,0.279225 0.894905,0.507681 1.151713,0.507681 0.573169,0 1.855382,-2.03302 1.891203,-2.998611 0.01605,-0.432553 0.221015,-0.173896 0.529717,0.668483 0.862418,2.353326 1.516094,2.782036 2.804943,1.839607 0.568449,-0.415659 0.608874,-0.626491 0.264891,-1.381455 -0.334769,-0.734737 -0.309319,-0.92801 0.145164,-1.102412 0.712322,-0.273343 0.405723,-1.972679 -0.614394,-3.405301 -0.969014,-1.360855 -0.558077,-1.299189 1.257744,0.188742 2.698013,2.210818 2.904974,4.314093 0.635152,6.454813 l -1.255032,1.183646 1.045489,1.304716 c 1.451102,1.810897 1.865567,2.677162 1.865567,3.899174 0,0.996831 -0.137213,1.097438 -2.557639,1.875281 -2.368106,0.76102 -2.565326,0.90036 -2.661373,1.88026 -0.05705,0.58209 0.131483,1.37584 0.41898,1.76389 0.508254,0.68604 0.569676,0.66025 2.220401,-0.9322 0.933728,-0.90076 2.210886,-1.89561 2.838136,-2.21078 1.517187,-0.76231 3.941505,-1.057338 5.033161,-0.61251 0.584828,0.23831 0.680978,0.36691 0.285405,0.38174 -1.255025,0.047 -0.927972,0.73515 1.085987,2.28486 2.154545,1.65788 3.580201,3.87309 3.55369,5.5218 -0.01309,0.81407 -0.03802,0.80369 -0.479108,-0.19957 -0.686608,-1.56171 -3.786547,-4.28953 -5.436436,-4.78385 -1.550998,-0.46469 -2.297056,-0.33518 -6.317389,1.09665 -2.038643,0.72606 -2.165315,0.83337 -1.8043,1.52848 0.213554,0.41118 0.412538,0.78014 0.442193,0.8199 0.02967,0.0398 0.682837,-0.1517 1.451518,-0.42548 2.79182,-0.99437 6.110097,-0.48836 8.026548,1.22399 l 1.123277,1.00365 -0.965691,-0.1846 c -1.498519,-0.28646 -1.219359,0.70882 0.633138,2.25732 1.199405,1.00258 1.728198,1.77208 2.116666,3.0802 0.607889,2.04698 0.665187,3.89039 0.06222,2.00159 -0.556958,-1.74468 -2.304083,-3.30943 -4.87566,-4.36671 -6.889084,-2.8324 -7.721498,-3.03162 -7.721498,-1.84798 0,0.27659 0.966301,0.80115 2.282931,1.2393 2.591004,0.86223 5.023107,2.77595 3.991793,3.14098 -0.437956,0.15502 -0.512318,0.35968 -0.269984,0.74303 0.484893,0.76706 0.39117,3.18154 -0.171168,4.40964 l -0.4846,1.05833 -0.02865,-0.94717 c -0.0531,-1.75547 -0.743398,-2.84621 -3.560018,-5.62524 l -2.804993,-2.76754 -0.546692,1.05719 c -0.729844,1.41136 -0.379423,2.04074 2.777994,4.98948 2.352435,2.19695 2.474715,2.38346 1.864385,2.84367 -0.428413,0.32304 -0.708678,1.0921 -0.814479,2.23495 -0.274257,2.96258 -0.427436,3.39183 -1.130745,3.16861 -1.018794,-0.32336 -1.906735,1.02317 -3.806617,5.77258 -0.308373,0.77089 -0.42848,0.60486 -1.309112,-1.80968 z m 102.602728,-0.31305 c -0.56204,-2.55896 -1.53344,-4.16261 -3.28275,-5.41936 -2.72584,-1.95832 -3.61288,-4.74824 -4.13949,-13.01961 l -0.24436,-3.83795 -1.1815,1.89767 c -1.18133,1.89738 -1.46147,3.22752 -0.87487,4.15394 0.17147,0.27081 0.56592,0.39485 0.87654,0.27565 0.77074,-0.29576 0.70882,0.18842 -0.16639,1.30106 -0.9996,1.27079 -2.83313,1.27785 -4.09522,0.0158 l -0.91375,-0.91375 0.84159,-0.41868 c 0.66684,-0.33174 1.0042,-1.03938 1.62466,-3.40778 0.79123,-3.02031 1.11328,-3.48708 3.18873,-4.62168 0.86266,-0.47159 1.0963,-0.88004 1.30696,-2.28477 0.38484,-2.566362 1.41002,-4.267459 3.29257,-5.463457 0.91258,-0.579768 2.01642,-1.144409 2.45298,-1.254759 1.64658,-0.4162 0.6156,-1.276858 -2.01097,-1.678753 -1.77104,-0.270995 -2.48694,-0.728817 -2.48694,-1.590425 0,-0.398483 -0.50385,-0.723951 -1.55664,-1.005529 -1.8829,-0.503599 -3.21875,-2.102839 -2.8809,-3.448933 0.17028,-0.678438 0.44653,-0.867177 1.26926,-0.867177 0.75456,0 1.05161,0.169401 1.05161,0.599722 0,0.465694 0.0944,0.505329 0.42237,0.177349 0.59423,-0.594228 -0.7401,-2.330581 -1.89856,-2.470601 -1.07039,-0.129374 -1.66954,0.534248 -1.92968,2.137319 -0.17387,1.071441 -0.005,1.428484 1.45569,3.072844 2.31038,2.601359 2.02176,3.611309 -1.74534,6.107474 -0.94261,0.624589 -1.87969,1.405051 -2.08241,1.734361 -0.48098,0.781328 0.0643,2.333175 1.04816,2.982985 0.65056,0.42968 0.84968,0.4 1.6757,-0.24974 1.1514,-0.9057 1.25531,-2.301601 0.19634,-2.637706 -0.91853,-0.29153 -1.46125,0.19091 -1.00814,0.896165 0.29946,0.46609 0.38057,0.465753 0.70984,-0.003 0.30824,-0.438772 0.35274,-0.409332 0.26053,0.172338 -0.15358,0.968743 -1.20581,1.086293 -1.68635,0.188398 -0.84936,-1.587049 0.4489,-2.82415 2.24654,-2.140692 2.00002,0.760409 1.9721,3.373917 -0.0531,4.966917 -1.00033,0.78685 -1.78593,0.8661 -3.01854,0.30449 -0.97405,-0.4438 -2.35419,-2.6842 -2.35419,-3.821571 0,-1.33647 1.01529,-2.789898 2.59597,-3.71624 0.84354,-0.494347 1.81669,-1.211505 2.16256,-1.593685 0.60888,-0.672809 0.58876,-0.739243 -0.6338,-2.092468 -1.45867,-1.614575 -1.89972,-3.334295 -1.31192,-5.115351 1.21101,-3.669403 6.01161,-3.401916 6.13653,0.341924 0.0428,1.283676 -0.0329,1.402534 -0.96119,1.508704 -0.61152,0.06994 -0.92131,-0.02449 -0.78799,-0.240207 0.12082,-0.195501 0.0693,-0.44839 -0.11447,-0.561976 -0.4913,-0.303638 -0.81525,0.409671 -0.55642,1.225173 0.20765,0.654252 2.50076,2.107594 3.32539,2.107594 0.19678,0 0.63512,-0.515938 0.9741,-1.146528 0.55718,-1.0365 0.6278,-1.072813 0.7358,-0.378397 0.21703,1.395468 0.95534,1.645996 2.05733,0.698108 0.90995,-0.782712 0.95609,-0.935226 0.55152,-1.823152 -0.24282,-0.532942 -0.39586,-1.007656 -0.34009,-1.054921 0.0558,-0.04727 0.61734,-0.348327 1.24793,-0.669027 1.04414,-0.531018 1.24127,-0.5341 2.20737,-0.03451 0.97617,0.504793 1.0434,0.65768 0.84231,1.915235 -0.19451,1.216387 -0.1125,1.436123 0.74581,1.998515 0.93105,0.610048 0.98115,0.608897 1.45075,-0.03332 0.26752,-0.365854 0.48719,-0.833285 0.48815,-1.038735 0.001,-0.20545 0.35961,0.07362 0.79698,0.620166 0.72576,0.906912 0.88738,0.958785 1.85033,0.593862 1.23542,-0.468188 2.6426,-1.70192 2.6426,-2.316882 0,-0.236462 -0.23812,-0.521307 -0.52916,-0.63299 -0.32903,-0.126261 -0.52917,0.0022 -0.52917,0.339571 0,0.360944 -0.26577,0.504885 -0.79375,0.4299 -1.54916,-0.220016 -1.05061,-3.345505 0.65781,-4.123913 1.14937,-0.52369 1.73332,-0.502765 2.907,0.10417 1.22515,0.633549 1.81505,1.911306 1.81505,3.931494 0,1.351582 -0.20307,1.799089 -1.41111,3.109658 -0.77611,0.841981 -1.41111,1.626269 -1.41111,1.742862 0,0.116592 0.91281,0.833599 2.02847,1.593349 2.85962,1.94736 3.43292,2.676993 3.38998,4.314404 -0.0429,1.638104 -1.48748,3.740884 -2.79533,4.069134 -2.50199,0.62796 -4.91377,-2.49712 -3.69076,-4.782334 0.43975,-0.821668 1.93796,-1.201169 2.83877,-0.719069 1.11001,0.594059 0.82588,2.818353 -0.36002,2.818353 -0.70392,0 -1.21436,-0.920266 -0.69015,-1.244249 0.18556,-0.114679 0.33737,-0.04039 0.33737,0.165091 0,0.205478 0.15875,0.373598 0.35278,0.373598 0.19403,0 0.35278,-0.3175 0.35278,-0.705556 0,-0.840086 -1.11119,-0.962847 -1.74984,-0.193318 -0.56951,0.686216 -0.15673,1.847454 0.90369,2.542264 0.8039,0.52674 0.91568,0.51993 1.60123,-0.0976 1.01787,-0.91685 1.44019,-2.150862 1.01072,-2.953332 -0.19303,-0.360681 -1.30514,-1.235415 -2.47136,-1.943854 -1.16621,-0.70844 -2.2783,-1.583132 -2.4713,-1.943761 -0.72296,-1.350866 -0.40106,-2.52805 1.06019,-3.877073 1.19384,-1.102141 1.41111,-1.519933 1.41111,-2.713356 0,-1.563449 -0.80149,-2.578311 -2.03624,-2.578311 -0.84639,0 -1.84431,1.224244 -1.84431,2.262589 0,0.657928 0.0243,0.661318 0.46074,0.06439 0.28321,-0.387318 0.79294,-0.583206 1.32291,-0.508399 0.67448,0.0952 0.88548,0.361031 0.96921,1.221021 0.0851,0.87398 -0.12387,1.29361 -1.0194,2.047143 -0.61953,0.521301 -1.56763,1.036062 -2.10688,1.143913 -0.64692,0.129382 -1.05142,0.478772 -1.18902,1.027021 -0.15605,0.621773 -0.58505,0.923159 -1.70431,1.197345 -3.72512,0.912549 -4.2629,1.447923 -2.15366,2.144034 1.94255,0.641101 4.55321,3.395787 4.8511,5.11874 0.53544,3.09687 0.60816,3.2627 1.61329,3.67904 1.65978,0.6875 2.50329,1.90192 3.0814,4.43638 0.35798,1.56939 0.84952,2.6932 1.4333,3.27698 l 0.88848,0.88849 -0.9502,0.81732 c -1.16925,1.00575 -2.79055,1.05429 -3.73307,0.11177 -0.84966,-0.84966 -0.9212,-1.70408 -0.13702,-1.6365 0.79437,0.0685 1.3424,-0.91493 1.0727,-1.92487 -0.12461,-0.46659 -0.74246,-1.6421 -1.37301,-2.61224 l -1.14645,-1.76389 -0.22348,4.40972 c -0.38772,7.65066 -1.21108,10.29094 -3.83113,12.28526 -1.8083,1.37644 -2.59853,2.53248 -3.21765,4.70718 -0.59488,2.08955 -0.90455,2.33589 -1.20675,0.95998 z m -2.00708,-12.84355 c 0.0164,-5.55975 0.79793,-10.18008 2.01596,-11.91907 0.45127,-0.64427 0.48608,-0.63867 1.01122,0.16281 0.9746,1.48741 1.66076,5.31287 1.87927,10.4772 0.11786,2.78549 0.32987,4.84924 0.47112,4.58611 0.48119,-0.89634 1.37283,-5.05701 1.75407,-8.18494 0.44742,-3.67098 0.0316,-7.54779 -1.07946,-10.06328 -0.84251,-1.90757 -2.67255,-3.926026 -3.55953,-3.926026 -0.9907,0 -3.03871,2.390451 -3.89263,4.543496 -1.13976,2.87378 -1.13321,10.19542 0.013,14.48308 1.25774,4.70504 1.37266,4.69184 1.38702,-0.15938 z m 15.03422,9.26377 c 0.30064,-0.97732 -0.43432,-2.46075 -1.76096,-3.55428 -1.5917,-1.31202 -2.26173,-2.66539 -2.26173,-4.56842 0,-1.90151 0.20288,-2.13108 1.26708,-1.43379 1.08371,0.71007 3.10433,0.69735 4.20906,-0.0265 l 0.87386,-0.57258 -0.0248,1.33105 c -0.0258,1.38206 -0.60733,3.2994 -0.65596,2.16254 -0.0362,-0.84669 -0.9321,-1.05393 -1.55942,-0.36075 -0.48981,0.54123 -0.47588,0.74856 0.14324,2.1314 0.81766,1.82631 0.85902,3.42478 0.11979,4.6298 -0.29756,0.48507 -0.45514,0.60276 -0.35017,0.26153 z m -25.70438,-0.69906 c -0.32793,-1.19495 -0.0911,-3.23894 0.55554,-4.79444 0.44588,-1.07258 0.42911,-1.21843 -0.19235,-1.67286 -0.59297,-0.43359 -0.76366,-0.42285 -1.32282,0.0832 -0.61317,0.55491 -0.64201,0.49686 -0.64201,-1.29223 0,-1.79242 0.0278,-1.84805 0.64514,-1.2894 0.8153,0.73784 3.51334,0.77341 4.53223,0.0597 0.66604,-0.46651 0.77157,-0.46334 0.96045,0.0289 0.72207,1.88172 -0.15703,4.11703 -2.44309,6.21204 -0.75632,0.69312 -1.39263,1.67682 -1.55421,2.40271 l -0.27359,1.22911 -0.26529,-0.96671 z"
       style="fill:#000000;stroke-width:0.352778" />
  </g>
</svg>
