<?xml version="1.0" standalone="no"?>
<!DOCTYPE svg PUBLIC "-//W3C//DTD SVG 1.1//EN" "http://www.w3.org/Graphics/SVG/1.1/DTD/svg11.dtd">
<svg width="573mm" height="586mm" viewBox="0 -586 573 586" xmlns="http://www.w3.org/2000/svg" version="1.1">
<title>OpenSCAD Model</title>
<path d="
M 480,-585.7 L 0,-585.7 L 0,-518.7 L 480,-518.7 z
M 237.648,-523.323 L 233.047,-524.301 L 228.75,-526.214 L 224.945,-528.979 L 221.797,-532.475 L 219.445,-536.548
 L 217.992,-541.022 L 217.5,-545.7 L 217.992,-550.378 L 219.445,-554.852 L 221.797,-558.925 L 224.945,-562.421
 L 228.75,-565.186 L 233.047,-567.099 L 237.648,-568.077 L 242.352,-568.077 L 246.953,-567.099 L 251.25,-565.186
 L 255.055,-562.421 L 258.203,-558.925 L 260.555,-554.852 L 262.008,-550.378 L 262.5,-545.7 L 262.008,-541.022
 L 260.555,-536.548 L 258.203,-532.475 L 255.055,-528.979 L 251.25,-526.214 L 246.953,-524.301 L 242.352,-523.323
 z
M 480,-480 L 0,-480 L 0,-0 L 480,-0 z
M 191.3,-460.65 L 191.144,-460.654 L 190.989,-460.665 L 190.834,-460.684 L 190.681,-460.711 L 190.529,-460.745
 L 190.378,-460.787 L 190.23,-460.836 L 190.085,-460.892 L 189.943,-460.955 L 189.803,-461.025 L 189.668,-461.102
 L 189.536,-461.185 L 189.409,-461.275 L 189.286,-461.371 L 189.168,-461.472 L 189.055,-461.58 L 188.947,-461.693
 L 188.846,-461.811 L 188.75,-461.934 L 188.66,-462.061 L 188.577,-462.193 L 188.5,-462.328 L 188.43,-462.467
 L 188.367,-462.61 L 188.311,-462.755 L 188.262,-462.903 L 188.22,-463.054 L 188.186,-463.206 L 188.159,-463.359
 L 188.14,-463.514 L 188.129,-463.669 L 188.125,-463.825 L 188.129,-463.981 L 188.14,-464.136 L 188.159,-464.291
 L 188.186,-464.444 L 188.22,-464.596 L 188.262,-464.747 L 188.311,-464.895 L 188.367,-465.04 L 188.43,-465.182
 L 188.5,-465.322 L 188.577,-465.457 L 188.66,-465.589 L 188.75,-465.716 L 188.846,-465.839 L 188.947,-465.957
 L 189.055,-466.07 L 189.168,-466.178 L 189.286,-466.279 L 189.409,-466.375 L 189.536,-466.465 L 189.668,-466.548
 L 189.803,-466.625 L 189.943,-466.695 L 190.085,-466.758 L 190.23,-466.814 L 190.378,-466.863 L 190.529,-466.905
 L 190.681,-466.939 L 190.834,-466.966 L 190.989,-466.985 L 191.144,-466.996 L 191.3,-467 L 230.325,-467
 L 230.481,-466.996 L 230.636,-466.985 L 230.791,-466.966 L 230.944,-466.939 L 231.096,-466.905 L 231.247,-466.863
 L 231.395,-466.814 L 231.54,-466.758 L 231.682,-466.695 L 231.822,-466.625 L 231.957,-466.548 L 232.089,-466.465
 L 232.216,-466.375 L 232.339,-466.279 L 232.457,-466.178 L 232.57,-466.07 L 232.678,-465.957 L 232.779,-465.839
 L 232.875,-465.716 L 232.965,-465.589 L 233.048,-465.457 L 233.125,-465.322 L 233.195,-465.182 L 233.258,-465.04
 L 233.314,-464.895 L 233.363,-464.747 L 233.405,-464.596 L 233.439,-464.444 L 233.466,-464.291 L 233.485,-464.136
 L 233.496,-463.981 L 233.5,-463.825 L 233.496,-463.669 L 233.485,-463.514 L 233.466,-463.359 L 233.439,-463.206
 L 233.405,-463.054 L 233.363,-462.903 L 233.314,-462.755 L 233.258,-462.61 L 233.195,-462.467 L 233.125,-462.328
 L 233.048,-462.193 L 232.965,-462.061 L 232.875,-461.934 L 232.779,-461.811 L 232.678,-461.693 L 232.57,-461.58
 L 232.457,-461.472 L 232.339,-461.371 L 232.216,-461.275 L 232.089,-461.185 L 231.957,-461.102 L 231.822,-461.025
 L 231.682,-460.955 L 231.54,-460.892 L 231.395,-460.836 L 231.247,-460.787 L 231.096,-460.745 L 230.944,-460.711
 L 230.791,-460.684 L 230.636,-460.665 L 230.481,-460.654 L 230.325,-460.65 z
M 74.55,-460.65 L 74.3942,-460.654 L 74.2388,-460.665 L 74.0841,-460.684 L 73.9306,-460.711 L 73.7785,-460.745
 L 73.6283,-460.787 L 73.4804,-460.836 L 73.335,-460.892 L 73.1925,-460.955 L 73.0533,-461.025 L 72.9177,-461.102
 L 72.7861,-461.185 L 72.6586,-461.275 L 72.5358,-461.371 L 72.4178,-461.472 L 72.3049,-461.58 L 72.1975,-461.693
 L 72.0957,-461.811 L 71.9998,-461.934 L 71.9101,-462.061 L 71.8267,-462.193 L 71.7499,-462.328 L 71.6798,-462.467
 L 71.6167,-462.61 L 71.5606,-462.755 L 71.5117,-462.903 L 71.4701,-463.054 L 71.436,-463.206 L 71.4094,-463.359
 L 71.3903,-463.514 L 71.3788,-463.669 L 71.375,-463.825 L 71.3788,-463.981 L 71.3903,-464.136 L 71.4094,-464.291
 L 71.436,-464.444 L 71.4701,-464.596 L 71.5117,-464.747 L 71.5606,-464.895 L 71.6167,-465.04 L 71.6798,-465.182
 L 71.7499,-465.322 L 71.8267,-465.457 L 71.9101,-465.589 L 71.9998,-465.716 L 72.0957,-465.839 L 72.1975,-465.957
 L 72.3049,-466.07 L 72.4178,-466.178 L 72.5358,-466.279 L 72.6586,-466.375 L 72.7861,-466.465 L 72.9177,-466.548
 L 73.0533,-466.625 L 73.1925,-466.695 L 73.335,-466.758 L 73.4804,-466.814 L 73.6283,-466.863 L 73.7785,-466.905
 L 73.9306,-466.939 L 74.0841,-466.966 L 74.2388,-466.985 L 74.3942,-466.996 L 74.55,-467 L 113.575,-467
 L 113.731,-466.996 L 113.886,-466.985 L 114.041,-466.966 L 114.194,-466.939 L 114.346,-466.905 L 114.497,-466.863
 L 114.645,-466.814 L 114.79,-466.758 L 114.932,-466.695 L 115.072,-466.625 L 115.207,-466.548 L 115.339,-466.465
 L 115.466,-466.375 L 115.589,-466.279 L 115.707,-466.178 L 115.82,-466.07 L 115.928,-465.957 L 116.029,-465.839
 L 116.125,-465.716 L 116.215,-465.589 L 116.298,-465.457 L 116.375,-465.322 L 116.445,-465.182 L 116.508,-465.04
 L 116.564,-464.895 L 116.613,-464.747 L 116.655,-464.596 L 116.689,-464.444 L 116.716,-464.291 L 116.735,-464.136
 L 116.746,-463.981 L 116.75,-463.825 L 116.746,-463.669 L 116.735,-463.514 L 116.716,-463.359 L 116.689,-463.206
 L 116.655,-463.054 L 116.613,-462.903 L 116.564,-462.755 L 116.508,-462.61 L 116.445,-462.467 L 116.375,-462.328
 L 116.298,-462.193 L 116.215,-462.061 L 116.125,-461.934 L 116.029,-461.811 L 115.928,-461.693 L 115.82,-461.58
 L 115.707,-461.472 L 115.589,-461.371 L 115.466,-461.275 L 115.339,-461.185 L 115.207,-461.102 L 115.072,-461.025
 L 114.932,-460.955 L 114.79,-460.892 L 114.645,-460.836 L 114.497,-460.787 L 114.346,-460.745 L 114.194,-460.711
 L 114.041,-460.684 L 113.886,-460.665 L 113.731,-460.654 L 113.575,-460.65 z
M 249.675,-460.65 L 249.519,-460.654 L 249.364,-460.665 L 249.209,-460.684 L 249.056,-460.711 L 248.904,-460.745
 L 248.753,-460.787 L 248.605,-460.836 L 248.46,-460.892 L 248.318,-460.955 L 248.178,-461.025 L 248.043,-461.102
 L 247.911,-461.185 L 247.784,-461.275 L 247.661,-461.371 L 247.543,-461.472 L 247.43,-461.58 L 247.322,-461.693
 L 247.221,-461.811 L 247.125,-461.934 L 247.035,-462.061 L 246.952,-462.193 L 246.875,-462.328 L 246.805,-462.467
 L 246.742,-462.61 L 246.686,-462.755 L 246.637,-462.903 L 246.595,-463.054 L 246.561,-463.206 L 246.534,-463.359
 L 246.515,-463.514 L 246.504,-463.669 L 246.5,-463.825 L 246.504,-463.981 L 246.515,-464.136 L 246.534,-464.291
 L 246.561,-464.444 L 246.595,-464.596 L 246.637,-464.747 L 246.686,-464.895 L 246.742,-465.04 L 246.805,-465.182
 L 246.875,-465.322 L 246.952,-465.457 L 247.035,-465.589 L 247.125,-465.716 L 247.221,-465.839 L 247.322,-465.957
 L 247.43,-466.07 L 247.543,-466.178 L 247.661,-466.279 L 247.784,-466.375 L 247.911,-466.465 L 248.043,-466.548
 L 248.178,-466.625 L 248.318,-466.695 L 248.46,-466.758 L 248.605,-466.814 L 248.753,-466.863 L 248.904,-466.905
 L 249.056,-466.939 L 249.209,-466.966 L 249.364,-466.985 L 249.519,-466.996 L 249.675,-467 L 288.7,-467
 L 288.856,-466.996 L 289.011,-466.985 L 289.166,-466.966 L 289.319,-466.939 L 289.471,-466.905 L 289.622,-466.863
 L 289.77,-466.814 L 289.915,-466.758 L 290.057,-466.695 L 290.197,-466.625 L 290.332,-466.548 L 290.464,-466.465
 L 290.591,-466.375 L 290.714,-466.279 L 290.832,-466.178 L 290.945,-466.07 L 291.052,-465.957 L 291.154,-465.839
 L 291.25,-465.716 L 291.34,-465.589 L 291.423,-465.457 L 291.5,-465.322 L 291.57,-465.182 L 291.633,-465.04
 L 291.689,-464.895 L 291.738,-464.747 L 291.78,-464.596 L 291.814,-464.444 L 291.841,-464.291 L 291.86,-464.136
 L 291.871,-463.981 L 291.875,-463.825 L 291.871,-463.669 L 291.86,-463.514 L 291.841,-463.359 L 291.814,-463.206
 L 291.78,-463.054 L 291.738,-462.903 L 291.689,-462.755 L 291.633,-462.61 L 291.57,-462.467 L 291.5,-462.328
 L 291.423,-462.193 L 291.34,-462.061 L 291.25,-461.934 L 291.154,-461.811 L 291.052,-461.693 L 290.945,-461.58
 L 290.832,-461.472 L 290.714,-461.371 L 290.591,-461.275 L 290.464,-461.185 L 290.332,-461.102 L 290.197,-461.025
 L 290.057,-460.955 L 289.915,-460.892 L 289.77,-460.836 L 289.622,-460.787 L 289.471,-460.745 L 289.319,-460.711
 L 289.166,-460.684 L 289.011,-460.665 L 288.856,-460.654 L 288.7,-460.65 z
M 366.425,-460.65 L 366.269,-460.654 L 366.114,-460.665 L 365.959,-460.684 L 365.806,-460.711 L 365.654,-460.745
 L 365.503,-460.787 L 365.355,-460.836 L 365.21,-460.892 L 365.068,-460.955 L 364.928,-461.025 L 364.793,-461.102
 L 364.661,-461.185 L 364.534,-461.275 L 364.411,-461.371 L 364.293,-461.472 L 364.18,-461.58 L 364.072,-461.693
 L 363.971,-461.811 L 363.875,-461.934 L 363.785,-462.061 L 363.702,-462.193 L 363.625,-462.328 L 363.555,-462.467
 L 363.492,-462.61 L 363.436,-462.755 L 363.387,-462.903 L 363.345,-463.054 L 363.311,-463.206 L 363.284,-463.359
 L 363.265,-463.514 L 363.254,-463.669 L 363.25,-463.825 L 363.254,-463.981 L 363.265,-464.136 L 363.284,-464.291
 L 363.311,-464.444 L 363.345,-464.596 L 363.387,-464.747 L 363.436,-464.895 L 363.492,-465.04 L 363.555,-465.182
 L 363.625,-465.322 L 363.702,-465.457 L 363.785,-465.589 L 363.875,-465.716 L 363.971,-465.839 L 364.072,-465.957
 L 364.18,-466.07 L 364.293,-466.178 L 364.411,-466.279 L 364.534,-466.375 L 364.661,-466.465 L 364.793,-466.548
 L 364.928,-466.625 L 365.068,-466.695 L 365.21,-466.758 L 365.355,-466.814 L 365.503,-466.863 L 365.654,-466.905
 L 365.806,-466.939 L 365.959,-466.966 L 366.114,-466.985 L 366.269,-466.996 L 366.425,-467 L 405.45,-467
 L 405.606,-466.996 L 405.761,-466.985 L 405.916,-466.966 L 406.069,-466.939 L 406.221,-466.905 L 406.372,-466.863
 L 406.52,-466.814 L 406.665,-466.758 L 406.807,-466.695 L 406.947,-466.625 L 407.082,-466.548 L 407.214,-466.465
 L 407.341,-466.375 L 407.464,-466.279 L 407.582,-466.178 L 407.695,-466.07 L 407.802,-465.957 L 407.904,-465.839
 L 408,-465.716 L 408.09,-465.589 L 408.173,-465.457 L 408.25,-465.322 L 408.32,-465.182 L 408.383,-465.04
 L 408.439,-464.895 L 408.488,-464.747 L 408.53,-464.596 L 408.564,-464.444 L 408.591,-464.291 L 408.61,-464.136
 L 408.621,-463.981 L 408.625,-463.825 L 408.621,-463.669 L 408.61,-463.514 L 408.591,-463.359 L 408.564,-463.206
 L 408.53,-463.054 L 408.488,-462.903 L 408.439,-462.755 L 408.383,-462.61 L 408.32,-462.467 L 408.25,-462.328
 L 408.173,-462.193 L 408.09,-462.061 L 408,-461.934 L 407.904,-461.811 L 407.802,-461.693 L 407.695,-461.58
 L 407.582,-461.472 L 407.464,-461.371 L 407.341,-461.275 L 407.214,-461.185 L 407.082,-461.102 L 406.947,-461.025
 L 406.807,-460.955 L 406.665,-460.892 L 406.52,-460.836 L 406.372,-460.787 L 406.221,-460.745 L 406.069,-460.711
 L 405.916,-460.684 L 405.761,-460.665 L 405.606,-460.654 L 405.45,-460.65 z
M 16.175,-460.65 L 16.0192,-460.654 L 15.8638,-460.665 L 15.7091,-460.684 L 15.5556,-460.711 L 15.4035,-460.745
 L 15.2533,-460.787 L 15.1054,-460.836 L 14.96,-460.892 L 14.8175,-460.955 L 14.6783,-461.025 L 14.5427,-461.102
 L 14.4111,-461.185 L 14.2836,-461.275 L 14.1608,-461.371 L 14.0428,-461.472 L 13.9299,-461.58 L 13.8225,-461.693
 L 13.7207,-461.811 L 13.6248,-461.934 L 13.5351,-462.061 L 13.4517,-462.193 L 13.3749,-462.328 L 13.3048,-462.467
 L 13.2417,-462.61 L 13.1856,-462.755 L 13.1367,-462.903 L 13.0951,-463.054 L 13.061,-463.206 L 13.0344,-463.359
 L 13.0153,-463.514 L 13.0038,-463.669 L 13,-463.825 L 13.0038,-463.981 L 13.0153,-464.136 L 13.0344,-464.291
 L 13.061,-464.444 L 13.0951,-464.596 L 13.1367,-464.747 L 13.1856,-464.895 L 13.2417,-465.04 L 13.3048,-465.182
 L 13.3749,-465.322 L 13.4517,-465.457 L 13.5351,-465.589 L 13.6248,-465.716 L 13.7207,-465.839 L 13.8225,-465.957
 L 13.9299,-466.07 L 14.0428,-466.178 L 14.1608,-466.279 L 14.2836,-466.375 L 14.4111,-466.465 L 14.5427,-466.548
 L 14.6783,-466.625 L 14.8175,-466.695 L 14.96,-466.758 L 15.1054,-466.814 L 15.2533,-466.863 L 15.4035,-466.905
 L 15.5556,-466.939 L 15.7091,-466.966 L 15.8638,-466.985 L 16.0192,-466.996 L 16.175,-467 L 55.2,-467
 L 55.3558,-466.996 L 55.5112,-466.985 L 55.6659,-466.966 L 55.8194,-466.939 L 55.9715,-466.905 L 56.1216,-466.863
 L 56.2696,-466.814 L 56.415,-466.758 L 56.5575,-466.695 L 56.6967,-466.625 L 56.8323,-466.548 L 56.9639,-466.465
 L 57.0913,-466.375 L 57.2142,-466.279 L 57.3322,-466.178 L 57.4451,-466.07 L 57.5525,-465.957 L 57.6543,-465.839
 L 57.7502,-465.716 L 57.8399,-465.589 L 57.9233,-465.457 L 58.0001,-465.322 L 58.0702,-465.182 L 58.1333,-465.04
 L 58.1894,-464.895 L 58.2383,-464.747 L 58.2798,-464.596 L 58.314,-464.444 L 58.3406,-464.291 L 58.3597,-464.136
 L 58.3712,-463.981 L 58.375,-463.825 L 58.3712,-463.669 L 58.3597,-463.514 L 58.3406,-463.359 L 58.314,-463.206
 L 58.2798,-463.054 L 58.2383,-462.903 L 58.1894,-462.755 L 58.1333,-462.61 L 58.0702,-462.467 L 58.0001,-462.328
 L 57.9233,-462.193 L 57.8399,-462.061 L 57.7502,-461.934 L 57.6543,-461.811 L 57.5525,-461.693 L 57.4451,-461.58
 L 57.3322,-461.472 L 57.2142,-461.371 L 57.0913,-461.275 L 56.9639,-461.185 L 56.8323,-461.102 L 56.6967,-461.025
 L 56.5575,-460.955 L 56.415,-460.892 L 56.2696,-460.836 L 56.1216,-460.787 L 55.9715,-460.745 L 55.8194,-460.711
 L 55.6659,-460.684 L 55.5112,-460.665 L 55.3558,-460.654 L 55.2,-460.65 z
M 424.8,-460.65 L 424.644,-460.654 L 424.489,-460.665 L 424.334,-460.684 L 424.181,-460.711 L 424.029,-460.745
 L 423.878,-460.787 L 423.73,-460.836 L 423.585,-460.892 L 423.443,-460.955 L 423.303,-461.025 L 423.168,-461.102
 L 423.036,-461.185 L 422.909,-461.275 L 422.786,-461.371 L 422.668,-461.472 L 422.555,-461.58 L 422.447,-461.693
 L 422.346,-461.811 L 422.25,-461.934 L 422.16,-462.061 L 422.077,-462.193 L 422,-462.328 L 421.93,-462.467
 L 421.867,-462.61 L 421.811,-462.755 L 421.762,-462.903 L 421.72,-463.054 L 421.686,-463.206 L 421.659,-463.359
 L 421.64,-463.514 L 421.629,-463.669 L 421.625,-463.825 L 421.629,-463.981 L 421.64,-464.136 L 421.659,-464.291
 L 421.686,-464.444 L 421.72,-464.596 L 421.762,-464.747 L 421.811,-464.895 L 421.867,-465.04 L 421.93,-465.182
 L 422,-465.322 L 422.077,-465.457 L 422.16,-465.589 L 422.25,-465.716 L 422.346,-465.839 L 422.447,-465.957
 L 422.555,-466.07 L 422.668,-466.178 L 422.786,-466.279 L 422.909,-466.375 L 423.036,-466.465 L 423.168,-466.548
 L 423.303,-466.625 L 423.443,-466.695 L 423.585,-466.758 L 423.73,-466.814 L 423.878,-466.863 L 424.029,-466.905
 L 424.181,-466.939 L 424.334,-466.966 L 424.489,-466.985 L 424.644,-466.996 L 424.8,-467 L 463.825,-467
 L 463.981,-466.996 L 464.136,-466.985 L 464.291,-466.966 L 464.444,-466.939 L 464.596,-466.905 L 464.747,-466.863
 L 464.895,-466.814 L 465.04,-466.758 L 465.182,-466.695 L 465.322,-466.625 L 465.457,-466.548 L 465.589,-466.465
 L 465.716,-466.375 L 465.839,-466.279 L 465.957,-466.178 L 466.07,-466.07 L 466.177,-465.957 L 466.279,-465.839
 L 466.375,-465.716 L 466.465,-465.589 L 466.548,-465.457 L 466.625,-465.322 L 466.695,-465.182 L 466.758,-465.04
 L 466.814,-464.895 L 466.863,-464.747 L 466.905,-464.596 L 466.939,-464.444 L 466.966,-464.291 L 466.985,-464.136
 L 466.996,-463.981 L 467,-463.825 L 466.996,-463.669 L 466.985,-463.514 L 466.966,-463.359 L 466.939,-463.206
 L 466.905,-463.054 L 466.863,-462.903 L 466.814,-462.755 L 466.758,-462.61 L 466.695,-462.467 L 466.625,-462.328
 L 466.548,-462.193 L 466.465,-462.061 L 466.375,-461.934 L 466.279,-461.811 L 466.177,-461.693 L 466.07,-461.58
 L 465.957,-461.472 L 465.839,-461.371 L 465.716,-461.275 L 465.589,-461.185 L 465.457,-461.102 L 465.322,-461.025
 L 465.182,-460.955 L 465.04,-460.892 L 464.895,-460.836 L 464.747,-460.787 L 464.596,-460.745 L 464.444,-460.711
 L 464.291,-460.684 L 464.136,-460.665 L 463.981,-460.654 L 463.825,-460.65 z
M 132.925,-460.65 L 132.769,-460.654 L 132.614,-460.665 L 132.459,-460.684 L 132.306,-460.711 L 132.154,-460.745
 L 132.003,-460.787 L 131.855,-460.836 L 131.71,-460.892 L 131.568,-460.955 L 131.428,-461.025 L 131.293,-461.102
 L 131.161,-461.185 L 131.034,-461.275 L 130.911,-461.371 L 130.793,-461.472 L 130.68,-461.58 L 130.572,-461.693
 L 130.471,-461.811 L 130.375,-461.934 L 130.285,-462.061 L 130.202,-462.193 L 130.125,-462.328 L 130.055,-462.467
 L 129.992,-462.61 L 129.936,-462.755 L 129.887,-462.903 L 129.845,-463.054 L 129.811,-463.206 L 129.784,-463.359
 L 129.765,-463.514 L 129.754,-463.669 L 129.75,-463.825 L 129.754,-463.981 L 129.765,-464.136 L 129.784,-464.291
 L 129.811,-464.444 L 129.845,-464.596 L 129.887,-464.747 L 129.936,-464.895 L 129.992,-465.04 L 130.055,-465.182
 L 130.125,-465.322 L 130.202,-465.457 L 130.285,-465.589 L 130.375,-465.716 L 130.471,-465.839 L 130.572,-465.957
 L 130.68,-466.07 L 130.793,-466.178 L 130.911,-466.279 L 131.034,-466.375 L 131.161,-466.465 L 131.293,-466.548
 L 131.428,-466.625 L 131.568,-466.695 L 131.71,-466.758 L 131.855,-466.814 L 132.003,-466.863 L 132.154,-466.905
 L 132.306,-466.939 L 132.459,-466.966 L 132.614,-466.985 L 132.769,-466.996 L 132.925,-467 L 171.95,-467
 L 172.106,-466.996 L 172.261,-466.985 L 172.416,-466.966 L 172.569,-466.939 L 172.721,-466.905 L 172.872,-466.863
 L 173.02,-466.814 L 173.165,-466.758 L 173.307,-466.695 L 173.447,-466.625 L 173.582,-466.548 L 173.714,-466.465
 L 173.841,-466.375 L 173.964,-466.279 L 174.082,-466.178 L 174.195,-466.07 L 174.303,-465.957 L 174.404,-465.839
 L 174.5,-465.716 L 174.59,-465.589 L 174.673,-465.457 L 174.75,-465.322 L 174.82,-465.182 L 174.883,-465.04
 L 174.939,-464.895 L 174.988,-464.747 L 175.03,-464.596 L 175.064,-464.444 L 175.091,-464.291 L 175.11,-464.136
 L 175.121,-463.981 L 175.125,-463.825 L 175.121,-463.669 L 175.11,-463.514 L 175.091,-463.359 L 175.064,-463.206
 L 175.03,-463.054 L 174.988,-462.903 L 174.939,-462.755 L 174.883,-462.61 L 174.82,-462.467 L 174.75,-462.328
 L 174.673,-462.193 L 174.59,-462.061 L 174.5,-461.934 L 174.404,-461.811 L 174.303,-461.693 L 174.195,-461.58
 L 174.082,-461.472 L 173.964,-461.371 L 173.841,-461.275 L 173.714,-461.185 L 173.582,-461.102 L 173.447,-461.025
 L 173.307,-460.955 L 173.165,-460.892 L 173.02,-460.836 L 172.872,-460.787 L 172.721,-460.745 L 172.569,-460.711
 L 172.416,-460.684 L 172.261,-460.665 L 172.106,-460.654 L 171.95,-460.65 z
M 308.05,-460.65 L 307.894,-460.654 L 307.739,-460.665 L 307.584,-460.684 L 307.431,-460.711 L 307.279,-460.745
 L 307.128,-460.787 L 306.98,-460.836 L 306.835,-460.892 L 306.693,-460.955 L 306.553,-461.025 L 306.418,-461.102
 L 306.286,-461.185 L 306.159,-461.275 L 306.036,-461.371 L 305.918,-461.472 L 305.805,-461.58 L 305.697,-461.693
 L 305.596,-461.811 L 305.5,-461.934 L 305.41,-462.061 L 305.327,-462.193 L 305.25,-462.328 L 305.18,-462.467
 L 305.117,-462.61 L 305.061,-462.755 L 305.012,-462.903 L 304.97,-463.054 L 304.936,-463.206 L 304.909,-463.359
 L 304.89,-463.514 L 304.879,-463.669 L 304.875,-463.825 L 304.879,-463.981 L 304.89,-464.136 L 304.909,-464.291
 L 304.936,-464.444 L 304.97,-464.596 L 305.012,-464.747 L 305.061,-464.895 L 305.117,-465.04 L 305.18,-465.182
 L 305.25,-465.322 L 305.327,-465.457 L 305.41,-465.589 L 305.5,-465.716 L 305.596,-465.839 L 305.697,-465.957
 L 305.805,-466.07 L 305.918,-466.178 L 306.036,-466.279 L 306.159,-466.375 L 306.286,-466.465 L 306.418,-466.548
 L 306.553,-466.625 L 306.693,-466.695 L 306.835,-466.758 L 306.98,-466.814 L 307.128,-466.863 L 307.279,-466.905
 L 307.431,-466.939 L 307.584,-466.966 L 307.739,-466.985 L 307.894,-466.996 L 308.05,-467 L 347.075,-467
 L 347.231,-466.996 L 347.386,-466.985 L 347.541,-466.966 L 347.694,-466.939 L 347.846,-466.905 L 347.997,-466.863
 L 348.145,-466.814 L 348.29,-466.758 L 348.432,-466.695 L 348.572,-466.625 L 348.707,-466.548 L 348.839,-466.465
 L 348.966,-466.375 L 349.089,-466.279 L 349.207,-466.178 L 349.32,-466.07 L 349.427,-465.957 L 349.529,-465.839
 L 349.625,-465.716 L 349.715,-465.589 L 349.798,-465.457 L 349.875,-465.322 L 349.945,-465.182 L 350.008,-465.04
 L 350.064,-464.895 L 350.113,-464.747 L 350.155,-464.596 L 350.189,-464.444 L 350.216,-464.291 L 350.235,-464.136
 L 350.246,-463.981 L 350.25,-463.825 L 350.246,-463.669 L 350.235,-463.514 L 350.216,-463.359 L 350.189,-463.206
 L 350.155,-463.054 L 350.113,-462.903 L 350.064,-462.755 L 350.008,-462.61 L 349.945,-462.467 L 349.875,-462.328
 L 349.798,-462.193 L 349.715,-462.061 L 349.625,-461.934 L 349.529,-461.811 L 349.427,-461.693 L 349.32,-461.58
 L 349.207,-461.472 L 349.089,-461.371 L 348.966,-461.275 L 348.839,-461.185 L 348.707,-461.102 L 348.572,-461.025
 L 348.432,-460.955 L 348.29,-460.892 L 348.145,-460.836 L 347.997,-460.787 L 347.846,-460.745 L 347.694,-460.711
 L 347.541,-460.684 L 347.386,-460.665 L 347.231,-460.654 L 347.075,-460.65 z
M 463.669,-403.754 L 463.514,-403.765 L 463.359,-403.784 L 463.206,-403.811 L 463.054,-403.845 L 462.903,-403.887
 L 462.755,-403.936 L 462.61,-403.992 L 462.467,-404.055 L 462.328,-404.125 L 462.193,-404.202 L 462.061,-404.285
 L 461.934,-404.375 L 461.811,-404.471 L 461.693,-404.572 L 461.58,-404.68 L 461.472,-404.793 L 461.371,-404.911
 L 461.275,-405.034 L 461.185,-405.161 L 461.102,-405.293 L 461.025,-405.428 L 460.955,-405.568 L 460.892,-405.71
 L 460.836,-405.855 L 460.787,-406.003 L 460.745,-406.154 L 460.711,-406.306 L 460.684,-406.459 L 460.665,-406.614
 L 460.654,-406.769 L 460.65,-406.925 L 460.65,-437.825 L 460.654,-437.981 L 460.665,-438.136 L 460.684,-438.291
 L 460.711,-438.444 L 460.745,-438.596 L 460.787,-438.747 L 460.836,-438.895 L 460.892,-439.04 L 460.955,-439.182
 L 461.025,-439.322 L 461.102,-439.457 L 461.185,-439.589 L 461.275,-439.716 L 461.371,-439.839 L 461.472,-439.957
 L 461.58,-440.07 L 461.693,-440.177 L 461.811,-440.279 L 461.934,-440.375 L 462.061,-440.465 L 462.193,-440.548
 L 462.328,-440.625 L 462.467,-440.695 L 462.61,-440.758 L 462.755,-440.814 L 462.903,-440.863 L 463.054,-440.905
 L 463.206,-440.939 L 463.359,-440.966 L 463.514,-440.985 L 463.669,-440.996 L 463.825,-441 L 463.981,-440.996
 L 464.136,-440.985 L 464.291,-440.966 L 464.444,-440.939 L 464.596,-440.905 L 464.747,-440.863 L 464.895,-440.814
 L 465.04,-440.758 L 465.182,-440.695 L 465.322,-440.625 L 465.457,-440.548 L 465.589,-440.465 L 465.716,-440.375
 L 465.839,-440.279 L 465.957,-440.177 L 466.07,-440.07 L 466.178,-439.957 L 466.279,-439.839 L 466.375,-439.716
 L 466.465,-439.589 L 466.548,-439.457 L 466.625,-439.322 L 466.695,-439.182 L 466.758,-439.04 L 466.814,-438.895
 L 466.863,-438.747 L 466.905,-438.596 L 466.939,-438.444 L 466.966,-438.291 L 466.985,-438.136 L 466.996,-437.981
 L 467,-437.825 L 467,-406.925 L 466.996,-406.769 L 466.985,-406.614 L 466.966,-406.459 L 466.939,-406.306
 L 466.905,-406.154 L 466.863,-406.003 L 466.814,-405.855 L 466.758,-405.71 L 466.695,-405.568 L 466.625,-405.428
 L 466.548,-405.293 L 466.465,-405.161 L 466.375,-405.034 L 466.279,-404.911 L 466.178,-404.793 L 466.07,-404.68
 L 465.957,-404.572 L 465.839,-404.471 L 465.716,-404.375 L 465.589,-404.285 L 465.457,-404.202 L 465.322,-404.125
 L 465.182,-404.055 L 465.04,-403.992 L 464.895,-403.936 L 464.747,-403.887 L 464.596,-403.845 L 464.444,-403.811
 L 464.291,-403.784 L 464.136,-403.765 L 463.981,-403.754 L 463.825,-403.75 z
M 16.0192,-403.754 L 15.8638,-403.765 L 15.7091,-403.784 L 15.5556,-403.811 L 15.4035,-403.845 L 15.2533,-403.887
 L 15.1054,-403.936 L 14.96,-403.992 L 14.8175,-404.055 L 14.6783,-404.125 L 14.5427,-404.202 L 14.4111,-404.285
 L 14.2836,-404.375 L 14.1608,-404.471 L 14.0428,-404.572 L 13.9299,-404.68 L 13.8225,-404.793 L 13.7207,-404.911
 L 13.6248,-405.034 L 13.5351,-405.161 L 13.4517,-405.293 L 13.3749,-405.428 L 13.3048,-405.568 L 13.2417,-405.71
 L 13.1856,-405.855 L 13.1367,-406.003 L 13.0952,-406.154 L 13.061,-406.306 L 13.0344,-406.459 L 13.0153,-406.614
 L 13.0038,-406.769 L 13,-406.925 L 13,-437.825 L 13.0038,-437.981 L 13.0153,-438.136 L 13.0344,-438.291
 L 13.061,-438.444 L 13.0952,-438.596 L 13.1367,-438.747 L 13.1856,-438.895 L 13.2417,-439.04 L 13.3048,-439.182
 L 13.3749,-439.322 L 13.4517,-439.457 L 13.5351,-439.589 L 13.6248,-439.716 L 13.7207,-439.839 L 13.8225,-439.957
 L 13.9299,-440.07 L 14.0428,-440.177 L 14.1608,-440.279 L 14.2836,-440.375 L 14.4111,-440.465 L 14.5427,-440.548
 L 14.6783,-440.625 L 14.8175,-440.695 L 14.96,-440.758 L 15.1054,-440.814 L 15.2533,-440.863 L 15.4035,-440.905
 L 15.5556,-440.939 L 15.7091,-440.966 L 15.8638,-440.985 L 16.0192,-440.996 L 16.175,-441 L 16.3308,-440.996
 L 16.4862,-440.985 L 16.6409,-440.966 L 16.7944,-440.939 L 16.9465,-440.905 L 17.0966,-440.863 L 17.2446,-440.814
 L 17.39,-440.758 L 17.5325,-440.695 L 17.6717,-440.625 L 17.8073,-440.548 L 17.9389,-440.465 L 18.0663,-440.375
 L 18.1892,-440.279 L 18.3072,-440.177 L 18.4201,-440.07 L 18.5275,-439.957 L 18.6293,-439.839 L 18.7252,-439.716
 L 18.8149,-439.589 L 18.8983,-439.457 L 18.9751,-439.322 L 19.0452,-439.182 L 19.1083,-439.04 L 19.1644,-438.895
 L 19.2133,-438.747 L 19.2549,-438.596 L 19.289,-438.444 L 19.3156,-438.291 L 19.3347,-438.136 L 19.3462,-437.981
 L 19.35,-437.825 L 19.35,-406.925 L 19.3462,-406.769 L 19.3347,-406.614 L 19.3156,-406.459 L 19.289,-406.306
 L 19.2549,-406.154 L 19.2133,-406.003 L 19.1644,-405.855 L 19.1083,-405.71 L 19.0452,-405.568 L 18.9751,-405.428
 L 18.8983,-405.293 L 18.8149,-405.161 L 18.7252,-405.034 L 18.6293,-404.911 L 18.5275,-404.793 L 18.4201,-404.68
 L 18.3072,-404.572 L 18.1892,-404.471 L 18.0663,-404.375 L 17.9389,-404.285 L 17.8073,-404.202 L 17.6717,-404.125
 L 17.5325,-404.055 L 17.39,-403.992 L 17.2446,-403.936 L 17.0966,-403.887 L 16.9465,-403.845 L 16.7944,-403.811
 L 16.6409,-403.784 L 16.4862,-403.765 L 16.3308,-403.754 L 16.175,-403.75 z
M 16.0192,-353.504 L 15.8638,-353.515 L 15.7091,-353.534 L 15.5556,-353.561 L 15.4035,-353.595 L 15.2533,-353.637
 L 15.1054,-353.686 L 14.96,-353.742 L 14.8175,-353.805 L 14.6783,-353.875 L 14.5427,-353.952 L 14.4111,-354.035
 L 14.2836,-354.125 L 14.1608,-354.221 L 14.0428,-354.322 L 13.9299,-354.43 L 13.8225,-354.543 L 13.7207,-354.661
 L 13.6248,-354.784 L 13.5351,-354.911 L 13.4517,-355.043 L 13.3749,-355.178 L 13.3048,-355.318 L 13.2417,-355.46
 L 13.1856,-355.605 L 13.1367,-355.753 L 13.0952,-355.904 L 13.061,-356.056 L 13.0344,-356.209 L 13.0153,-356.364
 L 13.0038,-356.519 L 13,-356.675 L 13,-387.575 L 13.0038,-387.731 L 13.0153,-387.886 L 13.0344,-388.041
 L 13.061,-388.194 L 13.0952,-388.346 L 13.1367,-388.497 L 13.1856,-388.645 L 13.2417,-388.79 L 13.3048,-388.932
 L 13.3749,-389.072 L 13.4517,-389.207 L 13.5351,-389.339 L 13.6248,-389.466 L 13.7207,-389.589 L 13.8225,-389.707
 L 13.9299,-389.82 L 14.0428,-389.927 L 14.1608,-390.029 L 14.2836,-390.125 L 14.4111,-390.215 L 14.5427,-390.298
 L 14.6783,-390.375 L 14.8175,-390.445 L 14.96,-390.508 L 15.1054,-390.564 L 15.2533,-390.613 L 15.4035,-390.655
 L 15.5556,-390.689 L 15.7091,-390.716 L 15.8638,-390.735 L 16.0192,-390.746 L 16.175,-390.75 L 16.3308,-390.746
 L 16.4862,-390.735 L 16.6409,-390.716 L 16.7944,-390.689 L 16.9465,-390.655 L 17.0966,-390.613 L 17.2446,-390.564
 L 17.39,-390.508 L 17.5325,-390.445 L 17.6717,-390.375 L 17.8073,-390.298 L 17.9389,-390.215 L 18.0663,-390.125
 L 18.1892,-390.029 L 18.3072,-389.927 L 18.4201,-389.82 L 18.5275,-389.707 L 18.6293,-389.589 L 18.7252,-389.466
 L 18.8149,-389.339 L 18.8983,-389.207 L 18.9751,-389.072 L 19.0452,-388.932 L 19.1083,-388.79 L 19.1644,-388.645
 L 19.2133,-388.497 L 19.2549,-388.346 L 19.289,-388.194 L 19.3156,-388.041 L 19.3347,-387.886 L 19.3462,-387.731
 L 19.35,-387.575 L 19.35,-356.675 L 19.3462,-356.519 L 19.3347,-356.364 L 19.3156,-356.209 L 19.289,-356.056
 L 19.2549,-355.904 L 19.2133,-355.753 L 19.1644,-355.605 L 19.1083,-355.46 L 19.0452,-355.318 L 18.9751,-355.178
 L 18.8983,-355.043 L 18.8149,-354.911 L 18.7252,-354.784 L 18.6293,-354.661 L 18.5275,-354.543 L 18.4201,-354.43
 L 18.3072,-354.322 L 18.1892,-354.221 L 18.0663,-354.125 L 17.9389,-354.035 L 17.8073,-353.952 L 17.6717,-353.875
 L 17.5325,-353.805 L 17.39,-353.742 L 17.2446,-353.686 L 17.0966,-353.637 L 16.9465,-353.595 L 16.7944,-353.561
 L 16.6409,-353.534 L 16.4862,-353.515 L 16.3308,-353.504 L 16.175,-353.5 z
M 463.669,-353.504 L 463.514,-353.515 L 463.359,-353.534 L 463.206,-353.561 L 463.054,-353.595 L 462.903,-353.637
 L 462.755,-353.686 L 462.61,-353.742 L 462.467,-353.805 L 462.328,-353.875 L 462.193,-353.952 L 462.061,-354.035
 L 461.934,-354.125 L 461.811,-354.221 L 461.693,-354.322 L 461.58,-354.43 L 461.472,-354.543 L 461.371,-354.661
 L 461.275,-354.784 L 461.185,-354.911 L 461.102,-355.043 L 461.025,-355.178 L 460.955,-355.318 L 460.892,-355.46
 L 460.836,-355.605 L 460.787,-355.753 L 460.745,-355.904 L 460.711,-356.056 L 460.684,-356.209 L 460.665,-356.364
 L 460.654,-356.519 L 460.65,-356.675 L 460.65,-387.575 L 460.654,-387.731 L 460.665,-387.886 L 460.684,-388.041
 L 460.711,-388.194 L 460.745,-388.346 L 460.787,-388.497 L 460.836,-388.645 L 460.892,-388.79 L 460.955,-388.932
 L 461.025,-389.072 L 461.102,-389.207 L 461.185,-389.339 L 461.275,-389.466 L 461.371,-389.589 L 461.472,-389.707
 L 461.58,-389.82 L 461.693,-389.927 L 461.811,-390.029 L 461.934,-390.125 L 462.061,-390.215 L 462.193,-390.298
 L 462.328,-390.375 L 462.467,-390.445 L 462.61,-390.508 L 462.755,-390.564 L 462.903,-390.613 L 463.054,-390.655
 L 463.206,-390.689 L 463.359,-390.716 L 463.514,-390.735 L 463.669,-390.746 L 463.825,-390.75 L 463.981,-390.746
 L 464.136,-390.735 L 464.291,-390.716 L 464.444,-390.689 L 464.596,-390.655 L 464.747,-390.613 L 464.895,-390.564
 L 465.04,-390.508 L 465.182,-390.445 L 465.322,-390.375 L 465.457,-390.298 L 465.589,-390.215 L 465.716,-390.125
 L 465.839,-390.029 L 465.957,-389.927 L 466.07,-389.82 L 466.178,-389.707 L 466.279,-389.589 L 466.375,-389.466
 L 466.465,-389.339 L 466.548,-389.207 L 466.625,-389.072 L 466.695,-388.932 L 466.758,-388.79 L 466.814,-388.645
 L 466.863,-388.497 L 466.905,-388.346 L 466.939,-388.194 L 466.966,-388.041 L 466.985,-387.886 L 466.996,-387.731
 L 467,-387.575 L 467,-356.675 L 466.996,-356.519 L 466.985,-356.364 L 466.966,-356.209 L 466.939,-356.056
 L 466.905,-355.904 L 466.863,-355.753 L 466.814,-355.605 L 466.758,-355.46 L 466.695,-355.318 L 466.625,-355.178
 L 466.548,-355.043 L 466.465,-354.911 L 466.375,-354.784 L 466.279,-354.661 L 466.178,-354.543 L 466.07,-354.43
 L 465.957,-354.322 L 465.839,-354.221 L 465.716,-354.125 L 465.589,-354.035 L 465.457,-353.952 L 465.322,-353.875
 L 465.182,-353.805 L 465.04,-353.742 L 464.895,-353.686 L 464.747,-353.637 L 464.596,-353.595 L 464.444,-353.561
 L 464.291,-353.534 L 464.136,-353.515 L 463.981,-353.504 L 463.825,-353.5 z
M 463.669,-303.254 L 463.514,-303.265 L 463.359,-303.284 L 463.206,-303.311 L 463.054,-303.345 L 462.903,-303.387
 L 462.755,-303.436 L 462.61,-303.492 L 462.467,-303.555 L 462.328,-303.625 L 462.193,-303.702 L 462.061,-303.785
 L 461.934,-303.875 L 461.811,-303.971 L 461.693,-304.072 L 461.58,-304.18 L 461.472,-304.293 L 461.371,-304.411
 L 461.275,-304.534 L 461.185,-304.661 L 461.102,-304.793 L 461.025,-304.928 L 460.955,-305.068 L 460.892,-305.21
 L 460.836,-305.355 L 460.787,-305.503 L 460.745,-305.654 L 460.711,-305.806 L 460.684,-305.959 L 460.665,-306.114
 L 460.654,-306.269 L 460.65,-306.425 L 460.65,-337.325 L 460.654,-337.481 L 460.665,-337.636 L 460.684,-337.791
 L 460.711,-337.944 L 460.745,-338.096 L 460.787,-338.247 L 460.836,-338.395 L 460.892,-338.54 L 460.955,-338.682
 L 461.025,-338.822 L 461.102,-338.957 L 461.185,-339.089 L 461.275,-339.216 L 461.371,-339.339 L 461.472,-339.457
 L 461.58,-339.57 L 461.693,-339.677 L 461.811,-339.779 L 461.934,-339.875 L 462.061,-339.965 L 462.193,-340.048
 L 462.328,-340.125 L 462.467,-340.195 L 462.61,-340.258 L 462.755,-340.314 L 462.903,-340.363 L 463.054,-340.405
 L 463.206,-340.439 L 463.359,-340.466 L 463.514,-340.485 L 463.669,-340.496 L 463.825,-340.5 L 463.981,-340.496
 L 464.136,-340.485 L 464.291,-340.466 L 464.444,-340.439 L 464.596,-340.405 L 464.747,-340.363 L 464.895,-340.314
 L 465.04,-340.258 L 465.182,-340.195 L 465.322,-340.125 L 465.457,-340.048 L 465.589,-339.965 L 465.716,-339.875
 L 465.839,-339.779 L 465.957,-339.677 L 466.07,-339.57 L 466.178,-339.457 L 466.279,-339.339 L 466.375,-339.216
 L 466.465,-339.089 L 466.548,-338.957 L 466.625,-338.822 L 466.695,-338.682 L 466.758,-338.54 L 466.814,-338.395
 L 466.863,-338.247 L 466.905,-338.096 L 466.939,-337.944 L 466.966,-337.791 L 466.985,-337.636 L 466.996,-337.481
 L 467,-337.325 L 467,-306.425 L 466.996,-306.269 L 466.985,-306.114 L 466.966,-305.959 L 466.939,-305.806
 L 466.905,-305.654 L 466.863,-305.503 L 466.814,-305.355 L 466.758,-305.21 L 466.695,-305.068 L 466.625,-304.928
 L 466.548,-304.793 L 466.465,-304.661 L 466.375,-304.534 L 466.279,-304.411 L 466.178,-304.293 L 466.07,-304.18
 L 465.957,-304.072 L 465.839,-303.971 L 465.716,-303.875 L 465.589,-303.785 L 465.457,-303.702 L 465.322,-303.625
 L 465.182,-303.555 L 465.04,-303.492 L 464.895,-303.436 L 464.747,-303.387 L 464.596,-303.345 L 464.444,-303.311
 L 464.291,-303.284 L 464.136,-303.265 L 463.981,-303.254 L 463.825,-303.25 z
M 16.0192,-303.254 L 15.8638,-303.265 L 15.7091,-303.284 L 15.5556,-303.311 L 15.4035,-303.345 L 15.2533,-303.387
 L 15.1054,-303.436 L 14.96,-303.492 L 14.8175,-303.555 L 14.6783,-303.625 L 14.5427,-303.702 L 14.4111,-303.785
 L 14.2836,-303.875 L 14.1608,-303.971 L 14.0428,-304.072 L 13.9299,-304.18 L 13.8225,-304.293 L 13.7207,-304.411
 L 13.6248,-304.534 L 13.5351,-304.661 L 13.4517,-304.793 L 13.3749,-304.928 L 13.3048,-305.068 L 13.2417,-305.21
 L 13.1856,-305.355 L 13.1367,-305.503 L 13.0952,-305.654 L 13.061,-305.806 L 13.0344,-305.959 L 13.0153,-306.114
 L 13.0038,-306.269 L 13,-306.425 L 13,-337.325 L 13.0038,-337.481 L 13.0153,-337.636 L 13.0344,-337.791
 L 13.061,-337.944 L 13.0952,-338.096 L 13.1367,-338.247 L 13.1856,-338.395 L 13.2417,-338.54 L 13.3048,-338.682
 L 13.3749,-338.822 L 13.4517,-338.957 L 13.5351,-339.089 L 13.6248,-339.216 L 13.7207,-339.339 L 13.8225,-339.457
 L 13.9299,-339.57 L 14.0428,-339.677 L 14.1608,-339.779 L 14.2836,-339.875 L 14.4111,-339.965 L 14.5427,-340.048
 L 14.6783,-340.125 L 14.8175,-340.195 L 14.96,-340.258 L 15.1054,-340.314 L 15.2533,-340.363 L 15.4035,-340.405
 L 15.5556,-340.439 L 15.7091,-340.466 L 15.8638,-340.485 L 16.0192,-340.496 L 16.175,-340.5 L 16.3308,-340.496
 L 16.4862,-340.485 L 16.6409,-340.466 L 16.7944,-340.439 L 16.9465,-340.405 L 17.0966,-340.363 L 17.2446,-340.314
 L 17.39,-340.258 L 17.5325,-340.195 L 17.6717,-340.125 L 17.8073,-340.048 L 17.9389,-339.965 L 18.0663,-339.875
 L 18.1892,-339.779 L 18.3072,-339.677 L 18.4201,-339.57 L 18.5275,-339.457 L 18.6293,-339.339 L 18.7252,-339.216
 L 18.8149,-339.089 L 18.8983,-338.957 L 18.9751,-338.822 L 19.0452,-338.682 L 19.1083,-338.54 L 19.1644,-338.395
 L 19.2133,-338.247 L 19.2549,-338.096 L 19.289,-337.944 L 19.3156,-337.791 L 19.3347,-337.636 L 19.3462,-337.481
 L 19.35,-337.325 L 19.35,-306.425 L 19.3462,-306.269 L 19.3347,-306.114 L 19.3156,-305.959 L 19.289,-305.806
 L 19.2549,-305.654 L 19.2133,-305.503 L 19.1644,-305.355 L 19.1083,-305.21 L 19.0452,-305.068 L 18.9751,-304.928
 L 18.8983,-304.793 L 18.8149,-304.661 L 18.7252,-304.534 L 18.6293,-304.411 L 18.5275,-304.293 L 18.4201,-304.18
 L 18.3072,-304.072 L 18.1892,-303.971 L 18.0663,-303.875 L 17.9389,-303.785 L 17.8073,-303.702 L 17.6717,-303.625
 L 17.5325,-303.555 L 17.39,-303.492 L 17.2446,-303.436 L 17.0966,-303.387 L 16.9465,-303.345 L 16.7944,-303.311
 L 16.6409,-303.284 L 16.4862,-303.265 L 16.3308,-303.254 L 16.175,-303.25 z
M 16.0192,-253.004 L 15.8638,-253.015 L 15.7091,-253.034 L 15.5556,-253.061 L 15.4035,-253.095 L 15.2533,-253.137
 L 15.1054,-253.186 L 14.96,-253.242 L 14.8175,-253.305 L 14.6783,-253.375 L 14.5427,-253.452 L 14.4111,-253.535
 L 14.2836,-253.625 L 14.1608,-253.721 L 14.0428,-253.822 L 13.9299,-253.93 L 13.8225,-254.043 L 13.7207,-254.161
 L 13.6248,-254.284 L 13.5351,-254.411 L 13.4517,-254.543 L 13.3749,-254.678 L 13.3048,-254.818 L 13.2417,-254.96
 L 13.1856,-255.105 L 13.1367,-255.253 L 13.0952,-255.404 L 13.061,-255.556 L 13.0344,-255.709 L 13.0153,-255.864
 L 13.0038,-256.019 L 13,-256.175 L 13,-287.075 L 13.0038,-287.231 L 13.0153,-287.386 L 13.0344,-287.541
 L 13.061,-287.694 L 13.0952,-287.846 L 13.1367,-287.997 L 13.1856,-288.145 L 13.2417,-288.29 L 13.3048,-288.432
 L 13.3749,-288.572 L 13.4517,-288.707 L 13.5351,-288.839 L 13.6248,-288.966 L 13.7207,-289.089 L 13.8225,-289.207
 L 13.9299,-289.32 L 14.0428,-289.427 L 14.1608,-289.529 L 14.2836,-289.625 L 14.4111,-289.715 L 14.5427,-289.798
 L 14.6783,-289.875 L 14.8175,-289.945 L 14.96,-290.008 L 15.1054,-290.064 L 15.2533,-290.113 L 15.4035,-290.155
 L 15.5556,-290.189 L 15.7091,-290.216 L 15.8638,-290.235 L 16.0192,-290.246 L 16.175,-290.25 L 16.3308,-290.246
 L 16.4862,-290.235 L 16.6409,-290.216 L 16.7944,-290.189 L 16.9465,-290.155 L 17.0966,-290.113 L 17.2446,-290.064
 L 17.39,-290.008 L 17.5325,-289.945 L 17.6717,-289.875 L 17.8073,-289.798 L 17.9389,-289.715 L 18.0663,-289.625
 L 18.1892,-289.529 L 18.3072,-289.427 L 18.4201,-289.32 L 18.5275,-289.207 L 18.6293,-289.089 L 18.7252,-288.966
 L 18.8149,-288.839 L 18.8983,-288.707 L 18.9751,-288.572 L 19.0452,-288.432 L 19.1083,-288.29 L 19.1644,-288.145
 L 19.2133,-287.997 L 19.2549,-287.846 L 19.289,-287.694 L 19.3156,-287.541 L 19.3347,-287.386 L 19.3462,-287.231
 L 19.35,-287.075 L 19.35,-256.175 L 19.3462,-256.019 L 19.3347,-255.864 L 19.3156,-255.709 L 19.289,-255.556
 L 19.2549,-255.404 L 19.2133,-255.253 L 19.1644,-255.105 L 19.1083,-254.96 L 19.0452,-254.818 L 18.9751,-254.678
 L 18.8983,-254.543 L 18.8149,-254.411 L 18.7252,-254.284 L 18.6293,-254.161 L 18.5275,-254.043 L 18.4201,-253.93
 L 18.3072,-253.822 L 18.1892,-253.721 L 18.0663,-253.625 L 17.9389,-253.535 L 17.8073,-253.452 L 17.6717,-253.375
 L 17.5325,-253.305 L 17.39,-253.242 L 17.2446,-253.186 L 17.0966,-253.137 L 16.9465,-253.095 L 16.7944,-253.061
 L 16.6409,-253.034 L 16.4862,-253.015 L 16.3308,-253.004 L 16.175,-253 z
M 463.669,-253.004 L 463.514,-253.015 L 463.359,-253.034 L 463.206,-253.061 L 463.054,-253.095 L 462.903,-253.137
 L 462.755,-253.186 L 462.61,-253.242 L 462.467,-253.305 L 462.328,-253.375 L 462.193,-253.452 L 462.061,-253.535
 L 461.934,-253.625 L 461.811,-253.721 L 461.693,-253.822 L 461.58,-253.93 L 461.472,-254.043 L 461.371,-254.161
 L 461.275,-254.284 L 461.185,-254.411 L 461.102,-254.543 L 461.025,-254.678 L 460.955,-254.818 L 460.892,-254.96
 L 460.836,-255.105 L 460.787,-255.253 L 460.745,-255.404 L 460.711,-255.556 L 460.684,-255.709 L 460.665,-255.864
 L 460.654,-256.019 L 460.65,-256.175 L 460.65,-287.075 L 460.654,-287.231 L 460.665,-287.386 L 460.684,-287.541
 L 460.711,-287.694 L 460.745,-287.846 L 460.787,-287.997 L 460.836,-288.145 L 460.892,-288.29 L 460.955,-288.432
 L 461.025,-288.572 L 461.102,-288.707 L 461.185,-288.839 L 461.275,-288.966 L 461.371,-289.089 L 461.472,-289.207
 L 461.58,-289.32 L 461.693,-289.427 L 461.811,-289.529 L 461.934,-289.625 L 462.061,-289.715 L 462.193,-289.798
 L 462.328,-289.875 L 462.467,-289.945 L 462.61,-290.008 L 462.755,-290.064 L 462.903,-290.113 L 463.054,-290.155
 L 463.206,-290.189 L 463.359,-290.216 L 463.514,-290.235 L 463.669,-290.246 L 463.825,-290.25 L 463.981,-290.246
 L 464.136,-290.235 L 464.291,-290.216 L 464.444,-290.189 L 464.596,-290.155 L 464.747,-290.113 L 464.895,-290.064
 L 465.04,-290.008 L 465.182,-289.945 L 465.322,-289.875 L 465.457,-289.798 L 465.589,-289.715 L 465.716,-289.625
 L 465.839,-289.529 L 465.957,-289.427 L 466.07,-289.32 L 466.178,-289.207 L 466.279,-289.089 L 466.375,-288.966
 L 466.465,-288.839 L 466.548,-288.707 L 466.625,-288.572 L 466.695,-288.432 L 466.758,-288.29 L 466.814,-288.145
 L 466.863,-287.997 L 466.905,-287.846 L 466.939,-287.694 L 466.966,-287.541 L 466.985,-287.386 L 466.996,-287.231
 L 467,-287.075 L 467,-256.175 L 466.996,-256.019 L 466.985,-255.864 L 466.966,-255.709 L 466.939,-255.556
 L 466.905,-255.404 L 466.863,-255.253 L 466.814,-255.105 L 466.758,-254.96 L 466.695,-254.818 L 466.625,-254.678
 L 466.548,-254.543 L 466.465,-254.411 L 466.375,-254.284 L 466.279,-254.161 L 466.178,-254.043 L 466.07,-253.93
 L 465.957,-253.822 L 465.839,-253.721 L 465.716,-253.625 L 465.589,-253.535 L 465.457,-253.452 L 465.322,-253.375
 L 465.182,-253.305 L 465.04,-253.242 L 464.895,-253.186 L 464.747,-253.137 L 464.596,-253.095 L 464.444,-253.061
 L 464.291,-253.034 L 464.136,-253.015 L 463.981,-253.004 L 463.825,-253 z
M 16.0192,-202.754 L 15.8638,-202.765 L 15.7091,-202.784 L 15.5556,-202.811 L 15.4035,-202.845 L 15.2533,-202.887
 L 15.1054,-202.936 L 14.96,-202.992 L 14.8175,-203.055 L 14.6783,-203.125 L 14.5427,-203.202 L 14.4111,-203.285
 L 14.2836,-203.375 L 14.1608,-203.471 L 14.0428,-203.572 L 13.9299,-203.68 L 13.8225,-203.793 L 13.7207,-203.911
 L 13.6248,-204.034 L 13.5351,-204.161 L 13.4517,-204.293 L 13.3749,-204.428 L 13.3048,-204.568 L 13.2417,-204.71
 L 13.1856,-204.855 L 13.1367,-205.003 L 13.0952,-205.154 L 13.061,-205.306 L 13.0344,-205.459 L 13.0153,-205.614
 L 13.0038,-205.769 L 13,-205.925 L 13,-236.825 L 13.0038,-236.981 L 13.0153,-237.136 L 13.0344,-237.291
 L 13.061,-237.444 L 13.0952,-237.596 L 13.1367,-237.747 L 13.1856,-237.895 L 13.2417,-238.04 L 13.3048,-238.182
 L 13.3749,-238.322 L 13.4517,-238.457 L 13.5351,-238.589 L 13.6248,-238.716 L 13.7207,-238.839 L 13.8225,-238.957
 L 13.9299,-239.07 L 14.0428,-239.178 L 14.1608,-239.279 L 14.2836,-239.375 L 14.4111,-239.465 L 14.5427,-239.548
 L 14.6783,-239.625 L 14.8175,-239.695 L 14.96,-239.758 L 15.1054,-239.814 L 15.2533,-239.863 L 15.4035,-239.905
 L 15.5556,-239.939 L 15.7091,-239.966 L 15.8638,-239.985 L 16.0192,-239.996 L 16.175,-240 L 16.3308,-239.996
 L 16.4862,-239.985 L 16.6409,-239.966 L 16.7944,-239.939 L 16.9465,-239.905 L 17.0966,-239.863 L 17.2446,-239.814
 L 17.39,-239.758 L 17.5325,-239.695 L 17.6717,-239.625 L 17.8073,-239.548 L 17.9389,-239.465 L 18.0663,-239.375
 L 18.1892,-239.279 L 18.3072,-239.178 L 18.4201,-239.07 L 18.5275,-238.957 L 18.6293,-238.839 L 18.7252,-238.716
 L 18.8149,-238.589 L 18.8983,-238.457 L 18.9751,-238.322 L 19.0452,-238.182 L 19.1083,-238.04 L 19.1644,-237.895
 L 19.2133,-237.747 L 19.2549,-237.596 L 19.289,-237.444 L 19.3156,-237.291 L 19.3347,-237.136 L 19.3462,-236.981
 L 19.35,-236.825 L 19.35,-205.925 L 19.3462,-205.769 L 19.3347,-205.614 L 19.3156,-205.459 L 19.289,-205.306
 L 19.2549,-205.154 L 19.2133,-205.003 L 19.1644,-204.855 L 19.1083,-204.71 L 19.0452,-204.568 L 18.9751,-204.428
 L 18.8983,-204.293 L 18.8149,-204.161 L 18.7252,-204.034 L 18.6293,-203.911 L 18.5275,-203.793 L 18.4201,-203.68
 L 18.3072,-203.572 L 18.1892,-203.471 L 18.0663,-203.375 L 17.9389,-203.285 L 17.8073,-203.202 L 17.6717,-203.125
 L 17.5325,-203.055 L 17.39,-202.992 L 17.2446,-202.936 L 17.0966,-202.887 L 16.9465,-202.845 L 16.7944,-202.811
 L 16.6409,-202.784 L 16.4862,-202.765 L 16.3308,-202.754 L 16.175,-202.75 z
M 463.669,-202.754 L 463.514,-202.765 L 463.359,-202.784 L 463.206,-202.811 L 463.054,-202.845 L 462.903,-202.887
 L 462.755,-202.936 L 462.61,-202.992 L 462.467,-203.055 L 462.328,-203.125 L 462.193,-203.202 L 462.061,-203.285
 L 461.934,-203.375 L 461.811,-203.471 L 461.693,-203.572 L 461.58,-203.68 L 461.472,-203.793 L 461.371,-203.911
 L 461.275,-204.034 L 461.185,-204.161 L 461.102,-204.293 L 461.025,-204.428 L 460.955,-204.568 L 460.892,-204.71
 L 460.836,-204.855 L 460.787,-205.003 L 460.745,-205.154 L 460.711,-205.306 L 460.684,-205.459 L 460.665,-205.614
 L 460.654,-205.769 L 460.65,-205.925 L 460.65,-236.825 L 460.654,-236.981 L 460.665,-237.136 L 460.684,-237.291
 L 460.711,-237.444 L 460.745,-237.596 L 460.787,-237.747 L 460.836,-237.895 L 460.892,-238.04 L 460.955,-238.182
 L 461.025,-238.322 L 461.102,-238.457 L 461.185,-238.589 L 461.275,-238.716 L 461.371,-238.839 L 461.472,-238.957
 L 461.58,-239.07 L 461.693,-239.178 L 461.811,-239.279 L 461.934,-239.375 L 462.061,-239.465 L 462.193,-239.548
 L 462.328,-239.625 L 462.467,-239.695 L 462.61,-239.758 L 462.755,-239.814 L 462.903,-239.863 L 463.054,-239.905
 L 463.206,-239.939 L 463.359,-239.966 L 463.514,-239.985 L 463.669,-239.996 L 463.825,-240 L 463.981,-239.996
 L 464.136,-239.985 L 464.291,-239.966 L 464.444,-239.939 L 464.596,-239.905 L 464.747,-239.863 L 464.895,-239.814
 L 465.04,-239.758 L 465.182,-239.695 L 465.322,-239.625 L 465.457,-239.548 L 465.589,-239.465 L 465.716,-239.375
 L 465.839,-239.279 L 465.957,-239.178 L 466.07,-239.07 L 466.178,-238.957 L 466.279,-238.839 L 466.375,-238.716
 L 466.465,-238.589 L 466.548,-238.457 L 466.625,-238.322 L 466.695,-238.182 L 466.758,-238.04 L 466.814,-237.895
 L 466.863,-237.747 L 466.905,-237.596 L 466.939,-237.444 L 466.966,-237.291 L 466.985,-237.136 L 466.996,-236.981
 L 467,-236.825 L 467,-205.925 L 466.996,-205.769 L 466.985,-205.614 L 466.966,-205.459 L 466.939,-205.306
 L 466.905,-205.154 L 466.863,-205.003 L 466.814,-204.855 L 466.758,-204.71 L 466.695,-204.568 L 466.625,-204.428
 L 466.548,-204.293 L 466.465,-204.161 L 466.375,-204.034 L 466.279,-203.911 L 466.178,-203.793 L 466.07,-203.68
 L 465.957,-203.572 L 465.839,-203.471 L 465.716,-203.375 L 465.589,-203.285 L 465.457,-203.202 L 465.322,-203.125
 L 465.182,-203.055 L 465.04,-202.992 L 464.895,-202.936 L 464.747,-202.887 L 464.596,-202.845 L 464.444,-202.811
 L 464.291,-202.784 L 464.136,-202.765 L 463.981,-202.754 L 463.825,-202.75 z
M 463.669,-152.504 L 463.514,-152.515 L 463.359,-152.534 L 463.206,-152.561 L 463.054,-152.595 L 462.903,-152.637
 L 462.755,-152.686 L 462.61,-152.742 L 462.467,-152.805 L 462.328,-152.875 L 462.193,-152.952 L 462.061,-153.035
 L 461.934,-153.125 L 461.811,-153.221 L 461.693,-153.322 L 461.58,-153.43 L 461.472,-153.543 L 461.371,-153.661
 L 461.275,-153.784 L 461.185,-153.911 L 461.102,-154.043 L 461.025,-154.178 L 460.955,-154.318 L 460.892,-154.46
 L 460.836,-154.605 L 460.787,-154.753 L 460.745,-154.904 L 460.711,-155.056 L 460.684,-155.209 L 460.665,-155.364
 L 460.654,-155.519 L 460.65,-155.675 L 460.65,-186.575 L 460.654,-186.731 L 460.665,-186.886 L 460.684,-187.041
 L 460.711,-187.194 L 460.745,-187.346 L 460.787,-187.497 L 460.836,-187.645 L 460.892,-187.79 L 460.955,-187.932
 L 461.025,-188.072 L 461.102,-188.207 L 461.185,-188.339 L 461.275,-188.466 L 461.371,-188.589 L 461.472,-188.707
 L 461.58,-188.82 L 461.693,-188.928 L 461.811,-189.029 L 461.934,-189.125 L 462.061,-189.215 L 462.193,-189.298
 L 462.328,-189.375 L 462.467,-189.445 L 462.61,-189.508 L 462.755,-189.564 L 462.903,-189.613 L 463.054,-189.655
 L 463.206,-189.689 L 463.359,-189.716 L 463.514,-189.735 L 463.669,-189.746 L 463.825,-189.75 L 463.981,-189.746
 L 464.136,-189.735 L 464.291,-189.716 L 464.444,-189.689 L 464.596,-189.655 L 464.747,-189.613 L 464.895,-189.564
 L 465.04,-189.508 L 465.182,-189.445 L 465.322,-189.375 L 465.457,-189.298 L 465.589,-189.215 L 465.716,-189.125
 L 465.839,-189.029 L 465.957,-188.928 L 466.07,-188.82 L 466.178,-188.707 L 466.279,-188.589 L 466.375,-188.466
 L 466.465,-188.339 L 466.548,-188.207 L 466.625,-188.072 L 466.695,-187.932 L 466.758,-187.79 L 466.814,-187.645
 L 466.863,-187.497 L 466.905,-187.346 L 466.939,-187.194 L 466.966,-187.041 L 466.985,-186.886 L 466.996,-186.731
 L 467,-186.575 L 467,-155.675 L 466.996,-155.519 L 466.985,-155.364 L 466.966,-155.209 L 466.939,-155.056
 L 466.905,-154.904 L 466.863,-154.753 L 466.814,-154.605 L 466.758,-154.46 L 466.695,-154.318 L 466.625,-154.178
 L 466.548,-154.043 L 466.465,-153.911 L 466.375,-153.784 L 466.279,-153.661 L 466.178,-153.543 L 466.07,-153.43
 L 465.957,-153.322 L 465.839,-153.221 L 465.716,-153.125 L 465.589,-153.035 L 465.457,-152.952 L 465.322,-152.875
 L 465.182,-152.805 L 465.04,-152.742 L 464.895,-152.686 L 464.747,-152.637 L 464.596,-152.595 L 464.444,-152.561
 L 464.291,-152.534 L 464.136,-152.515 L 463.981,-152.504 L 463.825,-152.5 z
M 16.0192,-152.504 L 15.8638,-152.515 L 15.7091,-152.534 L 15.5556,-152.561 L 15.4035,-152.595 L 15.2533,-152.637
 L 15.1054,-152.686 L 14.96,-152.742 L 14.8175,-152.805 L 14.6783,-152.875 L 14.5427,-152.952 L 14.4111,-153.035
 L 14.2836,-153.125 L 14.1608,-153.221 L 14.0428,-153.322 L 13.9299,-153.43 L 13.8225,-153.543 L 13.7207,-153.661
 L 13.6248,-153.784 L 13.5351,-153.911 L 13.4517,-154.043 L 13.3749,-154.178 L 13.3048,-154.318 L 13.2417,-154.46
 L 13.1856,-154.605 L 13.1367,-154.753 L 13.0952,-154.904 L 13.061,-155.056 L 13.0344,-155.209 L 13.0153,-155.364
 L 13.0038,-155.519 L 13,-155.675 L 13,-186.575 L 13.0038,-186.731 L 13.0153,-186.886 L 13.0344,-187.041
 L 13.061,-187.194 L 13.0952,-187.346 L 13.1367,-187.497 L 13.1856,-187.645 L 13.2417,-187.79 L 13.3048,-187.932
 L 13.3749,-188.072 L 13.4517,-188.207 L 13.5351,-188.339 L 13.6248,-188.466 L 13.7207,-188.589 L 13.8225,-188.707
 L 13.9299,-188.82 L 14.0428,-188.928 L 14.1608,-189.029 L 14.2836,-189.125 L 14.4111,-189.215 L 14.5427,-189.298
 L 14.6783,-189.375 L 14.8175,-189.445 L 14.96,-189.508 L 15.1054,-189.564 L 15.2533,-189.613 L 15.4035,-189.655
 L 15.5556,-189.689 L 15.7091,-189.716 L 15.8638,-189.735 L 16.0192,-189.746 L 16.175,-189.75 L 16.3308,-189.746
 L 16.4862,-189.735 L 16.6409,-189.716 L 16.7944,-189.689 L 16.9465,-189.655 L 17.0966,-189.613 L 17.2446,-189.564
 L 17.39,-189.508 L 17.5325,-189.445 L 17.6717,-189.375 L 17.8073,-189.298 L 17.9389,-189.215 L 18.0663,-189.125
 L 18.1892,-189.029 L 18.3072,-188.928 L 18.4201,-188.82 L 18.5275,-188.707 L 18.6293,-188.589 L 18.7252,-188.466
 L 18.8149,-188.339 L 18.8983,-188.207 L 18.9751,-188.072 L 19.0452,-187.932 L 19.1083,-187.79 L 19.1644,-187.645
 L 19.2133,-187.497 L 19.2549,-187.346 L 19.289,-187.194 L 19.3156,-187.041 L 19.3347,-186.886 L 19.3462,-186.731
 L 19.35,-186.575 L 19.35,-155.675 L 19.3462,-155.519 L 19.3347,-155.364 L 19.3156,-155.209 L 19.289,-155.056
 L 19.2549,-154.904 L 19.2133,-154.753 L 19.1644,-154.605 L 19.1083,-154.46 L 19.0452,-154.318 L 18.9751,-154.178
 L 18.8983,-154.043 L 18.8149,-153.911 L 18.7252,-153.784 L 18.6293,-153.661 L 18.5275,-153.543 L 18.4201,-153.43
 L 18.3072,-153.322 L 18.1892,-153.221 L 18.0663,-153.125 L 17.9389,-153.035 L 17.8073,-152.952 L 17.6717,-152.875
 L 17.5325,-152.805 L 17.39,-152.742 L 17.2446,-152.686 L 17.0966,-152.637 L 16.9465,-152.595 L 16.7944,-152.561
 L 16.6409,-152.534 L 16.4862,-152.515 L 16.3308,-152.504 L 16.175,-152.5 z
M 463.669,-102.254 L 463.514,-102.265 L 463.359,-102.284 L 463.206,-102.311 L 463.054,-102.345 L 462.903,-102.387
 L 462.755,-102.436 L 462.61,-102.492 L 462.467,-102.555 L 462.328,-102.625 L 462.193,-102.702 L 462.061,-102.785
 L 461.934,-102.875 L 461.811,-102.971 L 461.693,-103.072 L 461.58,-103.18 L 461.472,-103.293 L 461.371,-103.411
 L 461.275,-103.534 L 461.185,-103.661 L 461.102,-103.793 L 461.025,-103.928 L 460.955,-104.068 L 460.892,-104.21
 L 460.836,-104.355 L 460.787,-104.503 L 460.745,-104.654 L 460.711,-104.806 L 460.684,-104.959 L 460.665,-105.114
 L 460.654,-105.269 L 460.65,-105.425 L 460.65,-136.325 L 460.654,-136.481 L 460.665,-136.636 L 460.684,-136.791
 L 460.711,-136.944 L 460.745,-137.096 L 460.787,-137.247 L 460.836,-137.395 L 460.892,-137.54 L 460.955,-137.682
 L 461.025,-137.822 L 461.102,-137.957 L 461.185,-138.089 L 461.275,-138.216 L 461.371,-138.339 L 461.472,-138.457
 L 461.58,-138.57 L 461.693,-138.678 L 461.811,-138.779 L 461.934,-138.875 L 462.061,-138.965 L 462.193,-139.048
 L 462.328,-139.125 L 462.467,-139.195 L 462.61,-139.258 L 462.755,-139.314 L 462.903,-139.363 L 463.054,-139.405
 L 463.206,-139.439 L 463.359,-139.466 L 463.514,-139.485 L 463.669,-139.496 L 463.825,-139.5 L 463.981,-139.496
 L 464.136,-139.485 L 464.291,-139.466 L 464.444,-139.439 L 464.596,-139.405 L 464.747,-139.363 L 464.895,-139.314
 L 465.04,-139.258 L 465.182,-139.195 L 465.322,-139.125 L 465.457,-139.048 L 465.589,-138.965 L 465.716,-138.875
 L 465.839,-138.779 L 465.957,-138.678 L 466.07,-138.57 L 466.178,-138.457 L 466.279,-138.339 L 466.375,-138.216
 L 466.465,-138.089 L 466.548,-137.957 L 466.625,-137.822 L 466.695,-137.682 L 466.758,-137.54 L 466.814,-137.395
 L 466.863,-137.247 L 466.905,-137.096 L 466.939,-136.944 L 466.966,-136.791 L 466.985,-136.636 L 466.996,-136.481
 L 467,-136.325 L 467,-105.425 L 466.996,-105.269 L 466.985,-105.114 L 466.966,-104.959 L 466.939,-104.806
 L 466.905,-104.654 L 466.863,-104.503 L 466.814,-104.355 L 466.758,-104.21 L 466.695,-104.068 L 466.625,-103.928
 L 466.548,-103.793 L 466.465,-103.661 L 466.375,-103.534 L 466.279,-103.411 L 466.178,-103.293 L 466.07,-103.18
 L 465.957,-103.072 L 465.839,-102.971 L 465.716,-102.875 L 465.589,-102.785 L 465.457,-102.702 L 465.322,-102.625
 L 465.182,-102.555 L 465.04,-102.492 L 464.895,-102.436 L 464.747,-102.387 L 464.596,-102.345 L 464.444,-102.311
 L 464.291,-102.284 L 464.136,-102.265 L 463.981,-102.254 L 463.825,-102.25 z
M 16.0192,-102.254 L 15.8638,-102.265 L 15.7091,-102.284 L 15.5556,-102.311 L 15.4035,-102.345 L 15.2533,-102.387
 L 15.1054,-102.436 L 14.96,-102.492 L 14.8175,-102.555 L 14.6783,-102.625 L 14.5427,-102.702 L 14.4111,-102.785
 L 14.2836,-102.875 L 14.1608,-102.971 L 14.0428,-103.072 L 13.9299,-103.18 L 13.8225,-103.293 L 13.7207,-103.411
 L 13.6248,-103.534 L 13.5351,-103.661 L 13.4517,-103.793 L 13.3749,-103.928 L 13.3048,-104.068 L 13.2417,-104.21
 L 13.1856,-104.355 L 13.1367,-104.503 L 13.0952,-104.654 L 13.061,-104.806 L 13.0344,-104.959 L 13.0153,-105.114
 L 13.0038,-105.269 L 13,-105.425 L 13,-136.325 L 13.0038,-136.481 L 13.0153,-136.636 L 13.0344,-136.791
 L 13.061,-136.944 L 13.0952,-137.096 L 13.1367,-137.247 L 13.1856,-137.395 L 13.2417,-137.54 L 13.3048,-137.682
 L 13.3749,-137.822 L 13.4517,-137.957 L 13.5351,-138.089 L 13.6248,-138.216 L 13.7207,-138.339 L 13.8225,-138.457
 L 13.9299,-138.57 L 14.0428,-138.678 L 14.1608,-138.779 L 14.2836,-138.875 L 14.4111,-138.965 L 14.5427,-139.048
 L 14.6783,-139.125 L 14.8175,-139.195 L 14.96,-139.258 L 15.1054,-139.314 L 15.2533,-139.363 L 15.4035,-139.405
 L 15.5556,-139.439 L 15.7091,-139.466 L 15.8638,-139.485 L 16.0192,-139.496 L 16.175,-139.5 L 16.3308,-139.496
 L 16.4862,-139.485 L 16.6409,-139.466 L 16.7944,-139.439 L 16.9465,-139.405 L 17.0966,-139.363 L 17.2446,-139.314
 L 17.39,-139.258 L 17.5325,-139.195 L 17.6717,-139.125 L 17.8073,-139.048 L 17.9389,-138.965 L 18.0663,-138.875
 L 18.1892,-138.779 L 18.3072,-138.678 L 18.4201,-138.57 L 18.5275,-138.457 L 18.6293,-138.339 L 18.7252,-138.216
 L 18.8149,-138.089 L 18.8983,-137.957 L 18.9751,-137.822 L 19.0452,-137.682 L 19.1083,-137.54 L 19.1644,-137.395
 L 19.2133,-137.247 L 19.2549,-137.096 L 19.289,-136.944 L 19.3156,-136.791 L 19.3347,-136.636 L 19.3462,-136.481
 L 19.35,-136.325 L 19.35,-105.425 L 19.3462,-105.269 L 19.3347,-105.114 L 19.3156,-104.959 L 19.289,-104.806
 L 19.2549,-104.654 L 19.2133,-104.503 L 19.1644,-104.355 L 19.1083,-104.21 L 19.0452,-104.068 L 18.9751,-103.928
 L 18.8983,-103.793 L 18.8149,-103.661 L 18.7252,-103.534 L 18.6293,-103.411 L 18.5275,-103.293 L 18.4201,-103.18
 L 18.3072,-103.072 L 18.1892,-102.971 L 18.0663,-102.875 L 17.9389,-102.785 L 17.8073,-102.702 L 17.6717,-102.625
 L 17.5325,-102.555 L 17.39,-102.492 L 17.2446,-102.436 L 17.0966,-102.387 L 16.9465,-102.345 L 16.7944,-102.311
 L 16.6409,-102.284 L 16.4862,-102.265 L 16.3308,-102.254 L 16.175,-102.25 z
M 16.0192,-52.0038 L 15.8638,-52.0153 L 15.7091,-52.0344 L 15.5556,-52.061 L 15.4035,-52.0951 L 15.2533,-52.1367
 L 15.1054,-52.1856 L 14.96,-52.2417 L 14.8175,-52.3048 L 14.6783,-52.3749 L 14.5427,-52.4517 L 14.4111,-52.5351
 L 14.2836,-52.6248 L 14.1608,-52.7207 L 14.0428,-52.8225 L 13.9299,-52.9299 L 13.8225,-53.0428 L 13.7207,-53.1608
 L 13.6248,-53.2836 L 13.5351,-53.4111 L 13.4517,-53.5427 L 13.3749,-53.6783 L 13.3048,-53.8175 L 13.2417,-53.96
 L 13.1856,-54.1054 L 13.1367,-54.2533 L 13.0952,-54.4035 L 13.061,-54.5556 L 13.0344,-54.7091 L 13.0153,-54.8638
 L 13.0038,-55.0192 L 13,-55.175 L 13,-86.075 L 13.0038,-86.2308 L 13.0153,-86.3862 L 13.0344,-86.5409
 L 13.061,-86.6944 L 13.0952,-86.8465 L 13.1367,-86.9966 L 13.1856,-87.1446 L 13.2417,-87.29 L 13.3048,-87.4325
 L 13.3749,-87.5717 L 13.4517,-87.7073 L 13.5351,-87.8389 L 13.6248,-87.9663 L 13.7207,-88.0892 L 13.8225,-88.2072
 L 13.9299,-88.3201 L 14.0428,-88.4275 L 14.1608,-88.5293 L 14.2836,-88.6252 L 14.4111,-88.7149 L 14.5427,-88.7983
 L 14.6783,-88.8751 L 14.8175,-88.9452 L 14.96,-89.0083 L 15.1054,-89.0644 L 15.2533,-89.1133 L 15.4035,-89.1548
 L 15.5556,-89.189 L 15.7091,-89.2156 L 15.8638,-89.2347 L 16.0192,-89.2462 L 16.175,-89.25 L 16.3308,-89.2462
 L 16.4862,-89.2347 L 16.6409,-89.2156 L 16.7944,-89.189 L 16.9465,-89.1548 L 17.0966,-89.1133 L 17.2446,-89.0644
 L 17.39,-89.0083 L 17.5325,-88.9452 L 17.6717,-88.8751 L 17.8073,-88.7983 L 17.9389,-88.7149 L 18.0663,-88.6252
 L 18.1892,-88.5293 L 18.3072,-88.4275 L 18.4201,-88.3201 L 18.5275,-88.2072 L 18.6293,-88.0892 L 18.7252,-87.9663
 L 18.8149,-87.8389 L 18.8983,-87.7073 L 18.9751,-87.5717 L 19.0452,-87.4325 L 19.1083,-87.29 L 19.1644,-87.1446
 L 19.2133,-86.9966 L 19.2549,-86.8465 L 19.289,-86.6944 L 19.3156,-86.5409 L 19.3347,-86.3862 L 19.3462,-86.2308
 L 19.35,-86.075 L 19.35,-55.175 L 19.3462,-55.0192 L 19.3347,-54.8638 L 19.3156,-54.7091 L 19.289,-54.5556
 L 19.2549,-54.4035 L 19.2133,-54.2533 L 19.1644,-54.1054 L 19.1083,-53.96 L 19.0452,-53.8175 L 18.9751,-53.6783
 L 18.8983,-53.5427 L 18.8149,-53.4111 L 18.7252,-53.2836 L 18.6293,-53.1608 L 18.5275,-53.0428 L 18.4201,-52.9299
 L 18.3072,-52.8225 L 18.1892,-52.7207 L 18.0663,-52.6248 L 17.9389,-52.5351 L 17.8073,-52.4517 L 17.6717,-52.3749
 L 17.5325,-52.3048 L 17.39,-52.2417 L 17.2446,-52.1856 L 17.0966,-52.1367 L 16.9465,-52.0951 L 16.7944,-52.061
 L 16.6409,-52.0344 L 16.4862,-52.0153 L 16.3308,-52.0038 L 16.175,-52 z
M 463.669,-52.0038 L 463.514,-52.0153 L 463.359,-52.0344 L 463.206,-52.061 L 463.054,-52.0951 L 462.903,-52.1367
 L 462.755,-52.1856 L 462.61,-52.2417 L 462.467,-52.3048 L 462.328,-52.3749 L 462.193,-52.4517 L 462.061,-52.5351
 L 461.934,-52.6248 L 461.811,-52.7207 L 461.693,-52.8225 L 461.58,-52.9299 L 461.472,-53.0428 L 461.371,-53.1608
 L 461.275,-53.2836 L 461.185,-53.4111 L 461.102,-53.5427 L 461.025,-53.6783 L 460.955,-53.8175 L 460.892,-53.96
 L 460.836,-54.1054 L 460.787,-54.2533 L 460.745,-54.4035 L 460.711,-54.5556 L 460.684,-54.7091 L 460.665,-54.8638
 L 460.654,-55.0192 L 460.65,-55.175 L 460.65,-86.075 L 460.654,-86.2308 L 460.665,-86.3862 L 460.684,-86.5409
 L 460.711,-86.6944 L 460.745,-86.8465 L 460.787,-86.9966 L 460.836,-87.1446 L 460.892,-87.29 L 460.955,-87.4325
 L 461.025,-87.5717 L 461.102,-87.7073 L 461.185,-87.8389 L 461.275,-87.9663 L 461.371,-88.0892 L 461.472,-88.2072
 L 461.58,-88.3201 L 461.693,-88.4275 L 461.811,-88.5293 L 461.934,-88.6252 L 462.061,-88.7149 L 462.193,-88.7983
 L 462.328,-88.8751 L 462.467,-88.9452 L 462.61,-89.0083 L 462.755,-89.0644 L 462.903,-89.1133 L 463.054,-89.1548
 L 463.206,-89.189 L 463.359,-89.2156 L 463.514,-89.2347 L 463.669,-89.2462 L 463.825,-89.25 L 463.981,-89.2462
 L 464.136,-89.2347 L 464.291,-89.2156 L 464.444,-89.189 L 464.596,-89.1548 L 464.747,-89.1133 L 464.895,-89.0644
 L 465.04,-89.0083 L 465.182,-88.9452 L 465.322,-88.8751 L 465.457,-88.7983 L 465.589,-88.7149 L 465.716,-88.6252
 L 465.839,-88.5293 L 465.957,-88.4275 L 466.07,-88.3201 L 466.178,-88.2072 L 466.279,-88.0892 L 466.375,-87.9663
 L 466.465,-87.8389 L 466.548,-87.7073 L 466.625,-87.5717 L 466.695,-87.4325 L 466.758,-87.29 L 466.814,-87.1446
 L 466.863,-86.9966 L 466.905,-86.8465 L 466.939,-86.6944 L 466.966,-86.5409 L 466.985,-86.3862 L 466.996,-86.2308
 L 467,-86.075 L 467,-55.175 L 466.996,-55.0192 L 466.985,-54.8638 L 466.966,-54.7091 L 466.939,-54.5556
 L 466.905,-54.4035 L 466.863,-54.2533 L 466.814,-54.1054 L 466.758,-53.96 L 466.695,-53.8175 L 466.625,-53.6783
 L 466.548,-53.5427 L 466.465,-53.4111 L 466.375,-53.2836 L 466.279,-53.1608 L 466.178,-53.0428 L 466.07,-52.9299
 L 465.957,-52.8225 L 465.839,-52.7207 L 465.716,-52.6248 L 465.589,-52.5351 L 465.457,-52.4517 L 465.322,-52.3749
 L 465.182,-52.3048 L 465.04,-52.2417 L 464.895,-52.1856 L 464.747,-52.1367 L 464.596,-52.0951 L 464.444,-52.061
 L 464.291,-52.0344 L 464.136,-52.0153 L 463.981,-52.0038 L 463.825,-52 z
M 74.55,-26 L 74.3942,-26.0038 L 74.2388,-26.0153 L 74.0841,-26.0344 L 73.9306,-26.061 L 73.7785,-26.0951
 L 73.6283,-26.1367 L 73.4804,-26.1856 L 73.335,-26.2417 L 73.1925,-26.3048 L 73.0533,-26.3749 L 72.9177,-26.4517
 L 72.7861,-26.5351 L 72.6586,-26.6248 L 72.5358,-26.7207 L 72.4178,-26.8225 L 72.3049,-26.9299 L 72.1975,-27.0428
 L 72.0957,-27.1608 L 71.9998,-27.2836 L 71.9101,-27.4111 L 71.8267,-27.5427 L 71.7499,-27.6783 L 71.6798,-27.8175
 L 71.6167,-27.96 L 71.5606,-28.1054 L 71.5117,-28.2533 L 71.4701,-28.4035 L 71.436,-28.5556 L 71.4094,-28.7091
 L 71.3903,-28.8638 L 71.3788,-29.0192 L 71.375,-29.175 L 71.3788,-29.3308 L 71.3903,-29.4862 L 71.4094,-29.6409
 L 71.436,-29.7944 L 71.4701,-29.9465 L 71.5117,-30.0966 L 71.5606,-30.2446 L 71.6167,-30.39 L 71.6798,-30.5325
 L 71.7499,-30.6717 L 71.8267,-30.8073 L 71.9101,-30.9389 L 71.9998,-31.0663 L 72.0957,-31.1892 L 72.1975,-31.3072
 L 72.3049,-31.4201 L 72.4178,-31.5275 L 72.5358,-31.6293 L 72.6586,-31.7252 L 72.7861,-31.8149 L 72.9177,-31.8983
 L 73.0533,-31.9751 L 73.1925,-32.0452 L 73.335,-32.1083 L 73.4804,-32.1644 L 73.6283,-32.2133 L 73.7785,-32.2548
 L 73.9306,-32.289 L 74.0841,-32.3156 L 74.2388,-32.3347 L 74.3942,-32.3462 L 74.55,-32.35 L 113.575,-32.35
 L 113.731,-32.3462 L 113.886,-32.3347 L 114.041,-32.3156 L 114.194,-32.289 L 114.346,-32.2548 L 114.497,-32.2133
 L 114.645,-32.1644 L 114.79,-32.1083 L 114.932,-32.0452 L 115.072,-31.9751 L 115.207,-31.8983 L 115.339,-31.8149
 L 115.466,-31.7252 L 115.589,-31.6293 L 115.707,-31.5275 L 115.82,-31.4201 L 115.928,-31.3072 L 116.029,-31.1892
 L 116.125,-31.0663 L 116.215,-30.9389 L 116.298,-30.8073 L 116.375,-30.6717 L 116.445,-30.5325 L 116.508,-30.39
 L 116.564,-30.2446 L 116.613,-30.0966 L 116.655,-29.9465 L 116.689,-29.7944 L 116.716,-29.6409 L 116.735,-29.4862
 L 116.746,-29.3308 L 116.75,-29.175 L 116.746,-29.0192 L 116.735,-28.8638 L 116.716,-28.7091 L 116.689,-28.5556
 L 116.655,-28.4035 L 116.613,-28.2533 L 116.564,-28.1054 L 116.508,-27.96 L 116.445,-27.8175 L 116.375,-27.6783
 L 116.298,-27.5427 L 116.215,-27.4111 L 116.125,-27.2836 L 116.029,-27.1608 L 115.928,-27.0428 L 115.82,-26.9299
 L 115.707,-26.8225 L 115.589,-26.7207 L 115.466,-26.6248 L 115.339,-26.5351 L 115.207,-26.4517 L 115.072,-26.3749
 L 114.932,-26.3048 L 114.79,-26.2417 L 114.645,-26.1856 L 114.497,-26.1367 L 114.346,-26.0951 L 114.194,-26.061
 L 114.041,-26.0344 L 113.886,-26.0153 L 113.731,-26.0038 L 113.575,-26 z
M 366.425,-26 L 366.269,-26.0038 L 366.114,-26.0153 L 365.959,-26.0344 L 365.806,-26.061 L 365.654,-26.0951
 L 365.503,-26.1367 L 365.355,-26.1856 L 365.21,-26.2417 L 365.068,-26.3048 L 364.928,-26.3749 L 364.793,-26.4517
 L 364.661,-26.5351 L 364.534,-26.6248 L 364.411,-26.7207 L 364.293,-26.8225 L 364.18,-26.9299 L 364.072,-27.0428
 L 363.971,-27.1608 L 363.875,-27.2836 L 363.785,-27.4111 L 363.702,-27.5427 L 363.625,-27.6783 L 363.555,-27.8175
 L 363.492,-27.96 L 363.436,-28.1054 L 363.387,-28.2533 L 363.345,-28.4035 L 363.311,-28.5556 L 363.284,-28.7091
 L 363.265,-28.8638 L 363.254,-29.0192 L 363.25,-29.175 L 363.254,-29.3308 L 363.265,-29.4862 L 363.284,-29.6409
 L 363.311,-29.7944 L 363.345,-29.9465 L 363.387,-30.0966 L 363.436,-30.2446 L 363.492,-30.39 L 363.555,-30.5325
 L 363.625,-30.6717 L 363.702,-30.8073 L 363.785,-30.9389 L 363.875,-31.0663 L 363.971,-31.1892 L 364.072,-31.3072
 L 364.18,-31.4201 L 364.293,-31.5275 L 364.411,-31.6293 L 364.534,-31.7252 L 364.661,-31.8149 L 364.793,-31.8983
 L 364.928,-31.9751 L 365.068,-32.0452 L 365.21,-32.1083 L 365.355,-32.1644 L 365.503,-32.2133 L 365.654,-32.2548
 L 365.806,-32.289 L 365.959,-32.3156 L 366.114,-32.3347 L 366.269,-32.3462 L 366.425,-32.35 L 405.45,-32.35
 L 405.606,-32.3462 L 405.761,-32.3347 L 405.916,-32.3156 L 406.069,-32.289 L 406.221,-32.2548 L 406.372,-32.2133
 L 406.52,-32.1644 L 406.665,-32.1083 L 406.807,-32.0452 L 406.947,-31.9751 L 407.082,-31.8983 L 407.214,-31.8149
 L 407.341,-31.7252 L 407.464,-31.6293 L 407.582,-31.5275 L 407.695,-31.4201 L 407.802,-31.3072 L 407.904,-31.1892
 L 408,-31.0663 L 408.09,-30.9389 L 408.173,-30.8073 L 408.25,-30.6717 L 408.32,-30.5325 L 408.383,-30.39
 L 408.439,-30.2446 L 408.488,-30.0966 L 408.53,-29.9465 L 408.564,-29.7944 L 408.591,-29.6409 L 408.61,-29.4862
 L 408.621,-29.3308 L 408.625,-29.175 L 408.621,-29.0192 L 408.61,-28.8638 L 408.591,-28.7091 L 408.564,-28.5556
 L 408.53,-28.4035 L 408.488,-28.2533 L 408.439,-28.1054 L 408.383,-27.96 L 408.32,-27.8175 L 408.25,-27.6783
 L 408.173,-27.5427 L 408.09,-27.4111 L 408,-27.2836 L 407.904,-27.1608 L 407.802,-27.0428 L 407.695,-26.9299
 L 407.582,-26.8225 L 407.464,-26.7207 L 407.341,-26.6248 L 407.214,-26.5351 L 407.082,-26.4517 L 406.947,-26.3749
 L 406.807,-26.3048 L 406.665,-26.2417 L 406.52,-26.1856 L 406.372,-26.1367 L 406.221,-26.0951 L 406.069,-26.061
 L 405.916,-26.0344 L 405.761,-26.0153 L 405.606,-26.0038 L 405.45,-26 z
M 132.925,-26 L 132.769,-26.0038 L 132.614,-26.0153 L 132.459,-26.0344 L 132.306,-26.061 L 132.154,-26.0951
 L 132.003,-26.1367 L 131.855,-26.1856 L 131.71,-26.2417 L 131.568,-26.3048 L 131.428,-26.3749 L 131.293,-26.4517
 L 131.161,-26.5351 L 131.034,-26.6248 L 130.911,-26.7207 L 130.793,-26.8225 L 130.68,-26.9299 L 130.572,-27.0428
 L 130.471,-27.1608 L 130.375,-27.2836 L 130.285,-27.4111 L 130.202,-27.5427 L 130.125,-27.6783 L 130.055,-27.8175
 L 129.992,-27.96 L 129.936,-28.1054 L 129.887,-28.2533 L 129.845,-28.4035 L 129.811,-28.5556 L 129.784,-28.7091
 L 129.765,-28.8638 L 129.754,-29.0192 L 129.75,-29.175 L 129.754,-29.3308 L 129.765,-29.4862 L 129.784,-29.6409
 L 129.811,-29.7944 L 129.845,-29.9465 L 129.887,-30.0966 L 129.936,-30.2446 L 129.992,-30.39 L 130.055,-30.5325
 L 130.125,-30.6717 L 130.202,-30.8073 L 130.285,-30.9389 L 130.375,-31.0663 L 130.471,-31.1892 L 130.572,-31.3072
 L 130.68,-31.4201 L 130.793,-31.5275 L 130.911,-31.6293 L 131.034,-31.7252 L 131.161,-31.8149 L 131.293,-31.8983
 L 131.428,-31.9751 L 131.568,-32.0452 L 131.71,-32.1083 L 131.855,-32.1644 L 132.003,-32.2133 L 132.154,-32.2548
 L 132.306,-32.289 L 132.459,-32.3156 L 132.614,-32.3347 L 132.769,-32.3462 L 132.925,-32.35 L 171.95,-32.35
 L 172.106,-32.3462 L 172.261,-32.3347 L 172.416,-32.3156 L 172.569,-32.289 L 172.721,-32.2548 L 172.872,-32.2133
 L 173.02,-32.1644 L 173.165,-32.1083 L 173.307,-32.0452 L 173.447,-31.9751 L 173.582,-31.8983 L 173.714,-31.8149
 L 173.841,-31.7252 L 173.964,-31.6293 L 174.082,-31.5275 L 174.195,-31.4201 L 174.303,-31.3072 L 174.404,-31.1892
 L 174.5,-31.0663 L 174.59,-30.9389 L 174.673,-30.8073 L 174.75,-30.6717 L 174.82,-30.5325 L 174.883,-30.39
 L 174.939,-30.2446 L 174.988,-30.0966 L 175.03,-29.9465 L 175.064,-29.7944 L 175.091,-29.6409 L 175.11,-29.4862
 L 175.121,-29.3308 L 175.125,-29.175 L 175.121,-29.0192 L 175.11,-28.8638 L 175.091,-28.7091 L 175.064,-28.5556
 L 175.03,-28.4035 L 174.988,-28.2533 L 174.939,-28.1054 L 174.883,-27.96 L 174.82,-27.8175 L 174.75,-27.6783
 L 174.673,-27.5427 L 174.59,-27.4111 L 174.5,-27.2836 L 174.404,-27.1608 L 174.303,-27.0428 L 174.195,-26.9299
 L 174.082,-26.8225 L 173.964,-26.7207 L 173.841,-26.6248 L 173.714,-26.5351 L 173.582,-26.4517 L 173.447,-26.3749
 L 173.307,-26.3048 L 173.165,-26.2417 L 173.02,-26.1856 L 172.872,-26.1367 L 172.721,-26.0951 L 172.569,-26.061
 L 172.416,-26.0344 L 172.261,-26.0153 L 172.106,-26.0038 L 171.95,-26 z
M 16.175,-26 L 16.0192,-26.0038 L 15.8638,-26.0153 L 15.7091,-26.0344 L 15.5556,-26.061 L 15.4035,-26.0951
 L 15.2533,-26.1367 L 15.1054,-26.1856 L 14.96,-26.2417 L 14.8175,-26.3048 L 14.6783,-26.3749 L 14.5427,-26.4517
 L 14.4111,-26.5351 L 14.2836,-26.6248 L 14.1608,-26.7207 L 14.0428,-26.8225 L 13.9299,-26.9299 L 13.8225,-27.0428
 L 13.7207,-27.1608 L 13.6248,-27.2836 L 13.5351,-27.4111 L 13.4517,-27.5427 L 13.3749,-27.6783 L 13.3048,-27.8175
 L 13.2417,-27.96 L 13.1856,-28.1054 L 13.1367,-28.2533 L 13.0951,-28.4035 L 13.061,-28.5556 L 13.0344,-28.7091
 L 13.0153,-28.8638 L 13.0038,-29.0192 L 13,-29.175 L 13.0038,-29.3308 L 13.0153,-29.4862 L 13.0344,-29.6409
 L 13.061,-29.7944 L 13.0951,-29.9465 L 13.1367,-30.0966 L 13.1856,-30.2446 L 13.2417,-30.39 L 13.3048,-30.5325
 L 13.3749,-30.6717 L 13.4517,-30.8073 L 13.5351,-30.9389 L 13.6248,-31.0663 L 13.7207,-31.1892 L 13.8225,-31.3072
 L 13.9299,-31.4201 L 14.0428,-31.5275 L 14.1608,-31.6293 L 14.2836,-31.7252 L 14.4111,-31.8149 L 14.5427,-31.8983
 L 14.6783,-31.9751 L 14.8175,-32.0452 L 14.96,-32.1083 L 15.1054,-32.1644 L 15.2533,-32.2133 L 15.4035,-32.2548
 L 15.5556,-32.289 L 15.7091,-32.3156 L 15.8638,-32.3347 L 16.0192,-32.3462 L 16.175,-32.35 L 55.2,-32.35
 L 55.3558,-32.3462 L 55.5112,-32.3347 L 55.6659,-32.3156 L 55.8194,-32.289 L 55.9715,-32.2548 L 56.1216,-32.2133
 L 56.2696,-32.1644 L 56.415,-32.1083 L 56.5575,-32.0452 L 56.6967,-31.9751 L 56.8323,-31.8983 L 56.9639,-31.8149
 L 57.0913,-31.7252 L 57.2142,-31.6293 L 57.3322,-31.5275 L 57.4451,-31.4201 L 57.5525,-31.3072 L 57.6543,-31.1892
 L 57.7502,-31.0663 L 57.8399,-30.9389 L 57.9233,-30.8073 L 58.0001,-30.6717 L 58.0702,-30.5325 L 58.1333,-30.39
 L 58.1894,-30.2446 L 58.2383,-30.0966 L 58.2798,-29.9465 L 58.314,-29.7944 L 58.3406,-29.6409 L 58.3597,-29.4862
 L 58.3712,-29.3308 L 58.375,-29.175 L 58.3712,-29.0192 L 58.3597,-28.8638 L 58.3406,-28.7091 L 58.314,-28.5556
 L 58.2798,-28.4035 L 58.2383,-28.2533 L 58.1894,-28.1054 L 58.1333,-27.96 L 58.0702,-27.8175 L 58.0001,-27.6783
 L 57.9233,-27.5427 L 57.8399,-27.4111 L 57.7502,-27.2836 L 57.6543,-27.1608 L 57.5525,-27.0428 L 57.4451,-26.9299
 L 57.3322,-26.8225 L 57.2142,-26.7207 L 57.0913,-26.6248 L 56.9639,-26.5351 L 56.8323,-26.4517 L 56.6967,-26.3749
 L 56.5575,-26.3048 L 56.415,-26.2417 L 56.2696,-26.1856 L 56.1216,-26.1367 L 55.9715,-26.0951 L 55.8194,-26.061
 L 55.6659,-26.0344 L 55.5112,-26.0153 L 55.3558,-26.0038 L 55.2,-26 z
M 308.05,-26 L 307.894,-26.0038 L 307.739,-26.0153 L 307.584,-26.0344 L 307.431,-26.061 L 307.279,-26.0951
 L 307.128,-26.1367 L 306.98,-26.1856 L 306.835,-26.2417 L 306.693,-26.3048 L 306.553,-26.3749 L 306.418,-26.4517
 L 306.286,-26.5351 L 306.159,-26.6248 L 306.036,-26.7207 L 305.918,-26.8225 L 305.805,-26.9299 L 305.697,-27.0428
 L 305.596,-27.1608 L 305.5,-27.2836 L 305.41,-27.4111 L 305.327,-27.5427 L 305.25,-27.6783 L 305.18,-27.8175
 L 305.117,-27.96 L 305.061,-28.1054 L 305.012,-28.2533 L 304.97,-28.4035 L 304.936,-28.5556 L 304.909,-28.7091
 L 304.89,-28.8638 L 304.879,-29.0192 L 304.875,-29.175 L 304.879,-29.3308 L 304.89,-29.4862 L 304.909,-29.6409
 L 304.936,-29.7944 L 304.97,-29.9465 L 305.012,-30.0966 L 305.061,-30.2446 L 305.117,-30.39 L 305.18,-30.5325
 L 305.25,-30.6717 L 305.327,-30.8073 L 305.41,-30.9389 L 305.5,-31.0663 L 305.596,-31.1892 L 305.697,-31.3072
 L 305.805,-31.4201 L 305.918,-31.5275 L 306.036,-31.6293 L 306.159,-31.7252 L 306.286,-31.8149 L 306.418,-31.8983
 L 306.553,-31.9751 L 306.693,-32.0452 L 306.835,-32.1083 L 306.98,-32.1644 L 307.128,-32.2133 L 307.279,-32.2548
 L 307.431,-32.289 L 307.584,-32.3156 L 307.739,-32.3347 L 307.894,-32.3462 L 308.05,-32.35 L 347.075,-32.35
 L 347.231,-32.3462 L 347.386,-32.3347 L 347.541,-32.3156 L 347.694,-32.289 L 347.846,-32.2548 L 347.997,-32.2133
 L 348.145,-32.1644 L 348.29,-32.1083 L 348.432,-32.0452 L 348.572,-31.9751 L 348.707,-31.8983 L 348.839,-31.8149
 L 348.966,-31.7252 L 349.089,-31.6293 L 349.207,-31.5275 L 349.32,-31.4201 L 349.427,-31.3072 L 349.529,-31.1892
 L 349.625,-31.0663 L 349.715,-30.9389 L 349.798,-30.8073 L 349.875,-30.6717 L 349.945,-30.5325 L 350.008,-30.39
 L 350.064,-30.2446 L 350.113,-30.0966 L 350.155,-29.9465 L 350.189,-29.7944 L 350.216,-29.6409 L 350.235,-29.4862
 L 350.246,-29.3308 L 350.25,-29.175 L 350.246,-29.0192 L 350.235,-28.8638 L 350.216,-28.7091 L 350.189,-28.5556
 L 350.155,-28.4035 L 350.113,-28.2533 L 350.064,-28.1054 L 350.008,-27.96 L 349.945,-27.8175 L 349.875,-27.6783
 L 349.798,-27.5427 L 349.715,-27.4111 L 349.625,-27.2836 L 349.529,-27.1608 L 349.427,-27.0428 L 349.32,-26.9299
 L 349.207,-26.8225 L 349.089,-26.7207 L 348.966,-26.6248 L 348.839,-26.5351 L 348.707,-26.4517 L 348.572,-26.3749
 L 348.432,-26.3048 L 348.29,-26.2417 L 348.145,-26.1856 L 347.997,-26.1367 L 347.846,-26.0951 L 347.694,-26.061
 L 347.541,-26.0344 L 347.386,-26.0153 L 347.231,-26.0038 L 347.075,-26 z
M 424.8,-26 L 424.644,-26.0038 L 424.489,-26.0153 L 424.334,-26.0344 L 424.181,-26.061 L 424.029,-26.0951
 L 423.878,-26.1367 L 423.73,-26.1856 L 423.585,-26.2417 L 423.443,-26.3048 L 423.303,-26.3749 L 423.168,-26.4517
 L 423.036,-26.5351 L 422.909,-26.6248 L 422.786,-26.7207 L 422.668,-26.8225 L 422.555,-26.9299 L 422.447,-27.0428
 L 422.346,-27.1608 L 422.25,-27.2836 L 422.16,-27.4111 L 422.077,-27.5427 L 422,-27.6783 L 421.93,-27.8175
 L 421.867,-27.96 L 421.811,-28.1054 L 421.762,-28.2533 L 421.72,-28.4035 L 421.686,-28.5556 L 421.659,-28.7091
 L 421.64,-28.8638 L 421.629,-29.0192 L 421.625,-29.175 L 421.629,-29.3308 L 421.64,-29.4862 L 421.659,-29.6409
 L 421.686,-29.7944 L 421.72,-29.9465 L 421.762,-30.0966 L 421.811,-30.2446 L 421.867,-30.39 L 421.93,-30.5325
 L 422,-30.6717 L 422.077,-30.8073 L 422.16,-30.9389 L 422.25,-31.0663 L 422.346,-31.1892 L 422.447,-31.3072
 L 422.555,-31.4201 L 422.668,-31.5275 L 422.786,-31.6293 L 422.909,-31.7252 L 423.036,-31.8149 L 423.168,-31.8983
 L 423.303,-31.9751 L 423.443,-32.0452 L 423.585,-32.1083 L 423.73,-32.1644 L 423.878,-32.2133 L 424.029,-32.2548
 L 424.181,-32.289 L 424.334,-32.3156 L 424.489,-32.3347 L 424.644,-32.3462 L 424.8,-32.35 L 463.825,-32.35
 L 463.981,-32.3462 L 464.136,-32.3347 L 464.291,-32.3156 L 464.444,-32.289 L 464.596,-32.2548 L 464.747,-32.2133
 L 464.895,-32.1644 L 465.04,-32.1083 L 465.182,-32.0452 L 465.322,-31.9751 L 465.457,-31.8983 L 465.589,-31.8149
 L 465.716,-31.7252 L 465.839,-31.6293 L 465.957,-31.5275 L 466.07,-31.4201 L 466.177,-31.3072 L 466.279,-31.1892
 L 466.375,-31.0663 L 466.465,-30.9389 L 466.548,-30.8073 L 466.625,-30.6717 L 466.695,-30.5325 L 466.758,-30.39
 L 466.814,-30.2446 L 466.863,-30.0966 L 466.905,-29.9465 L 466.939,-29.7944 L 466.966,-29.6409 L 466.985,-29.4862
 L 466.996,-29.3308 L 467,-29.175 L 466.996,-29.0192 L 466.985,-28.8638 L 466.966,-28.7091 L 466.939,-28.5556
 L 466.905,-28.4035 L 466.863,-28.2533 L 466.814,-28.1054 L 466.758,-27.96 L 466.695,-27.8175 L 466.625,-27.6783
 L 466.548,-27.5427 L 466.465,-27.4111 L 466.375,-27.2836 L 466.279,-27.1608 L 466.177,-27.0428 L 466.07,-26.9299
 L 465.957,-26.8225 L 465.839,-26.7207 L 465.716,-26.6248 L 465.589,-26.5351 L 465.457,-26.4517 L 465.322,-26.3749
 L 465.182,-26.3048 L 465.04,-26.2417 L 464.895,-26.1856 L 464.747,-26.1367 L 464.596,-26.0951 L 464.444,-26.061
 L 464.291,-26.0344 L 464.136,-26.0153 L 463.981,-26.0038 L 463.825,-26 z
M 249.675,-26 L 249.519,-26.0038 L 249.364,-26.0153 L 249.209,-26.0344 L 249.056,-26.061 L 248.904,-26.0951
 L 248.753,-26.1367 L 248.605,-26.1856 L 248.46,-26.2417 L 248.318,-26.3048 L 248.178,-26.3749 L 248.043,-26.4517
 L 247.911,-26.5351 L 247.784,-26.6248 L 247.661,-26.7207 L 247.543,-26.8225 L 247.43,-26.9299 L 247.322,-27.0428
 L 247.221,-27.1608 L 247.125,-27.2836 L 247.035,-27.4111 L 246.952,-27.5427 L 246.875,-27.6783 L 246.805,-27.8175
 L 246.742,-27.96 L 246.686,-28.1054 L 246.637,-28.2533 L 246.595,-28.4035 L 246.561,-28.5556 L 246.534,-28.7091
 L 246.515,-28.8638 L 246.504,-29.0192 L 246.5,-29.175 L 246.504,-29.3308 L 246.515,-29.4862 L 246.534,-29.6409
 L 246.561,-29.7944 L 246.595,-29.9465 L 246.637,-30.0966 L 246.686,-30.2446 L 246.742,-30.39 L 246.805,-30.5325
 L 246.875,-30.6717 L 246.952,-30.8073 L 247.035,-30.9389 L 247.125,-31.0663 L 247.221,-31.1892 L 247.322,-31.3072
 L 247.43,-31.4201 L 247.543,-31.5275 L 247.661,-31.6293 L 247.784,-31.7252 L 247.911,-31.8149 L 248.043,-31.8983
 L 248.178,-31.9751 L 248.318,-32.0452 L 248.46,-32.1083 L 248.605,-32.1644 L 248.753,-32.2133 L 248.904,-32.2548
 L 249.056,-32.289 L 249.209,-32.3156 L 249.364,-32.3347 L 249.519,-32.3462 L 249.675,-32.35 L 288.7,-32.35
 L 288.856,-32.3462 L 289.011,-32.3347 L 289.166,-32.3156 L 289.319,-32.289 L 289.471,-32.2548 L 289.622,-32.2133
 L 289.77,-32.1644 L 289.915,-32.1083 L 290.057,-32.0452 L 290.197,-31.9751 L 290.332,-31.8983 L 290.464,-31.8149
 L 290.591,-31.7252 L 290.714,-31.6293 L 290.832,-31.5275 L 290.945,-31.4201 L 291.052,-31.3072 L 291.154,-31.1892
 L 291.25,-31.0663 L 291.34,-30.9389 L 291.423,-30.8073 L 291.5,-30.6717 L 291.57,-30.5325 L 291.633,-30.39
 L 291.689,-30.2446 L 291.738,-30.0966 L 291.78,-29.9465 L 291.814,-29.7944 L 291.841,-29.6409 L 291.86,-29.4862
 L 291.871,-29.3308 L 291.875,-29.175 L 291.871,-29.0192 L 291.86,-28.8638 L 291.841,-28.7091 L 291.814,-28.5556
 L 291.78,-28.4035 L 291.738,-28.2533 L 291.689,-28.1054 L 291.633,-27.96 L 291.57,-27.8175 L 291.5,-27.6783
 L 291.423,-27.5427 L 291.34,-27.4111 L 291.25,-27.2836 L 291.154,-27.1608 L 291.052,-27.0428 L 290.945,-26.9299
 L 290.832,-26.8225 L 290.714,-26.7207 L 290.591,-26.6248 L 290.464,-26.5351 L 290.332,-26.4517 L 290.197,-26.3749
 L 290.057,-26.3048 L 289.915,-26.2417 L 289.77,-26.1856 L 289.622,-26.1367 L 289.471,-26.0951 L 289.319,-26.061
 L 289.166,-26.0344 L 289.011,-26.0153 L 288.856,-26.0038 L 288.7,-26 z
M 191.3,-26 L 191.144,-26.0038 L 190.989,-26.0153 L 190.834,-26.0344 L 190.681,-26.061 L 190.529,-26.0951
 L 190.378,-26.1367 L 190.23,-26.1856 L 190.085,-26.2417 L 189.943,-26.3048 L 189.803,-26.3749 L 189.668,-26.4517
 L 189.536,-26.5351 L 189.409,-26.6248 L 189.286,-26.7207 L 189.168,-26.8225 L 189.055,-26.9299 L 188.947,-27.0428
 L 188.846,-27.1608 L 188.75,-27.2836 L 188.66,-27.4111 L 188.577,-27.5427 L 188.5,-27.6783 L 188.43,-27.8175
 L 188.367,-27.96 L 188.311,-28.1054 L 188.262,-28.2533 L 188.22,-28.4035 L 188.186,-28.5556 L 188.159,-28.7091
 L 188.14,-28.8638 L 188.129,-29.0192 L 188.125,-29.175 L 188.129,-29.3308 L 188.14,-29.4862 L 188.159,-29.6409
 L 188.186,-29.7944 L 188.22,-29.9465 L 188.262,-30.0966 L 188.311,-30.2446 L 188.367,-30.39 L 188.43,-30.5325
 L 188.5,-30.6717 L 188.577,-30.8073 L 188.66,-30.9389 L 188.75,-31.0663 L 188.846,-31.1892 L 188.947,-31.3072
 L 189.055,-31.4201 L 189.168,-31.5275 L 189.286,-31.6293 L 189.409,-31.7252 L 189.536,-31.8149 L 189.668,-31.8983
 L 189.803,-31.9751 L 189.943,-32.0452 L 190.085,-32.1083 L 190.23,-32.1644 L 190.378,-32.2133 L 190.529,-32.2548
 L 190.681,-32.289 L 190.834,-32.3156 L 190.989,-32.3347 L 191.144,-32.3462 L 191.3,-32.35 L 230.325,-32.35
 L 230.481,-32.3462 L 230.636,-32.3347 L 230.791,-32.3156 L 230.944,-32.289 L 231.096,-32.2548 L 231.247,-32.2133
 L 231.395,-32.1644 L 231.54,-32.1083 L 231.682,-32.0452 L 231.822,-31.9751 L 231.957,-31.8983 L 232.089,-31.8149
 L 232.216,-31.7252 L 232.339,-31.6293 L 232.457,-31.5275 L 232.57,-31.4201 L 232.678,-31.3072 L 232.779,-31.1892
 L 232.875,-31.0663 L 232.965,-30.9389 L 233.048,-30.8073 L 233.125,-30.6717 L 233.195,-30.5325 L 233.258,-30.39
 L 233.314,-30.2446 L 233.363,-30.0966 L 233.405,-29.9465 L 233.439,-29.7944 L 233.466,-29.6409 L 233.485,-29.4862
 L 233.496,-29.3308 L 233.5,-29.175 L 233.496,-29.0192 L 233.485,-28.8638 L 233.466,-28.7091 L 233.439,-28.5556
 L 233.405,-28.4035 L 233.363,-28.2533 L 233.314,-28.1054 L 233.258,-27.96 L 233.195,-27.8175 L 233.125,-27.6783
 L 233.048,-27.5427 L 232.965,-27.4111 L 232.875,-27.2836 L 232.779,-27.1608 L 232.678,-27.0428 L 232.57,-26.9299
 L 232.457,-26.8225 L 232.339,-26.7207 L 232.216,-26.6248 L 232.089,-26.5351 L 231.957,-26.4517 L 231.822,-26.3749
 L 231.682,-26.3048 L 231.54,-26.2417 L 231.395,-26.1856 L 231.247,-26.1367 L 231.096,-26.0951 L 230.944,-26.061
 L 230.791,-26.0344 L 230.636,-26.0153 L 230.481,-26.0038 L 230.325,-26 z
M 572.7,-454 L 518.7,-454 L 518.7,-0 L 572.7,-0 z
" stroke="black" fill="lightgray" stroke-width="0.5"/>
</svg>
