<?xml version="1.0" encoding="UTF-8" standalone="no"?>
<svg
   xmlns:dc="http://purl.org/dc/elements/1.1/"
   xmlns:cc="http://creativecommons.org/ns#"
   xmlns:rdf="http://www.w3.org/1999/02/22-rdf-syntax-ns#"
   xmlns:svg="http://www.w3.org/2000/svg"
   xmlns="http://www.w3.org/2000/svg"
   xmlns:sodipodi="http://sodipodi.sourceforge.net/DTD/sodipodi-0.dtd"
   xmlns:inkscape="http://www.inkscape.org/namespaces/inkscape"
   inkscape:version="1.0 (4035a4f, 2020-05-01)"
   sodipodi:docname="book-pile.svg"
   viewBox="0 0 840 859"
   height="859"
   width="840"
   id="svg933"
   version="1.1">
  <metadata
     id="metadata939">
    <rdf:RDF>
      <cc:Work
         rdf:about="">
        <dc:format>image/svg+xml</dc:format>
        <dc:type
           rdf:resource="http://purl.org/dc/dcmitype/StillImage" />
        <dc:title></dc:title>
      </cc:Work>
    </rdf:RDF>
  </metadata>
  <defs
     id="defs937" />
  <sodipodi:namedview
     inkscape:current-layer="g941"
     inkscape:window-maximized="0"
     inkscape:window-y="166"
     inkscape:window-x="1961"
     inkscape:cy="429.5"
     inkscape:cx="420"
     inkscape:zoom="0.84761905"
     showgrid="false"
     id="namedview935"
     inkscape:window-height="1012"
     inkscape:window-width="1312"
     inkscape:pageshadow="2"
     inkscape:pageopacity="0"
     guidetolerance="10"
     gridtolerance="10"
     objecttolerance="10"
     borderopacity="1"
     bordercolor="#666666"
     pagecolor="#ffffff" />
  <g
     id="g941"
     inkscape:label="Image"
     inkscape:groupmode="layer">
    <path
       style="fill:#020202"
       d="m 462.85955,856.5272 c -23.74307,-0.4917 -78.49152,-3.67146 -127,-7.3761 -49.34895,-3.76882 -65.58005,-5.17508 -81,-7.01784 -4.4,-0.52582 -10.025,-0.95249 -12.5,-0.94816 -2.475,0.004 -8.1,-0.46515 -12.5,-1.0433 -4.4,-0.57816 -11.825,-1.49482 -16.5,-2.03702 -35.07356,-4.06781 -53.5965,-6.70532 -80.5,-11.46252 -12.82762,-2.26824 -22.95568,-3.7951 -52.63826,-7.93552 -5.87957,-0.82014 -14.489349,-2.87742 -19.247538,-4.59913 -11.695601,-4.23197 -12.14476,-5.18161 -12.026831,-25.42784 0.0889,-15.26229 1.449988,-26.58608 5.889668,-49 1.307308,-6.6 3.308685,-16.8787 4.447504,-22.84155 1.13882,-5.96285 2.340391,-11.2781 2.670158,-11.81168 1.657973,-2.68266 19.101134,-5.76579 33.81817,-5.97747 9.294669,-0.13369 25.693619,-1.4085 22.087129,-1.71699 -3.10826,-0.26588 -11.67104,-5.54319 -15.90351,-9.80146 -2.105129,-2.11797 -5.004064,-6.32585 -6.442074,-9.35085 -2.394909,-5.03794 -2.611631,-6.55014 -2.579666,-18 0.0322,-11.53299 0.253003,-12.98137 2.854239,-18.72237 3.181482,-7.02163 10.589471,-14.71315 17.644381,-18.31971 4.7392,-2.42274 11.36792,-4.50938 19.42663,-6.11527 2.75,-0.548 5.40241,-1.38669 5.89425,-1.86376 0.49183,-0.47706 0.8001,-7.66334 0.68503,-15.96951 -0.25381,-18.32217 0.90124,-22.89317 7.26783,-28.76169 4.2215,-3.89124 14.12093,-9.24769 17.09096,-9.24769 2.37513,0 1.86405,-1.69726 -0.68807,-2.28505 -10.35695,-2.38532 -38.30605,-9.94217 -39.87315,-10.78086 -1.08346,-0.57985 -3.84309,-1.37404 -6.13251,-1.76488 l -4.16259,-0.7106 -1.37204,-6.47931 c -1.40431,-6.63165 -0.96397,-32.65801 0.57758,-34.13824 0.39199,-0.37639 9.26271,-2.06812 19.71271,-3.75939 10.45,-1.69126 21.75188,-3.52652 25.1153,-4.07835 3.36341,-0.55183 7.30091,-1.00332 8.75,-1.00332 1.44908,0 2.63448,-0.3375 2.63421,-0.75 -5.9e-4,-0.90595 -9.10072,-8.82946 -13.81445,-12.02829 -1.86218,-1.2637 -6.5007,-3.8663 -10.30783,-5.78354 -7.26236,-3.65726 -7.59214,-4.43992 -3.62798,-8.61019 0.69429,-0.73039 3.38927,-4.02798 5.98886,-7.32798 16.00455,-20.31671 22.96984,-29.05511 28.51266,-35.771 l 6.25076,-7.57365 -14.25076,-7.80194 c -7.83793,-4.29107 -20.42296,-10.8242 -27.96676,-14.51808 -11.54924,-5.65516 -13.82237,-7.13999 -14.38942,-9.39931 -0.72021,-2.86951 0.19466,-28.47739 1.41972,-39.7393 0.8433,-7.75236 1.25391,-8.17928 9.43569,-9.81052 4.09459,-0.81636 5.77273,-1.61277 5.82895,-2.76631 0.0505,-1.03571 0.26084,-1.16911 0.58333,-0.36989 0.58801,1.45723 4.79505,1.62943 8.9385,0.36586 1.59457,-0.48627 6.04922,-1.44492 9.89922,-2.13034 3.85,-0.68541 7.45,-1.56077 8,-1.94523 0.55,-0.38447 3.25,-1.64168 6,-2.7938 4.58382,-1.9204 8.60622,-3.75657 29,-13.23803 3.85,-1.78994 14.425,-6.52281 23.5,-10.5175 14.88982,-6.55429 35.45127,-16.00049 56,-25.72714 4.125,-1.95255 16.88311,-7.89984 28.35136,-13.21621 33.01165,-15.3033 90.859,-44.59561 103.91366,-52.61902 2.62077,-1.61072 4.99019,-2.92859 5.26539,-2.92859 0.2752,0 2.96844,-1.63871 5.98497,-3.64158 6.18412,-4.10602 6.31125,-4.58791 4.50874,-17.08986 -1.16541,-8.08311 -2.81455,-25.60435 -3.47911,-36.96388 -0.85683,-14.64575 0.52021,-14.13659 -15.86782,-5.86711 -12.29982,6.20656 -33.26528,17.79154 -62.17719,34.35753 -4.4,2.52112 -14.22862,8.32359 -21.84138,12.89438 -7.61275,4.57079 -14.01733,8.31052 -14.23238,8.31052 -0.21506,0 -3.33187,1.8 -6.92624,4 -3.59437,2.2 -6.79533,4 -7.11324,4 -0.31791,0 -1.77249,0.84731 -3.23239,1.88292 -1.4599,1.0356 -4.22937,2.76706 -6.15437,3.84769 -1.925,1.08062 -12.5,7.36315 -23.5,13.96117 -11,6.59801 -26.75,15.95772 -35,20.79935 -8.25,4.84163 -16.575,9.82386 -18.5,11.07163 -4.22359,2.73769 -15.40357,8.50394 -19.52198,10.06876 -18.58895,7.06303 -35.18578,14.06565 -38.86112,16.39648 -4.49735,2.85213 -8.61216,8.18011 -10.01831,12.972 -0.40349,1.375 -1.18258,4.075 -1.73132,6 -0.54875,1.925 -1.32038,8.675 -1.71474,15 -0.65468,10.50011 -0.81628,11.19569 -1.85865,8 -0.62789,-1.925 -2.99602,-8.9 -5.26252,-15.5 -2.2665,-6.6 -5.28367,-16.5 -6.70482,-22 -1.42115,-5.5 -2.78861,-10.53505 -3.03881,-11.18901 -0.28164,-0.73615 1.00519,-1.42338 3.37869,-1.80437 14.75926,-2.36915 57.47977,-20.89982 63.63503,-27.60266 l 2.80145,-3.05067 -3.69857,-6.67665 c -2.03421,-3.67215 -5.95839,-10.95164 -8.7204,-16.17664 -2.76201,-5.225 -6.07081,-11.17856 -7.35288,-13.23013 -1.28208,-2.05157 -2.33105,-3.92084 -2.33105,-4.15393 0,-0.23309 -1.62161,-3.27954 -3.60357,-6.76987 -1.98197,-3.49034 -5.14501,-9.1378 -7.02899,-12.54991 l -3.4254,-6.20383 4.95738,-3.79617 c 12.12113,-9.28186 30.56234,-22.63267 41.60058,-30.11741 6.6,-4.47528 15.375,-10.44819 19.5,-13.27312 4.125,-2.82493 10.875,-7.44193 15,-10.26001 4.125,-2.81807 7.725,-5.35495 8,-5.63751 0.275,-0.28255 2.3,-1.66902 4.5,-3.08104 5.50914,-3.5359 23.11413,-15.23317 33.43948,-22.218173 4.70829,-3.185109 9.91052,-6.662246 11.56052,-7.726972 1.65,-1.064725 3.85731,-2.508727 4.90513,-3.208892 17.0933,-11.421946 49.68903,-32.773028 50.0331,-32.773028 0.25017,0 5.09141,-3.077694 10.75831,-6.839321 5.6669,-3.761626 16.60346,-10.795713 24.30346,-15.631304 7.7,-4.835591 15.67785,-9.857897 17.72856,-11.16068 2.05071,-1.302782 3.99463,-2.368695 4.31982,-2.368695 0.3252,0 2.47235,-1.253273 4.77144,-2.785051 9.93184,-6.6171089 14.61883,-8.4948213 19.53807,-7.8273936 4.64542,0.630275 16.75898,4.2574709 18.64211,5.5820549 0.55,0.386867 3.7,1.7544657 7,3.0391097 11.3605,4.42248 42.27424,19.857326 62,30.955828 2.75,1.54726 8.375,4.603388 12.5,6.791396 4.125,2.188007 10.3125,5.613014 13.75,7.611126 3.4375,1.998111 8.8375,5.126286 12,6.951498 3.1625,1.825213 11.05785,6.550213 17.54523,10.5 6.48738,3.949788 11.9547,7.181432 12.1496,7.181432 0.1949,0 3.21204,1.785185 6.70476,3.967079 5.4297,3.391913 11.99151,7.44901 18.68601,11.553353 19.58872,12.009693 57.64204,38.335253 56.73063,39.246663 -0.19298,0.19299 -4.59641,-1.70066 -9.78539,-4.20811 -5.18897,-2.50744 -9.66028,-4.55899 -9.93623,-4.55899 -0.27595,0 1.21384,3.4875 3.31066,7.75 2.09681,4.2625 5.50716,11.7697 7.57856,16.68266 3.69757,8.76994 3.85725,8.96836 8.76617,10.89287 9.36981,3.67337 31.5,14.55218 31.5,15.48484 0,1.90868 -8.98603,3.4776 -16.28657,2.84357 -5.87311,-0.51007 -6.89458,-0.39676 -5.4974,0.6098 0.94381,0.67994 4.25594,3.03626 7.36028,5.23626 5.21416,3.6952 13.42369,12.63121 13.42369,14.61158 0,0.46767 -1.18153,1.14686 -2.62563,1.50931 -3.63585,0.91254 -1.13721,2.1957 4.88234,2.5073 2.54862,0.13193 4.40748,0.60614 4.13081,1.0538 -0.56632,0.91634 -20.12124,13.81801 -20.94379,13.81801 -0.29102,0 -3.0559,1.86663 -6.14417,4.14807 -4.60645,3.40299 -5.35346,4.34601 -4.15875,5.25 10.09404,7.63785 14.3603,11.63861 19.85919,18.62332 6.48105,8.23226 7.41854,9.23855 11.83301,12.70139 l 2.33302,1.83008 -7.10251,2.28752 c -3.90638,1.25813 -6.84218,2.70874 -6.524,3.22357 1.04963,1.69834 -0.61569,0.99865 -12.38452,-5.20334 -16.25955,-8.56855 -37.155,-21.69928 -37.155,-23.34827 0,-0.61496 7.04922,0.57109 12.42006,2.08971 6.90643,1.9528 6.84648,1.01496 -0.10106,-1.58099 -5.50704,-2.0577 -14.26792,-5.76074 -24.319,-10.27914 -30.34403,-13.64096 -127.47302,-52.93899 -146.5,-59.27336 -2.2,-0.73241 -6.7,-2.32108 -10,-3.53037 -3.3,-1.20929 -7.49624,-2.55031 -9.32499,-2.98005 -3.28644,-0.77228 -3.30383,-0.7579 -1.5,1.24058 2.14163,2.37272 13.27473,8.1432 20.07068,10.40298 8.39473,2.7914 22.67953,10.02688 25.17862,12.75339 2.80486,3.06008 2.3623,3.16956 -4.42431,1.0944 -2.75,-0.84087 -8.375,-2.45129 -12.5,-3.57871 -4.125,-1.12741 -8.85,-2.43219 -10.5,-2.89949 -9.88582,-2.79982 -21.5,-5.70644 -21.5,-5.38069 0,0.74817 11.68035,6.22714 22,10.31965 12.38692,4.91235 21.87752,9.49445 27.72387,13.38519 4.81977,3.20756 6.49535,5.20795 3.65136,4.35918 -1.03138,-0.3078 -3.22523,-0.83141 -4.87523,-1.16356 -8.21098,-1.6529 -20.10519,-4.44718 -24,-5.63825 -1.65,-0.50459 -7.91446,-2.47594 -13.92101,-4.38078 -6.00656,-1.90483 -11.1208,-3.26356 -11.36497,-3.01938 -0.95847,0.95847 17.09529,11.61407 32.12493,18.96063 8.71143,4.25818 15.59822,7.98288 15.30398,8.27712 -0.29424,0.29424 -2.83356,-0.0164 -5.64293,-0.6904 -2.80937,-0.67396 -5.31144,-1.0219 -5.56014,-0.7732 -0.2487,0.2487 2.11044,1.02567 5.24253,1.7266 5.34369,1.19587 5.55272,1.35041 3.39123,2.5072 -2.4273,1.29905 -1.15958,1.89585 25.92638,12.20533 3.575,1.36072 7.85,3.0644 9.5,3.78596 1.65,0.72157 4.8,1.86821 7,2.54811 2.2,0.6799 5.35,1.83788 7,2.57329 1.65,0.73542 8.175,3.43102 14.5,5.99022 6.325,2.5592 13.38781,5.50435 15.69514,6.54479 2.30732,1.04043 4.46634,1.8917 4.79781,1.8917 0.62045,0 24.37845,9.78326 48.91602,20.14302 7.64993,3.22981 14.13743,5.64391 14.41667,5.36468 0.27923,-0.27924 0.08,-0.5077 -0.4427,-0.5077 -0.52271,0 -3.24133,-1.4625 -6.04138,-3.25 -2.80005,-1.7875 -6.98265,-4.375 -9.29468,-5.75 -5.21403,-3.10088 -14.33508,-10.04513 -13.84183,-10.53838 1.43676,-1.43676 29.32496,6.91598 45.29495,13.5662 3.9087,1.62766 9.64103,3.16448 10.09821,2.7073 0.67297,-0.67297 -3.77763,-3.42282 -14.58698,-9.01272 -11.23504,-5.81003 -20.31206,-10.85566 -21.01123,-11.67947 -0.275,-0.32402 -1.77654,-1.40219 -3.33676,-2.39593 -1.56022,-0.99374 -2.64661,-1.99697 -2.41419,-2.22939 0.23242,-0.23242 5.78397,1.41244 12.33677,3.65524 20.28967,6.94445 43.03317,13.28066 44.47397,12.3902 0.85051,-0.52565 12.94021,12.15576 12.94021,13.57354 0,0.54232 -3.7152,0.96341 -8.5,0.96341 -4.675,0 -8.5,0.23394 -8.5,0.51987 0,0.28593 1.125,2.30199 2.5,4.48013 1.375,2.17814 2.5,4.21582 2.5,4.52816 0,2.21028 7.25653,11.33546 9.87752,12.42111 3.41834,1.41592 4.13217,3.02542 1.37248,3.09459 -2.27589,0.057 -24.9184,15.62107 -24.02508,16.51439 0.17034,0.17034 5.47692,1.0309 11.7924,1.91234 11.14714,1.55579 16.77185,2.44351 28.73268,4.53474 3.1625,0.55293 8.675,1.40485 12.25,1.89316 3.575,0.4883 11,1.87987 16.5,3.09237 5.5,1.2125 11.8,2.57682 14,3.03181 5.12722,1.06039 13.68078,3.93703 15.08815,5.07428 0.59849,0.48361 1.64309,2.73148 2.32133,4.99526 0.67825,2.26378 1.47422,4.74413 1.76884,5.51188 0.41062,1.07006 -0.53975,1.39591 -4.07133,1.39591 -4.53318,0 -4.60682,0.0521 -4.59617,3.25 0.0149,4.48152 2.21374,11.31523 5.89977,18.33597 3.40717,6.4896 4.03637,7.52796 8.91244,14.70808 1.82766,2.69128 3.15143,5.06483 2.9417,5.27455 -0.20973,0.20973 -3.14985,-0.13354 -6.5336,-0.76281 -4.85338,-0.90258 -7.37457,-0.86149 -11.9417,0.19465 -9.6381,2.22878 -21.26112,6.6054 -37.42311,14.09158 -36.69658,16.99775 -44.07506,19.49983 -60.61632,20.55529 l -10.25,0.65403 -1.7e-4,10.59933 c -10e-5,5.82963 -0.66425,14.06971 -1.47589,18.31129 -1.76636,9.23083 -6.33451,23.75072 -8.06851,25.64578 -1.30346,1.42453 -1.26621,1.49193 8.09145,14.64226 1.95688,2.75 4.28144,6.125 5.16569,7.5 0.88425,1.375 2.70138,4.15794 4.03806,6.18432 2.9821,4.52078 5.32031,8.57939 9.25559,16.06568 1.66241,3.1625 3.26006,5.75 3.55033,5.75 1.89221,0 17.1289,3.46001 22.94345,5.2101 10.76174,3.23911 10.37337,4.06987 -1.66851,3.56905 l -10.6685,-0.44371 3.6685,2.70813 c 12.47006,9.20551 18.16851,22.31757 18.16851,41.80546 v 10.06034 l 3.75,0.62721 c 2.0625,0.34496 4.19081,0.73729 4.72957,0.87184 2.00895,0.5017 -4.7714,3.92484 -11.18442,5.64658 -12.58959,3.38 -40.79367,3.37989 -70.79515,-2.9e-4 -4.4,-0.49574 -10.475,-1.17584 -13.5,-1.51134 l -5.5,-0.61 5.5,2.60307 c 3.025,1.43169 10.675,4.6301 17,7.10759 40.05999,15.69138 45.65209,18.22899 37.5,17.017 -2.2,-0.32708 -6.7,-0.87836 -10,-1.22505 -5.07741,-0.53343 -21.36235,-3.57139 -34.5,-6.43598 -22.70993,-4.95178 -48.40411,-8.92923 -49.64786,-7.68547 -0.1792,0.1792 -0.96377,3.89424 -1.74347,8.25565 -6.35432,35.54394 -4.69745,47.42402 8.40812,60.28778 l 6.2575,6.14204 11.11286,-0.0703 c 6.59908,-0.0417 10.3005,-0.39399 9.11285,-0.86724 -1.58716,-0.63245 -0.55506,-1.22371 5,-2.86438 6.71672,-1.98376 15.3437,-3.89477 22.25927,-4.9308 1.7926,-0.26854 3.475,-0.83733 3.73868,-1.26397 0.53796,-0.87045 -5.45027,-1.65648 -19.49795,-2.55936 -18.98377,-1.22014 -17.0554,-2.80904 9,-7.41562 18.77702,-3.31977 20.0558,-3.90438 12,-5.48595 -4.88564,-0.95919 -25.19155,-7.3445 -26.94785,-8.47392 -2.46048,-1.58224 3.36592,-2.41008 11.80786,-1.6777 19.11101,1.65797 23.13784,1.83222 26.73734,1.15694 2.76301,-0.51834 3.42838,-0.95381 2.36588,-1.54841 -1.8842,-1.05445 -15.48106,-4.34392 -28.81033,-6.97003 -12.81524,-2.52484 -15.07419,-3.57821 -9.79666,-4.56828 4.02584,-0.75525 29.07763,0.0138 34.14376,1.04815 10.30124,2.10323 -12.65493,-6.00833 -31.69635,-11.19989 l -10.30365,-2.80924 12.5,-0.33772 c 12.84166,-0.34694 25.39158,0.77711 49.87882,4.46747 l 3.37883,0.50921 -3.0776,3.18052 c -5.84691,6.04243 -7.62321,11.77446 -7.64827,24.68052 -0.0177,9.10736 0.46002,13.16445 2.29602,19.5 3.53009,12.18141 2.95933,11.78942 18.43429,12.66031 32.86619,1.84962 59.38716,5.61116 70.48791,9.9975 12.57976,4.97075 3.79307,6.88679 -34.75,7.57763 -29.71851,0.53267 -110.98116,-1.01589 -142.5,-2.71551 -22.82584,-1.23086 -49.41464,-2.00764 -47.25,-1.38038 3.07643,0.89146 1.88751,2.16521 -3,3.21405 -8.16331,1.75181 -20.53767,6.98891 -25.75,10.89798 -3.08319,2.31228 -5.88663,5.53605 -7.31276,8.4092 -2.02616,4.08201 -2.17719,5.16284 -1.21874,8.72225 1.08226,4.01918 4.29161,7.18661 10.0315,9.90044 2.78259,1.31562 21.0926,4.17754 27.42614,4.28682 2.24062,0.0386 4.97386,0.42402 6.07386,0.85636 1.67468,0.65822 1.43069,0.8658 -1.5,1.27618 -1.925,0.26955 -8,1.21026 -13.5,2.09046 -5.5,0.8802 -14.725,2.14707 -20.5,2.81526 -14.32093,1.65701 -15.27148,2.05845 -10.38498,4.38585 2.67561,1.27437 7.6205,2.09484 15.88498,2.63566 14.27049,0.93386 21.37788,1.86333 22.0048,2.8777 0.60314,0.9759 -6.06235,2.66357 -16.0048,4.05233 -7.63368,1.06627 -14.5,3.5132 -14.5,5.16731 0,0.42493 2.62845,0.7726 5.841,0.7726 7.13304,0 22.1044,1.91064 24.159,3.08316 1.0712,0.61132 0.58501,0.86472 -1.70078,0.88643 -1.76043,0.0167 -5.36043,0.43435 -8,0.92805 -2.63957,0.4937 -7.72422,1.38454 -11.29922,1.97964 -14.68792,2.44496 -18.93562,3.41787 -18.43797,4.22309 0.77266,1.25018 9.99836,3.81907 17.43797,4.85558 3.575,0.49808 10.6625,1.47409 15.75,2.16891 5.0875,0.69482 9.25,1.55474 9.25,1.91094 0,1.66807 -8.87946,2.9642 -20.307,2.9642 -6.91623,0 -12.82093,0.39799 -13.12156,0.88441 -0.7023,1.13634 5.56373,2.6887 16.92856,4.19394 10.6486,1.41037 16.5,2.72676 16.5,3.71199 0,0.90699 -17.7826,7.83586 -24.85344,9.68397 -2.94439,0.76958 -5.57314,1.61893 -5.84165,1.88745 -0.66971,0.66971 8.2945,2.02648 13.19509,1.99713 2.2,-0.0132 8.8468,-0.16502 14.77067,-0.33742 5.92387,-0.1724 11.02233,-0.0618 11.3299,0.24577 0.99689,0.99689 -2.46337,5.25825 -7.07631,8.71458 -2.47628,1.8554 -4.34943,3.52634 -4.16256,3.71321 0.46686,0.46687 36.61654,-2.50025 44.6383,-3.66385 3.575,-0.51857 9.65,-1.44482 13.5,-2.05833 3.85,-0.61352 9.475,-1.50956 12.5,-1.99121 3.025,-0.48165 10.9,-1.82339 17.5,-2.98164 14.04899,-2.46549 20.54607,-3.53678 33.5,-5.52376 5.225,-0.80145 12.425,-1.91561 16,-2.47591 25.46083,-3.99041 44.3429,-6.49314 60.43752,-8.01073 10.7442,-1.01308 15.00807,-1.9896 8.68742,-1.9896 -2.85576,0 -17.77626,-2.26802 -33.04172,-5.02258 -2.97923,-0.53758 -8.71673,-0.97742 -12.75,-0.97742 -15.41421,0 -5.03005,-3.65665 22.66678,-7.98182 4.125,-0.64416 9.46286,-1.65935 11.8619,-2.25598 l 4.3619,-1.08478 -2.24741,-1.69523 c -2.60674,-1.96627 -11.47255,-5.05826 -21.47639,-7.48999 -3.85,-0.93586 -8.125,-2.31144 -9.5,-3.05684 -2.39117,-1.29629 -2.28235,-1.35788 2.5,-1.41483 7.88921,-0.094 30.74898,-2.86951 31.7323,-3.85283 1.17668,-1.17668 -5.28273,-4.12285 -17.7323,-8.0878 -9.14558,-2.91269 -17.92548,-7.98775 -16.42124,-9.49199 0.31128,-0.31128 4.8084,-1.0064 9.9936,-1.54469 14.03557,-1.45709 24.92764,-3.19642 24.92764,-3.98064 0,-0.38186 -1.6875,-1.60218 -3.75,-2.71181 -3.63508,-1.95568 -6.65025,-2.94652 -16.40574,-5.3912 -5.03906,-1.26277 -10.84426,-4.3828 -10.84426,-5.82829 0,-0.49397 1.0125,-1.13858 2.25,-1.43248 1.2375,-0.29389 5.625,-1.39829 9.75,-2.45422 4.125,-1.05592 10.97074,-2.52951 15.21276,-3.27463 5.94132,-1.0436 7.47577,-1.64032 6.68091,-2.59807 -1.34574,-1.62152 -4.03991,-2.13013 -17.89367,-3.37802 -11.82372,-1.06503 -20,-2.69494 -20,-3.98693 0,-1.36295 10.7106,-4.11329 21.6361,-5.55587 11.7871,-1.55634 32.3639,-1.95635 32.3639,-0.62915 0,0.45206 -1.18475,7.53956 -2.63278,15.75 -2.07443,11.76222 -2.64725,18.32128 -2.70102,30.92809 -0.0783,18.36656 1.41656,25.50697 8.40596,40.1512 3.85511,8.07723 4.1139,8.36685 8.45236,9.45929 3.28785,0.82789 4.47548,1.61935 4.47548,2.98254 0,3.68121 -7.99127,6.08448 -34.5,10.3754 -21.53166,3.48529 -26.53921,4.24535 -36.5,5.5401 -4.675,0.60767 -11.425,1.4993 -15,1.98139 -3.575,0.4821 -10.775,1.37534 -16,1.98498 -5.225,0.60964 -12.65,1.52329 -16.5,2.03033 -11.65405,1.53483 -16.57303,2.09723 -26.5,3.02978 -9.66236,0.9077 -20.32969,2.06211 -36.5,3.95002 -4.95,0.57792 -15.525,1.70242 -23.5,2.4989 -19.67877,1.96536 -38.74031,4.21552 -55.5,6.55162 -21.65131,3.01794 -24.26851,3.11399 -63,2.31188 z M 446.7002,829.6819 c 12.91649,-5.39685 23.15014,-24.89659 28.60321,-54.50213 0.65849,-3.575 1.41977,-7.4 1.69175,-8.5 0.27198,-1.1 0.91897,-8.075 1.43775,-15.5 0.51878,-7.425 1.21549,-16.76621 1.54825,-20.75825 0.53913,-6.4678 0.3255,-7.8291 -1.96163,-12.5 -6.24072,-12.74518 -23.76343,-16.97797 -60.97259,-14.72856 -10.00306,0.60471 -31.01239,1.50463 -46.68739,1.99981 -15.675,0.49518 -38.625,1.36172 -51,1.92564 -12.375,0.56392 -32.625,1.48921 -45,2.05619 -12.375,0.56699 -28.575,1.25223 -36,1.52276 -7.425,0.27053 -18.44149,0.90204 -24.48108,1.40334 -6.03959,0.50131 -11.30971,0.70837 -11.71137,0.46013 -0.40165,-0.24824 -7.61017,0.003 -16.01892,0.55857 -8.40875,0.55546 -26.98863,1.53026 -41.28863,2.16623 -28.49839,1.26743 -35.16491,2.50346 -43.15597,8.00145 -8.143859,5.60312 -15.35642,17.09854 -17.289647,27.55633 -1.538854,8.32442 -1.288906,22.63165 0.518719,29.69202 1.84253,7.1967 10.70556,25.68156 13.546336,28.25243 2.090512,1.89188 4.899392,2.16291 45.380562,4.37866 19.44325,1.06423 40.53038,2.2385 71.5,3.98157 9.625,0.54172 26.725,1.46446 38,2.05052 11.275,0.58606 26.8,1.48758 34.5,2.00338 7.7,0.5158 21.65,1.1863 31,1.49 9.35,0.30371 19.25,0.7701 22,1.03643 2.75,0.26634 13.6625,0.92685 24.25,1.4678 51.28729,2.62045 56.90288,3.03043 60.75,4.43518 5.2556,1.91906 16.30449,1.94583 20.84065,0.0505 z M 659.62858,694.52383 c -0.67703,-0.27392 -2.02703,-0.29059 -3,-0.0371 -0.97297,0.25354 -0.41903,0.47766 1.23097,0.49804 1.65,0.0204 2.44606,-0.18706 1.76903,-0.46099 z m -10.01903,-1.07627 c -2.3375,-0.21053 -6.1625,-0.21053 -8.5,0 -2.3375,0.21054 -0.425,0.3828 4.25,0.3828 4.675,0 6.5875,-0.17226 4.25,-0.3828 z m -382.25,-92.14085 c 31.64914,-2.58393 38.11261,-3.17217 45.5,-4.14093 20.66745,-2.71027 32.89352,-4.513 40.5,-5.97173 2.475,-0.47464 7.425,-1.38107 11,-2.01428 18.02887,-3.19332 37.03917,-8.5631 47.47391,-13.40981 6.96886,-3.23688 12.96736,-8.25443 14.08752,-11.78374 0.32041,-1.00952 1.0704,-1.53399 1.66664,-1.1655 0.75124,0.4643 0.86631,-0.52906 0.37478,-3.23547 -1.22924,-6.76829 -2.5511,-16.53527 -3.75121,-27.71686 -1.79314,-16.70707 -4.74121,-18.81004 -19.85164,-14.16094 -9.83447,3.02581 -16.27522,4.71738 -24,6.30325 -3.025,0.62102 -9.775,2.0254 -15,3.12085 -5.225,1.09544 -13.325,2.70615 -18,3.57935 -4.675,0.8732 -11.50754,2.23449 -15.18342,3.02508 -8.31064,1.7874 -35.92542,7.42106 -41.31658,8.42894 -2.2,0.41129 -8.275,1.68403 -13.5,2.82831 -20.20694,4.42533 -28.75425,6.27223 -35.5,7.67081 -27.76727,5.75692 -41.95484,9.67922 -44.23079,12.22804 -0.97306,1.08974 -3.56921,2.46961 -5.76921,3.06639 -2.2,0.59679 -7.825,2.10102 -12.5,3.34275 -19.90298,5.28643 -25.10849,10.81801 -19.64782,20.87855 5.6054,10.32717 9.42489,11.00929 58.64782,10.4738 20.625,-0.22438 42.675,-0.83046 49,-1.34686 z m 429.75,-8.78728 c 4.5375,-0.88735 8.25,-1.96602 8.25,-2.39705 0,-0.43104 -1.4625,-1.08548 -3.25,-1.45433 -1.7875,-0.36885 -5.25715,-1.33139 -7.71033,-2.139 -4.76271,-1.56791 -25.03928,-5.66617 -33.883,-6.84836 -3.83453,-0.51258 -5.03758,-1.02001 -4.26055,-1.79704 0.69238,-0.69238 8.38767,-1.15176 21.34333,-1.27412 20.14919,-0.1903 29.76055,-0.96942 29.76055,-2.41246 0,-0.81148 -0.55928,-0.93373 -18,-3.93449 -6.325,-1.08825 -13.975,-2.76911 -17,-3.73526 l -5.5,-1.75663 18.67503,-1.05383 c 10.27127,-0.5796 19.00877,-1.38756 19.41667,-1.79546 0.4079,-0.40789 -1.69587,-0.74106 -4.67503,-0.74035 -7.91413,0.002 -31.96558,-3.08758 -37.41667,-4.80622 -2.52799,-0.79704 5.92723,-1.90713 17,-2.23194 l 8,-0.23468 -7,-0.87306 c -15.78058,-1.96821 -27.5,-4.47561 -27.5,-5.88371 0,-0.39146 2.1375,-1.28657 4.75,-1.98913 5.95942,-1.60263 7.63277,-2.98254 3.61678,-2.98254 -1.66827,0 -5.47077,-0.44417 -8.45,-0.98705 -10.25456,-1.8686 -42.42958,-7.03501 -49.91678,-8.01523 -4.125,-0.54005 -10.425,-1.44268 -14,-2.00585 -30.48632,-4.80251 -48.66639,-5.97283 -91.5,-5.8902 -36.42069,0.0703 -39.55259,0.20507 -35,1.50654 7.66125,2.19017 25.49324,5.35961 30.25,5.3766 6.42715,0.023 5.09539,1.54804 -2.5,2.86288 -16.09144,2.7856 -18.91289,3.15142 -24.18366,3.13556 -8.00578,-0.0241 -33.06634,2.29129 -33.06634,3.05504 0,0.84384 5.98682,2.56166 13.5,3.87361 3.3,0.57624 15.45,1.51863 27,2.09419 11.55,0.57556 23.475,1.59714 26.5,2.27019 4.95411,1.10226 2.82016,1.27335 -21.5,1.72372 -14.85,0.275 -26.49578,0.82804 -25.87951,1.22897 2.96269,1.92749 14.29268,3.90481 27.87252,4.86434 8.24616,0.58266 15.18366,1.25003 15.41667,1.48304 2.1907,2.1907 -16.41396,4.38689 -37.32635,4.40619 -10.40416,0.01 -18.6345,0.29962 -18.28964,0.64449 1.68145,1.68144 11.4781,2.59611 35.70631,3.33372 14.575,0.44373 27.58954,1.23502 28.92121,1.75842 2.21987,0.87251 1.8041,1.20139 -5,3.95502 -4.08167,1.65186 -9.44621,3.60418 -11.92121,4.33848 -2.475,0.7343 -4.86164,1.64099 -5.30365,2.01486 -0.44201,0.37387 3.83299,0.9594 9.5,1.30116 12.10162,0.72983 39.6474,2.82473 75.30365,5.72697 6.6,0.53721 18.525,1.40671 26.5,1.93224 7.975,0.52552 19.225,1.39786 25,1.93852 22.42728,2.09966 34.77582,3.31938 41.5,4.09912 9.332,1.08215 26.07795,0.30334 36.25,-1.68588 z m -471.25,-43.41208 c 8.25,-2.22069 18.0375,-4.91285 21.75,-5.9826 13.76148,-3.96531 20.61024,-5.90545 35.25,-9.98572 8.25,-2.29937 17.925,-4.99746 21.5,-5.99575 14.08001,-3.93174 48.85685,-12.4635 65.5,-16.06904 6.80356,-1.47392 23.49593,-3.91167 34.5,-5.03838 9.59234,-0.98216 33.59701,-0.2992 58.25329,1.65739 8.02317,0.63667 86.04198,-1.24372 104.24671,-2.51253 17.98277,-1.25334 32.23944,-2.65963 42.78344,-4.22018 l 7.78344,-1.15198 -0.61335,-4.5644 c -0.74523,-5.54587 -3.07919,-13.00106 -4.73582,-15.12726 -2.33462,-2.99637 -7.26936,-4.89853 -14.71771,-5.67312 -8.44959,-0.87871 -41.10002,0.42902 -93.5,3.74491 -8.25,0.52206 -22.875,1.41805 -32.5,1.99108 -16.59328,0.9879 -27.00717,1.64225 -63,3.9586 -8.525,0.54864 -25.625,1.4971 -38,2.10769 -35.21815,1.7377 -49.13479,2.72976 -54,3.84943 -4.57006,1.05174 -15.23322,2.78725 -22.5,3.66204 -2.2,0.26484 -6.7,0.89143 -10,1.39242 -7.93211,1.20421 -19.0402,2.72162 -29.5,4.02982 -4.675,0.5847 -11.65,1.48114 -15.5,1.99209 -3.85,0.51095 -11.1625,1.39676 -16.25,1.96846 -18.19629,2.04477 -27.86318,3.15101 -35.25,4.03384 -7.68873,0.91892 -20.1589,2.14976 -25.5,2.51692 -9.36017,0.64345 -29.24779,2.63753 -30.70505,3.07872 -1.42497,0.43142 -1.52885,0.95922 -0.6324,3.21309 0.58996,1.48328 1.19415,8.75175 1.34264,16.15215 l 0.26999,13.45528 7.36241,1.15062 c 10.80196,1.68818 21.18915,3.17031 31.36241,4.47506 4.95,0.63485 10.8,1.54426 13,2.02091 2.2,0.47665 9.175,0.65095 15.5,0.38734 9.27378,-0.38651 14.40377,-1.26091 26.5,-4.5169 z m 449.5,-14.37014 c -6.21803,-3.24642 -14.95922,-12.27993 -22.04036,-22.77744 -3.2778,-4.8592 -5.95964,-9.06788 -5.95964,-9.35262 0,-1.40402 -10.27293,-15.50308 -11.94985,-16.40054 -2.68179,-1.43525 -3.72015,0.6929 -6.45868,13.23725 -1.09478,5.01485 -1.04324,6.24969 0.39658,9.5 0.91021,2.05475 2.71981,7.23018 4.02133,11.50096 1.30152,4.27078 3.07638,8.40757 3.94413,9.19288 1.70144,1.53978 11.46003,3.66133 25.04649,5.4452 4.675,0.61382 9.625,1.27544 11,1.47027 5.89816,0.83574 6.32924,0.44432 2,-1.81596 z m -482,-42.11557 c 6.875,-0.83519 15.875,-1.941 20,-2.45737 8.15955,-1.0214 23.83839,-2.75528 31,-3.42821 2.475,-0.23255 9.225,-0.90546 15,-1.49535 5.775,-0.58988 13.65,-1.35679 17.5,-1.70423 4.50154,-0.40625 9.32,-1.68193 13.5,-3.57412 3.575,-1.61832 8.975,-3.83846 12,-4.93365 3.025,-1.09518 6.4,-2.37948 7.5,-2.85399 1.1,-0.47451 3.8,-1.40697 6,-2.07214 2.2,-0.66516 5.70352,-1.82268 7.7856,-2.57225 2.08208,-0.74957 8.83208,-2.71622 15,-4.37033 6.16792,-1.65412 15.2644,-4.16152 20.2144,-5.572 4.95,-1.41049 10.35,-2.94051 12,-3.40005 4.63865,-1.2919 30.65047,-7.81989 33.85477,-8.49627 2.38124,-0.50265 2.74629,-0.9683 2.20072,-2.80726 -1.46735,-4.94609 -2.51657,-23.97975 -1.96821,-35.70465 0.53213,-11.37761 2.28462,-24.81546 4.02493,-30.86258 0.66089,-2.29641 0.55683,-2.34264 -3.71614,-1.65086 -8.0795,1.30806 -22.40625,6.41234 -61.89607,22.05209 -11.13373,4.40946 -34.71465,14.40528 -43.27504,18.34405 -3.72628,1.71451 -6.98595,3.1173 -7.24373,3.1173 -0.51167,0 -18.58712,8.05416 -24.91906,11.10357 -2.16581,1.04304 -4.27715,1.89643 -4.69187,1.89643 -0.41473,0 -6.00142,2.475 -12.41487,5.5 -6.41346,3.025 -11.85242,5.5 -12.08658,5.5 -0.44037,0 -1.79754,0.63039 -34.36885,15.96393 -26.1358,12.3039 -29,15.2572 -29,29.90209 0,7.2588 -1.32093,6.923 18,4.57585 z m 454.5,-21.36419 c 1.88435,-0.73655 1.85543,-0.82676 -0.5,-1.56017 -1.375,-0.42813 -4.3,-1.57674 -6.5,-2.55247 -8.07713,-3.58231 -22.19547,-7.673 -33,-9.56151 l -4,-0.69916 4.5,-1.41527 c 4.39669,-1.38278 21.89625,-1.3066 42.5,0.18502 7.42137,0.53727 6.93433,0.17246 -4,-2.99609 -9.59792,-2.78129 -36.5,-13.93935 -36.5,-15.13895 0,-0.62885 1.5023,-0.45424 18.41287,2.14012 11.11795,1.70568 18.20443,1.94903 19.00563,0.65267 0.50273,-0.81344 -3.2769,-1.7221 -17.1685,-4.12752 -20.76786,-3.59607 -28.15693,-5.65796 -34.40041,-9.5993 -3.48901,-2.20251 -7.63273,-7.95524 -6.52681,-9.06117 0.4186,-0.41859 15.03714,2.19945 26.37004,4.72262 4.39638,0.97882 7.93635,1.22934 7.21781,0.5108 -0.23248,-0.23248 -5.59498,-1.77478 -11.91666,-3.42732 -6.32168,-1.65254 -14.08147,-3.71233 -17.24397,-4.5773 -11.77149,-3.21961 -16.67817,-4.52353 -34.25,-9.10169 -9.9,-2.57934 -20.925,-5.35088 -24.5,-6.15896 -3.575,-0.80809 -8.075,-1.85149 -10,-2.31868 -21.69506,-5.26526 -47.43087,-11.24292 -64.25,-14.92335 -2.3375,-0.51151 -6.275,-1.38467 -8.75,-1.94036 -2.475,-0.55569 -6.075,-1.28281 -8,-1.61581 -22.174,-3.83586 -30.80808,-5.05356 -30,-4.23103 0.275,0.27992 6.35,2.62201 13.5,5.20466 13.45153,4.85882 47.97253,18.37844 55,21.53991 2.2,0.98972 6.025,2.99609 8.5,4.45861 4.09286,2.41853 4.22857,2.61476 1.5,2.16888 -1.65,-0.26963 -4.575,-0.93829 -6.5,-1.4859 -24.62206,-7.00434 -38.83737,-10.1196 -53.45324,-11.71417 -5.43334,-0.59277 -5.83482,-0.50681 -4.5973,0.98431 2.82806,3.40761 14.14326,8.60585 30.55004,14.03481 9.34972,3.0938 17.44972,6.08466 18,6.64635 0.67779,0.69186 0.19414,0.8379 -1.4995,0.45276 -8.50151,-1.93325 -35.69691,-6.07912 -45.5,-6.93636 l -6,-0.52468 3.5,2.94529 c 5.07593,4.27144 24.05681,13.32849 34.5,16.46225 4.95,1.48538 9.675,2.98865 10.5,3.34059 2.63492,1.12404 -22.19555,1.27828 -30.409,0.1889 -9.7176,-1.28889 -20.34826,-1.38127 -19.041,-0.16547 2.86363,2.66329 43.72675,13.92409 92.95,25.61458 10.69535,2.54014 14.03415,3.27426 25.5,5.60685 6.90764,1.40527 10.20039,2.12863 21.80144,4.78936 9.69505,2.22358 14.19186,2.12373 37.19856,-0.82594 18.75496,-2.40455 28.15826,-3.24549 30.2948,-2.70925 1.30666,0.32795 4.36237,2.15816 6.79047,4.06712 4.45121,3.49953 6.74862,4.08441 10.41473,2.65142 z M 151.3635,465.28508 c 1.92717,-1.43292 4.40217,-3.1743 5.5,-3.86973 5.1473,-3.26061 20.88431,-15.05438 31.00439,-23.23558 2.38121,-1.925 6.05346,-4.84254 8.16057,-6.48343 7.8232,-6.09224 13.9561,-11.10396 18.3617,-15.00492 6.58158,-5.8277 15.66787,-13.49885 18.77492,-15.85085 1.48196,-1.12181 4.73283,-3.86692 7.22415,-6.10023 2.49133,-2.23331 7.66226,-6.76057 11.49097,-10.06057 3.82871,-3.3 8.99036,-7.81653 11.47032,-10.03672 2.47997,-2.2202 6.30903,-5.55179 8.50903,-7.40353 4.03844,-3.39915 13.95881,-12.17449 24.63596,-21.79241 3.19491,-2.87796 7.03622,-6.25296 8.53623,-7.5 1.50002,-1.24703 4.77492,-4.08187 7.27756,-6.29963 8.8445,-7.83771 13.59872,-11.20963 16.79469,-11.91158 1.77794,-0.3905 3.49182,-1.12939 3.80861,-1.64197 0.84483,-1.36696 -4.8561,-23.05595 -6.63476,-25.24173 -0.37039,-0.45517 -28.74103,27.23825 -63.04586,61.54093 -73.74394,73.73931 -98.14952,97.39961 -112.87243,109.42567 -1.925,1.57239 -4.4,3.70239 -5.5,4.73334 -1.98053,1.8562 -1.97567,1.86211 0.5,0.60634 1.375,-0.69745 4.07678,-2.44049 6.00395,-3.8734 z m 587.99605,-79.10531 c -0.825,-0.53316 -2.4,-0.93141 -3.5,-0.88501 -1.64764,0.0695 -1.55955,0.22543 0.5,0.88501 3.53568,1.13232 4.75214,1.13232 3,0 z m -6,-1.33661 c 0,-0.18514 -5.15439,-2.06145 -11.45421,-4.16959 -6.29981,-2.10814 -11.22325,-4.20666 -10.94098,-4.66339 1.03524,-1.67505 18.29774,-0.73316 32.89519,1.79486 8.25,1.42875 18.15,2.75766 22,2.95313 l 7,0.35541 -4.5,-1.50915 c -2.475,-0.83004 -9.9,-2.85366 -16.5,-4.49695 -14.42727,-3.59214 -17.09038,-4.31062 -25.5,-6.8796 l -6.5,-1.98563 5,0.43883 c 2.75,0.24135 12.875,0.66499 22.5,0.9414 16.66105,0.47849 17.21236,0.43488 11.5,-0.90965 -5.53215,-1.30212 -16.00457,-4.45702 -31,-9.33903 l -6,-1.9534 17.28728,-0.7497 c 9.508,-0.41234 17.13433,-0.90265 16.94739,-1.08959 -0.18693,-0.18693 -4.59121,-1.01875 -9.78727,-1.84847 -5.19607,-0.82972 -14.3974,-2.44066 -20.4474,-3.57986 -6.05,-1.1392 -13.25,-2.44897 -16,-2.91059 -2.75,-0.46162 -8.9375,-1.56451 -13.75,-2.45086 -4.8125,-0.88636 -12.6875,-2.31221 -17.5,-3.16856 -4.8125,-0.85635 -11.225,-2.007 -14.25,-2.557 -3.025,-0.55 -8.425,-1.40866 -12,-1.90814 -3.575,-0.49947 -11.45,-1.83444 -17.5,-2.96659 -6.05,-1.13216 -15.275,-2.7193 -20.5,-3.52699 -8.34829,-1.29049 -15.16708,-2.47339 -38,-6.59211 -3.025,-0.54566 -7.975,-1.3958 -11,-1.88919 -3.025,-0.49339 -10.9,-1.86509 -17.5,-3.04823 -13.62384,-2.44225 -19.43064,-3.45117 -28,-4.86493 -3.3,-0.54443 -8.7,-1.48436 -12,-2.08873 -3.3,-0.60438 -10.05,-1.7335 -15,-2.50916 -26.68153,-4.18097 -34.59789,-5.44456 -40.5,-6.46453 -3.575,-0.6178 -9.2,-1.54543 -12.5,-2.06139 -3.3,-0.51596 -8.7,-1.41688 -12,-2.00203 -8.76556,-1.55431 -16.08514,-2.75586 -24,-3.93972 -3.85,-0.57587 -7.59675,-1.26593 -8.32612,-1.53347 -1.17877,-0.43239 -12.36065,0.54838 -25.17388,2.20801 l -4.5,0.58286 5,1.33988 c 2.75,0.73694 6.8,1.34864 9,1.35934 7.8262,0.0381 29.64397,5.01724 32,7.30291 0.64675,0.62743 -3.76893,0.75699 -12.5,0.36677 -7.425,-0.33184 -19.35,-0.86789 -26.5,-1.1912 -8.39295,-0.37952 -12.46842,-0.25027 -11.5,0.36471 1.42348,0.90396 13.24178,3.31999 23,4.7019 13.62602,1.92967 16.69392,2.501 21.84885,4.06888 6.74654,2.05197 9.3216,3.9437 4.11176,3.02064 -6.98436,-1.23746 -53.08159,-5.57053 -53.77449,-5.05472 -0.17263,0.12851 2.75237,1.2419 6.5,2.4742 10.33148,3.39721 20.98856,7.72 29.31388,11.89046 4.125,2.06636 9.075,4.07914 11,4.47282 6.81374,1.3935 26.58928,4.75218 33,5.60473 3.575,0.47543 9.2,1.36664 12.5,1.98046 3.3,0.61381 8.7,1.5356 12,2.04841 3.3,0.51281 14.1,2.3147 24,4.00419 24.32773,4.15168 28.46556,4.82728 39.5,6.44932 5.225,0.76806 12.2,1.89544 15.5,2.50529 3.3,0.60985 8.7,1.52435 12,2.03223 3.3,0.50787 16.575,2.72153 29.5,4.91924 12.925,2.19771 27.55,4.67126 32.5,5.49677 57.86367,9.64991 70.46781,11.78205 79.5,13.44839 5.775,1.06543 15.88884,2.90298 22.47519,4.08346 6.58636,1.18047 12.17386,2.34498 12.41667,2.58779 0.51211,0.51211 5.10814,0.60646 5.10814,0.10486 z m -16.1875,-19.3465 c 0.72187,-0.28887 1.58438,-0.25335 1.91667,0.0789 0.33229,0.33229 -0.25834,0.56864 -1.3125,0.52522 -1.16495,-0.048 -1.4019,-0.28494 -0.60417,-0.60416 z m -568.3125,15.63399 c 3.3,-0.63834 7.8,-1.50576 10,-1.9276 9.9457,-1.90705 24.78356,-5.58855 48,-11.90954 11.94685,-3.25269 21.94322,-7.0645 23.28125,-8.87759 1.84867,-2.50502 10.54973,-13.17254 19.21875,-23.56224 4.125,-4.94375 9.075,-10.91849 11,-13.27719 1.925,-2.3587 6.61486,-7.99072 10.42192,-12.51559 3.80705,-4.52488 6.28074,-7.98101 5.49709,-7.68029 -0.78366,0.30071 -11.32352,3.29965 -23.42192,6.6643 -12.0984,3.36465 -23.57209,6.57691 -25.49709,7.13835 -1.925,0.56144 -12.725,3.51485 -24,6.56312 -19.09015,5.16116 -21.0158,5.89701 -28,10.69984 -6.02099,4.14045 -38.51398,28.00294 -39.83908,29.25738 -0.31609,0.29923 0.57422,5.21571 3.03489,16.75937 0.79174,3.71424 1.38663,4.6765 2.6619,4.30576 0.90326,-0.2626 4.34229,-0.99974 7.64229,-1.63808 z m 509,-59.78126 c -1.65,-1.0026 -7.725,-4.32237 -13.5,-7.37727 -5.775,-3.05489 -15,-8.02261 -20.5,-11.03937 -9.73992,-5.34237 -12.44241,-6.88568 -30.82887,-17.6055 -4.85587,-2.83112 -9.0294,-5.14748 -9.27451,-5.14748 -0.2451,0 -3.24711,-1.73759 -6.67113,-3.8613 -3.42402,-2.12372 -11.62549,-6.92714 -18.22549,-10.67427 -6.6,-3.74713 -14.7,-8.45123 -18,-10.45357 -3.3,-2.00234 -6.675,-3.95279 -7.5,-4.33433 -0.825,-0.38155 -2.9625,-1.58071 -4.75,-2.66481 -3.81931,-2.31637 -3.97489,-1.8346 -1.1248,3.48305 2.97638,5.55329 8.47107,10.35906 22.59514,19.76217 6.72119,4.47464 11.99444,8.36161 11.71834,8.63771 -0.2761,0.2761 -9.08558,-3.88942 -19.57661,-9.25672 -10.49104,-5.3673 -19.28825,-9.54509 -19.54936,-9.28397 -1.85555,1.85555 7.07886,10.28235 17.5969,16.59712 4.62529,2.7769 8.16813,5.04892 7.87299,5.04892 -0.29514,0 -4.97947,-1.38139 -10.40961,-3.06975 -9.43055,-2.93219 -20.37299,-4.87518 -20.37299,-3.61753 0,0.46637 25.81402,16.10812 35.5,21.51088 1.8292,1.02031 1.7438,1.12008 -1,1.16823 l -3,0.0526 2.34078,1.80054 c 1.28742,0.9903 6.14515,3.73891 10.79493,6.10802 6.62195,3.37395 10.12403,4.49546 16.15923,5.17482 4.23778,0.47704 10.85506,1.28962 14.70506,1.80573 6.67698,0.89508 14.06548,1.8553 31.25,4.0613 4.2625,0.54718 11.125,1.48378 15.25,2.08134 23.3301,3.37965 22.14752,3.30976 18.5,1.0934 z m -214,-31.63365 c 12.59803,-1.10799 27.85299,-3.69546 42.5,-7.20862 14.26015,-3.42038 18.52532,-4.93011 18.36002,-6.49886 -0.077,-0.73067 -2.03675,-7.62849 -4.35504,-15.32849 -4.76509,-15.82684 -7.96848,-26.93317 -8.72496,-30.25 -0.62096,-2.72258 -0.5098,-2.71795 -7.86486,-0.32766 -3.25334,1.05729 -8.39016,2.59581 -11.41516,3.41894 -3.025,0.82312 -8.65,2.47361 -12.5,3.66775 -3.85,1.19414 -9.475,2.77682 -12.5,3.51707 -8.58375,2.10054 -8.73373,2.14431 -37.5,10.94417 -15.27217,4.67189 -49.31083,16.18415 -56.49878,19.10852 l -5.49894,2.23721 3.99886,0.63678 c 6.81499,1.08521 7.58114,1.23375 23.49886,4.5559 28.6061,5.97032 35.04114,7.37799 47.5,10.39068 5.5,1.32996 10.9,2.26829 12,2.08518 1.1,-0.18311 5.15,-0.60996 9,-0.94857 z M 208.5909,230.63827 c 9.6682,-12.17581 16.03648,-19.97289 16.70951,-20.4585 0.38114,-0.275 5.3092,-6.125 10.95126,-13 5.64205,-6.875 12.13693,-14.71637 14.43308,-17.42526 6.38876,-7.53718 15.5774,-18.60458 21.6748,-26.10654 3.025,-3.72182 7.71464,-9.19802 10.42143,-12.16935 2.70679,-2.97132 6.08179,-6.89851 7.5,-8.72708 1.41821,-1.82858 5.95357,-7.24696 10.07857,-12.04086 4.125,-4.7939 9.3,-10.87435 11.5,-13.5121 2.2,-2.63776 6.85884,-7.996064 10.35298,-11.907359 3.49415,-3.911295 6.01572,-7.111446 5.60351,-7.111446 -0.77218,0 -2.63853,1.194597 -25.28009,16.181085 -7.32798,4.8504 -13.51196,8.81891 -13.74217,8.81891 -0.23021,0 -6.47641,3.9375 -13.88044,8.75 -47.5276,30.89217 -92.45956,58.25 -95.66866,58.25 -1.91887,0 -3.08043,4.47311 -2.43843,9.39022 0.70581,5.40589 1.50096,8.00241 6.61762,21.60978 3.65515,9.72056 11.92414,33.22189 11.95886,33.98829 0.0361,0.79606 7.96212,-7.92309 13.20817,-14.52979 z m 462.76865,-33.38188 c -1.925,-1.00924 -10.925,-4.34595 -20,-7.41491 -9.075,-3.06895 -19.2,-6.7043 -22.5,-8.07855 -5.96216,-2.48286 -5.97666,-2.49889 -2.29922,-2.54089 5.96849,-0.0682 13.47199,-2.02321 15.23283,-3.96891 1.93517,-2.13834 2.60596,-1.80778 -16.43361,-8.09826 -6.875,-2.27143 -18.35,-6.31255 -25.5,-8.98026 -7.15,-2.66772 -17.5,-6.48893 -23,-8.49158 -5.5,-2.00266 -21.475,-8.14809 -35.5,-13.65653 -14.025,-5.50844 -29.55,-11.59103 -34.5,-13.51687 -4.95,-1.92584 -9.9,-3.89365 -11,-4.3729 -4.40387,-1.91869 -28.30694,-9.90172 -32.51237,-10.85831 -2.4682,-0.56144 -12.36263,-1.49793 -21.98763,-2.08111 -9.625,-0.58317 -19.75,-1.50877 -22.5,-2.05688 -2.75,-0.54811 -7.25,-1.43686 -10,-1.975 -2.75,-0.53814 -9.65474,-1.912815 -15.34387,-3.054836 -5.68914,-1.142022 -10.56055,-1.859735 -10.82536,-1.594918 -0.26482,0.264818 0.56492,0.783533 1.84387,1.152702 3.7695,1.088067 17.11527,7.692692 19.82536,9.811282 l 2.5,1.95436 -3.5,-0.67873 c -5.91779,-1.14758 -31.66878,-1.75716 -30,-0.71017 0.825,0.51761 6.45,2.34477 12.5,4.06036 23.8668,6.76787 27.46896,8.24916 19.5,8.01886 -12.43444,-0.35934 -29,0.15276 -29,0.8965 0,1.24886 8.6517,5.71599 15.5,8.00311 4.54045,1.51636 9.46644,2.0998 20.25,2.39842 13.25423,0.36705 14.25,0.26754 14.25,-1.42399 0,-4.89979 21.21724,-0.0745 80,18.1937 17.35906,5.39477 63.89177,20.77208 66.5,21.97575 1.1,0.50763 7.4,2.55369 14,4.54679 6.6,1.9931 14.475,4.45577 17.5,5.47261 14.31395,4.81154 43.75361,13.9998 45.0485,14.05985 0.79832,0.037 4.6015,1.12432 8.4515,2.41623 3.85,1.29191 9.25,2.36673 12,2.3885 l 5,0.0396 -3.5,-1.83499 z m -51.1449,-59.09079 c -2.0047,-1.05917 -8.7547,-2.84801 -15,-3.97519 -25.0402,-4.51935 -28.53879,-5.28426 -33.13553,-7.24452 -2.62924,-1.12122 -4.63663,-2.18239 -4.46087,-2.35815 0.7008,-0.70081 31.46992,1.71041 39.09942,3.06401 7.64032,1.35553 21.31926,4.69952 24.99724,6.11089 0.90455,0.34711 1.64464,0.407 1.64464,0.13308 0,-0.27391 -5.7375,-2.8108 -12.75,-5.63752 -7.0125,-2.82672 -16.28721,-6.81325 -20.61046,-8.85896 l -7.86047,-3.71947 16.33497,-0.5 16.33496,-0.5 -8.9745,-4.38307 c -4.93597,-2.41068 -14.1495,-7.19478 -20.4745,-10.631312 -6.325,-3.43654 -20.05,-10.628325 -30.5,-15.981744 -10.45,-5.353419 -19.45,-10.077772 -20,-10.498561 -0.55,-0.420789 -7.75,-4.252516 -16,-8.514948 -8.25,-4.262432 -15.45,-8.091165 -16,-8.508296 -1.89588,-1.437874 -51.01252,-25.78832 -57,-28.258766 -6.84572,-2.824554 -16.12203,-4.538776 -15.03393,-2.778206 1.41307,2.286396 16.06385,9.165016 34.03393,15.979107 5.5,2.08555 12.25,4.81915 15,6.074665 2.75,1.255516 6.8,3.074703 9,4.04264 2.2,0.967936 4.9,2.46526 6,3.327387 1.93186,1.514095 1.89094,1.568586 -1.20078,1.599306 -4.06807,0.04042 -9.92475,-1.15152 -29.70877,-6.046269 -8.75025,-2.164894 -16.05718,-3.788532 -16.23763,-3.608084 -0.18044,0.180447 4.63901,2.486137 10.70991,5.123755 10.63125,4.618954 24.86452,13.017632 26.47379,15.621498 0.92941,1.503804 0.20384,1.319021 -11.57236,-2.947179 -8.51195,-3.083652 -12.90742,-4.187203 -24.68397,-6.197298 -12.26422,-2.093335 -11.8037,-1.155515 4.77273,9.719301 13.46831,8.835763 28.13731,19.398504 26.87187,19.349694 -0.23363,-0.009 -9.76229,-3.540187 -21.17479,-7.847055 -11.4125,-4.306868 -20.75,-7.497966 -20.75,-7.091328 0,1.948329 13.51983,12.853175 27.72378,22.361485 17.16265,11.488898 18.31126,11.978708 55.27622,23.571618 9.075,2.84609 17.625,5.54996 19,6.00861 1.375,0.45864 9.25,2.94379 17.5,5.52255 8.25,2.57876 17.7,5.60629 21,6.72784 5.83506,1.98313 16.78622,3.3275 29,3.56003 l 6,0.11424 z M 422.98937,80.041759 c 2.82139,-1.053662 6.59287,-3.313931 8.38106,-5.02282 l 3.25126,-3.107071 -0.57797,-8.616047 c -1.00949,-15.049044 -2.72498,-33.554609 -3.27727,-35.353035 -0.48658,-1.584471 -0.83736,-1.609993 -3.99498,-0.290655 -4.81463,2.011679 -26.79658,14.028303 -32.88181,17.975126 -7.00005,4.540164 -25.12338,15.825686 -27.52708,17.141299 -1.09409,0.598829 -2.77986,1.777609 -3.74614,2.619512 -0.96629,0.841902 -2.20689,1.706242 -2.75689,1.920755 -2.13477,0.832613 -10.5,6.389291 -10.5,6.974721 0,0.740931 13.10231,4.404562 21.5,6.011769 16.82576,3.220228 43.17117,3.092087 52.12982,-0.253554 z"
       id="path947" />
  </g>
</svg>
